<?xml version="1.0" encoding="utf-8"?>
<svg version="1.1" xmlns:xlink="http://www.w3.org/1999/xlink" width="13px" height="13px" xmlns="http://www.w3.org/2000/svg">
  <g transform="matrix(1 0 0 1 -322 -142 )">
    <path d="M 11.4892578125 6.7666015625  C 11.5400390625 6.08359375  11.5349609375 5.398046875  11.46640625 4.717578125  L 11.4486328125 4.514453125  C 11.3166015625 3.2220703125  10.526953125 2.0896484375  9.3716796875 1.518359375  C 7.5638671875 0.6271484375  5.4412109375 0.6271484375  3.6333984375 1.518359375  C 2.478125 2.0896484375  1.6884765625 3.2220703125  1.5564453125 4.514453125  L 1.538671875 4.717578125  C 1.4701171875 5.398046875  1.4625 6.08359375  1.5208984375 6.7640625  L 1.538671875 6.992578125  C 1.569140625 7.3658203125  1.589453125 7.581640625  1.6275390625 7.7873046875  C 1.823046875 8.9044921875  2.40703125 9.9150390625  3.2728515625 10.6412109375  C 3.4302734375 10.77578125  3.60546875 10.89765625  3.9126953125 11.1109375  L 4.0701171875 11.22265625  C 4.47890625 11.50703125  4.72265625 11.6796875  4.9791015625 11.8015625  C 5.9388671875 12.26875  7.06875 12.26875  8.0310546875 11.8015625  C 8.2875 11.6796875  8.5337890625 11.50703125  8.9400390625 11.22265625  L 9.0974609375 11.1134765625  C 9.4046875 10.9001953125  9.5798828125 10.77578125  9.7373046875 10.64375  C 10.603125 9.917578125  11.187109375 8.90703125  11.3826171875 7.78984375  C 11.420703125 7.5841796875  11.4384765625 7.368359375  11.471484375 6.9951171875  L 11.4892578125 6.7666015625  Z M 8.3662109375 5.0298828125  C 8.5337890625 5.1923828125  8.5388671875 5.458984375  8.383984375 5.6291015625  L 6.3755859375 7.8025390625  C 6.2994140625 7.886328125  6.1927734375 7.9345703125  6.0810546875 7.937109375  C 5.96171875 7.9396484375  5.855078125 7.8939453125  5.773828125 7.8126953125  L 4.626171875 6.6548828125  C 4.463671875 6.48984375  4.463671875 6.220703125  4.626171875 6.0556640625  C 4.788671875 5.890625  5.0603515625 5.890625  5.2228515625 6.0556640625  L 6.06328125 6.9037109375  L 7.7771484375 5.0501953125  C 7.9345703125 4.880078125  8.1986328125 4.869921875  8.3662109375 5.0298828125  Z " fill-rule="nonzero" fill="#2157f2" stroke="none" transform="matrix(1 0 0 1 322 142 )" />
  </g>
</svg>