<?xml version="1.0" encoding="utf-8"?>
<svg version="1.1" xmlns:xlink="http://www.w3.org/1999/xlink" width="21px" height="24px" xmlns="http://www.w3.org/2000/svg">
  <g transform="matrix(1 0 0 1 -242 -214 )">
    <path d="M 7.07564 1.40484  C 7.78124 0.863759999999997  8.86736 0.555599999999997  10.33472 0.48  C 16.48856 0.534  19.74512 4.25892  20.10476 11.65512  C 20.1494 12.57312  20.12996 13.41984  20.05472 14.20176  C 19.1113204692786 13.4727163624328  17.9522682826124 13.0780915139132  16.76 13.08  C 13.77776 13.08  11.36 15.49776  11.36 18.48  C 11.36 20.26416  12.22544 21.846  13.55924 22.82952  C 11.80568 23.42352  10.15364 23.5182  9.27272 23.52  C 6.74912 23.52468  0.92 22.494  0.92 15.31992  C 1.0694 13.93536  1.50536 12.56952  2.22752 11.22312  C 3.31112 9.20244  3.86696 7.06512  4.40084 4.62  C 5.0366 3.1008  5.7386 2.217  7.07564 1.40484  Z M 6.39632 8.34672  C 5.91149618901273 8.23729651856053  5.42975525999843 8.54158787820555  5.32028 9.0264  C 5.06864 10.14024  4.6226 10.9524  3.99188 11.49168  C 3.79194421922432 11.6626777072424  3.67683500112494 11.9125934509016  3.67683500112494 12.17568  C 3.67683500112494 12.6727611270402  4.07979887295983 13.0757249988751  4.57688 13.0757249988751  C 4.79139507721726 13.0757249988751  4.9988566922765 12.999107828974  5.16188 12.85968  C 6.10868 12.04968  6.74408 10.89408  7.076 9.42276  C 7.09072752587895 9.35762494093033  7.0981599149347 9.29105307380029  7.0981599149347 9.22427376608806  C 7.0981599149347 8.80356638176859  6.80670311576551 8.43899045673816  6.39632 8.34636  Z " fill-rule="nonzero" fill="#2000ff" stroke="none" transform="matrix(1 0 0 1 242 214 )" />
  </g>
</svg>