<?xml version="1.0" encoding="utf-8"?>
<svg version="1.1" xmlns:xlink="http://www.w3.org/1999/xlink" width="18px" height="14px" xmlns="http://www.w3.org/2000/svg">
  <g transform="matrix(1 0 0 1 -328 -18 )">
    <path d="M 17.71875 3.0625  C 17.71875 1.83750000683594  16.7906250065918 0.874999993164063  15.6093749934082 1  L 2.1093750065918 1  C 0.928124993408203 0.874999993164063  0 1.83750000683594  0 3.0625  L 0 10.9375  C 0 12.1624999931641  0.928124993408203 13.1250000068359  2.1093750065918 13  L 15.6093749934082 13  C 16.7906249868164 13.1250000068359  17.71875 12.1625000136719  17.71875 10.9375  L 17.71875 3.0625  Z M 16.0312500065918 3.0625  L 16.0312500065918 10.9375  C 16.0312500065918 11.2  15.8625000131836 11.3749999931641  15.6093749934082 11.3749999931641  L 2.1093750065918 11.3749999931641  C 1.8562500065918 11.3749999931641  1.6875000131836 11.2  1.6874999934082 10.9375  L 1.6874999934082 3.0625  C 1.6874999934082 2.8  1.85624998681641 2.62500000683594  2.1093750065918 2.62500000683594  L 15.6093749934082 2.62500000683594  C 15.8624999934082 2.62500000683594  16.0312499868164 2.8  16.0312500065918 3.0625  Z " fill-rule="nonzero" fill="#000000" stroke="none" transform="matrix(1 0 0 1 328 18 )" />
  </g>
</svg>