<?xml version="1.0" encoding="utf-8"?>
<svg version="1.1" xmlns:xlink="http://www.w3.org/1999/xlink" width="19px" height="21px" xmlns="http://www.w3.org/2000/svg">
  <g transform="matrix(1 0 0 1 -36 -149 )">
    <path d="M 18.125 9.54166665917969  C 18.125 14.3050625  10.6979166591797 20.0833333183594  9.5 20.0833333408203  C 8.30208334082031 20.0833333408203  0.875 14.3050625  0.875 9.54166665917969  C 0.875 4.77827081835938  4.73660415917969 0.916666659179687  9.5 0.916666659179687  C 14.2633958408203 0.916666659179687  18.125 4.77827081835937  18.125 9.54166665917969  Z M 6.86458334082031 9.54166665917969  C 6.86458334082031 10.9971354091797  8.04453125 12.1770833183594  9.5 12.1770833408203  C 10.95546875 12.1770833408203  12.1354166591797 10.9971354316406  12.1354166591797 9.54166665917969  C 12.1354166591797 8.08619788671875  10.95546875 6.90625  9.5 6.90625  C 8.04453125 6.90625  6.86458334082031 8.08619790917969  6.86458334082031 9.54166665917969  Z " fill-rule="nonzero" fill="#2000ff" stroke="none" transform="matrix(1 0 0 1 36 149 )" />
  </g>
</svg>