<?xml version="1.0" encoding="utf-8"?>
<svg version="1.1" xmlns:xlink="http://www.w3.org/1999/xlink" width="27px" height="28px" xmlns="http://www.w3.org/2000/svg">
  <g transform="matrix(1 0 0 1 -328 -51 )">
    <path d="M 16.7446551724138 27.5208888888889  C 15.6821483871438 27.7779494935579  14.5930121869296 27.9079660076299  13.5 27.9082222222222  C 12.4448275862069 27.9082222222222  11.3818965517241 27.7853333333333  10.3422413793103 27.5426666666667  C 9.90775862068965 27.4415555555556  9.6051724137931 27.0448888888889  9.62379310344827 26.5968888888889  C 9.62534482758621 26.5533333333333  9.62689655172414 26.5113333333333  9.62689655172414 26.4677777777778  C 9.62689655172414 24.696  8.19 23.2555555555556  6.42258620689655 23.2555555555556  C 5.80189655172414 23.2555555555556  5.1998275862069 23.4344444444444  4.68 23.772  C 4.30583177719398 24.0158348275274  3.81166680608615 23.9590515515812  3.50224137931034 23.6366666666667  C 2.00327586206896 22.0748888888889  0.876724137931033 20.1631111111111  0.243620689655171 18.1113333333333  C 0.111724137931033 17.682  0.304137931034481 17.2184444444444  0.701379310344826 17.0084444444444  C 1.25379310344827 16.7175555555556  1.70689655172414 16.2757777777778  2.01103448275862 15.7282222222222  C 2.87068965517241 14.1804444444444  2.3151724137931 12.2204444444444  0.771206896551723 11.3586666666667  C 0.726206896551724 11.3337777777778  0.681206896551723 11.3104444444444  0.636206896551723 11.2871111111111  C 0.235579813850949 11.086527532689  0.0341545438917647 10.6284441863147  0.156724137931033 10.1966666666667  C 0.772758620689654 8.01888888888889  1.93034482758621 6.00133333333333  3.50224137931034 4.36177777777778  C 3.81258620689655 4.03977777777778  4.30603448275862 3.98222222222222  4.68 4.22644444444445  C 5.19835910501526 4.56508559070142  5.80387030540142 4.74507944154145  6.42258620689655 4.74444444444445  C 8.19 4.74444444444445  9.62689655172414 3.304  9.62689655172414 1.53222222222222  C 9.62689655172414 1.48866666666667  9.6253448275862 1.44666666666667  9.62379310344827 1.40311111111111  C 9.60693712856729 0.956212538590305  9.90801009905617 0.559874855635664  10.3422413793103 0.457333333333334  C 12.4488833319764 -0.0353625030597578  14.6411520918653 -0.0284381542960047  16.7446551724138 0.477555555555557  C 17.1744827586207 0.58177777777778  17.4724137931034 0.973777777777779  17.4584482758621 1.41711111111111  L 17.4584482758621 1.43733333333333  C 17.4568965517241 1.46844444444445  17.4553448275862 1.50111111111111  17.4553448275862 1.53222222222222  C 17.4553448275862 3.304  18.8922413793103 4.74444444444445  20.6596551724138 4.74444444444445  C 21.263275862069 4.74444444444445  21.8529310344828 4.57488888888889  22.3634482758621 4.25133333333333  C 22.7382540511058 4.01500270360062  23.2271596625817 4.07545428063211  23.5334482758621 4.396  C 25.0246551724138 5.96088888888889  26.1434482758621 7.87422222222222  26.7703448275862 9.926  C 26.8991829635729 10.3490433354259  26.7146461039049 10.8047090876259  26.3281034482759 11.018  C 25.8005172413793 11.3073333333333  25.3660344827586 11.7413333333333  25.0727586206896 12.2686666666667  C 24.2131034482759 13.8164444444444  24.7686206896552 15.7764444444444  26.3125862068965 16.6382222222222  C 26.3265517241379 16.646  26.3420689655172 16.6537777777778  26.3560344827586 16.6615555555556  L 26.393275862069 16.6817777777778  C 26.7834997119025 16.8860757399659  26.9776896869538 17.3364110826025  26.8587931034483 17.7613333333333  C 26.2489655172414 19.9391111111111  25.1006896551724 21.9582222222222  23.5334482758621 23.6024444444444  C 23.2271882641183 23.9230473363629  22.738240164785 23.9835041668788  22.3634482758621 23.7471111111111  C 21.8532588738607 23.4249816990931  21.2626062840565 23.2540352653685  20.6596551724138 23.254  C 18.8922413793103 23.254  17.4553448275862 24.6944444444444  17.4553448275862 26.4662222222222  C 17.4553448275862 26.4973333333333  17.4568965517241 26.53  17.4584482758621 26.5611111111111  L 17.4584482758621 26.5813333333333  C 17.4739655172414 27.0246666666667  17.1760344827586 27.4182222222222  16.7446551724138 27.5208888888889  Z M 6.42103448275862 21.3873333333333  C 9.01086206896552 21.3888888888889  11.1537931034483 23.3473333333333  11.451724137931 25.8642222222222  C 12.834229947857 26.1046026036779  14.2480939336502 26.0998640468162  15.6289655172414 25.8502222222222  C 15.9331034482759 23.3395555555556  18.0729310344828 21.3888888888889  20.6581034482759 21.3888888888889  C 21.3470689655172 21.3888888888889  22.0220689655172 21.5288888888889  22.6489655172414 21.798  C 23.6189757435264 20.6541040310452  24.3677980415153 19.3389786577896  24.8570689655172 17.92  C 22.838275862069 16.4266666666667  22.1896551724138 13.6173333333333  23.4434482758621 11.3633333333333  C 23.7786206896552 10.7613333333333  24.2286206896552 10.2371111111111  24.7670689655172 9.82022222222222  C 24.2813793103448 8.50888888888889  23.5598275862069 7.27844444444445  22.6505172413793 6.20355555555556  C 22.0214097775155 6.47376535903368  21.3440748011471 6.61295393924531  20.6596551724138 6.61266666666667  C 18.0744827586207 6.61266666666667  15.9346551724138 4.662  15.6305172413793 2.15133333333333  C 14.2494827586207 1.90244444444444  12.8405172413793 1.89622222222222  11.453275862069 2.13733333333333  C 11.1537931034483 4.65266666666667  9.01086206896552 6.61111111111111  6.42103448275862 6.61111111111111  C 5.71034482758621 6.61111111111111  5.01362068965517 6.46177777777778  4.37120689655172 6.17711111111111  C 3.4013601039806 7.3140365837212  2.65053072757635 8.62160619931307  2.15689655172414 10.0333333333333  C 3.08948275862069 10.6991111111111  3.76448275862069 11.6557777777778  4.08258620689655 12.7757777777778  C 4.45344827586207 14.0808888888889  4.29362068965517 15.4513333333333  3.63568965517241 16.6366666666667  C 3.28655172413793 17.2635555555556  2.8148275862069 17.8033333333333  2.25 18.228  C 2.74493289370381 19.5395083315928  3.4625964739352 20.7552334309016  4.37120689655172 21.8213333333333  C 5.01362068965517 21.5366666666667  5.71034482758621 21.3873333333333  6.42103448275862 21.3873333333333  Z " fill-rule="nonzero" fill="#4f4f4f" stroke="none" transform="matrix(1 0 0 1 328 51 )" />
  </g>
</svg>