<?xml version="1.0" encoding="utf-8"?>
<svg version="1.1" xmlns:xlink="http://www.w3.org/1999/xlink" width="10px" height="10px" xmlns="http://www.w3.org/2000/svg">
  <g transform="matrix(1 0 0 1 -337 -60 )">
    <path d="M 9.9828125 5  C 9.9828125 7.746875  7.7484375 9.9828125  5 9.9828125  C 2.2515625 9.9828125  0.0171874999999999 7.746875  0.0171874999999999 5  C 0.0171874999999999 2.253125  2.2515625 0.0171874999999999  5 0.0171874999999999  C 7.7484375 0.0171874999999999  9.9828125 2.253125  9.9828125 5  Z M 8.1078125 5  C 8.1078125 3.2859375  6.7140625 1.8921875  5 1.8921875  C 3.2859375 1.8921875  1.8921875 3.2859375  1.8921875 5  C 1.8921875 6.7140625  3.2859375 8.1078125  5 8.1078125  C 6.7140625 8.1078125  8.1078125 6.7140625  8.1078125 5  Z " fill-rule="nonzero" fill="#4f4f4f" stroke="none" transform="matrix(1 0 0 1 337 60 )" />
  </g>
</svg>