<?xml version="1.0" encoding="utf-8"?>
<svg version="1.1" xmlns:xlink="http://www.w3.org/1999/xlink" width="26px" height="10px" xmlns="http://www.w3.org/2000/svg">
  <g transform="matrix(1 0 0 1 -178 -385 )">
    <path d="M 17.0222925013587 8.98787879340278  C 16.2260090307816 9.43503229505659  15.3206079393377 9.65995817616314  14.403794455163 9.63838384114583  C 12.93515169461 9.60215628061585  11.5036602542987 9.17711852946013  10.2602371457201 8.40808079427083  L 10.1739130434783 8.35151514322916  C 10.0660079079484 8.26666666666666  7.41873519191576 6.30808079427083  2.72126480808424 7.36161615885417  C 2.6624173442038 7.37658002785926  2.60187758854505 7.38415247189299  2.54109274226985 7.38415247189299  C 2.14379699803553 7.38415247189299  1.82172516176714 7.06758613709927  1.82172516176714 6.67708177310826  C 1.82172516176714 6.33825233047669  2.06626978698945 6.04705036768688  2.4047430689538 5.98282828559028  C 7.51225296161685 4.83737374565972  10.5983399181386 6.90202019097222  11.0371541586277 7.20606060329861  C 14.2527272839674 9.04444444444444  16.1878260869565 7.84242425347222  16.2669565217391 7.79292930121528  L 16.3316995906929 7.75757574652778  L 21.4895652173913 5.04949495225695  C 23.1009486137908 4.27171717447917  23.4606324194973 3.76969698350694  23.5181818209919 3.67070707899306  C 23.5685375550272 3.42323231770834  23.5181818209919 3.25353536458334  23.4606324194973 3.16868685763889  C 22.9237735212747 2.92046368064142  22.3152834611203 2.86540950701117  21.7413438875679 3.01313130208334  L 16.353280623981 5.22626263454862  C 16.2645652729966 5.26340967285944  16.1691570280769 5.28264604868859  16.0727272839674 5.28282828559028  L 10.540790516644 5.28282828559028  C 10.1434947638741 5.28282828559028  9.82142292068615 4.96626194399533  9.82142292068615 4.57575757161459  C 9.82142292068615 4.18525319923384  10.1434947638741 3.86868685763889  10.540790516644 3.86868685763889  L 14.928932797894 3.86868685763889  C 15.605138342731 3.77676765190973  15.8137549463315 3.59292927083333  15.8425296470788 3.52929292100694  C 15.8713043478261 3.46565657118055  15.7705928797554 3.18282828559028  15.6483004093071 3.00606060329861  C 9.56245059850544 -0.0343434288194445  2.15296442968751 3.06262625434028  2.08102766236414 3.09797980902778  C 2.00013166816368 3.12785627221702  1.91442067178935 3.14316127073007  1.82800260673614 3.14316127073007  C 1.43070686250182 3.14316127073007  1.10863502623342 2.82659493593635  1.10863502623342 2.43609057194535  C 1.10863502623342 2.16857210316822  1.26224009109488 1.92396021563848  1.50553358559783 1.80404041232639  C 1.83644269055707 1.66262628472222  9.72071143716033 -1.64646463541667  16.4539920920516 1.80404041232639  C 16.5332207934137 1.84501727351013  16.6039713550409 1.90017059607085  16.6626086956522 1.96666666666666  C 16.9873367429801 2.3430808729492  17.1990590420763 2.80090772904894  17.274071140625 3.28888888888888  L 21.2377865472147 1.66262625434027  L 21.3672727160326 1.62020203125  C 21.7197628233696 1.54949495225694  23.5253754884511 1.23131314236111  24.4533596725544 2.13636365017361  C 24.904515117747 2.59204841920542  25.0840744067155 3.24452622289102  24.92814228125 3.86161615885416  C 24.8849802146739 4.4060606032986  24.3310671711957 5.24040403211805  22.1298023631114 6.30101009548611  L 17.0222925013587 8.98787879340278  Z " fill-rule="nonzero" fill="#040405" stroke="none" transform="matrix(1 0 0 1 178 385 )" />
  </g>
</svg>