<?xml version="1.0" encoding="utf-8"?>
<svg version="1.1" xmlns:xlink="http://www.w3.org/1999/xlink" width="26px" height="24px" xmlns="http://www.w3.org/2000/svg">
  <g transform="matrix(1 0 0 1 -244 -375 )">
    <path d="M 7.14074075390625 1.437777765625  C 10.55 -0.43666667578125  15.0351851953125 -0.20074075390625  18.4185185195313 1.61148148046875  C 22.15185184375 3.6051851953125  24.5007407539062 7.6651851953125  25.04 11.7874074023437  C 25.2033333242188 13.2185185195312  25.2033333242188 14.9503703632813  24.5033333242187 16.25185184375  C 23.8448148046875 17.3485185195313  22.2788888828125 17.8592592460937  21.1303703632812 18.2325925976563  C 21.4985185195312 19.1866666757813  21.8744444414063 20.0448148320313  21.6592592460938 21.0948148046875  C 21.3922222070312 22.2122222070313  20.0648148046875 22.9770370390625  19.02 22.3237037148438  C 17.9414814804687 21.6055555585938  17.402222234375 20.1951851953125  17.034074078125 19.0051851953125  C 16.3937037148437 19.0285185195313  15.7533333242187 19.0725925976563  15.1129629609375 19.12185184375  C 15.0455555585937 20.304074078125  15.03 21.6392592460938  14.2755555585937 22.62185184375  C 13.585925921875 23.5837036875  11.854074078125 23.6511110898438  11.2785185195312 22.5311111171875  C 10.76 21.5148148320312  10.8948148046875 20.2107407539063  11.0374074023437 19.1192592460938  L 9.53629628515625 19.0025925976562  C 9.29518516796875 20.1251851953125  8.99185184375 21.335925921875  8.0611111171875 22.0955555585938  C 7.2729629609375 22.8111111171875  5.694074078125 22.6062963125  5.3051851953125 21.5537037148437  C 4.84888891015625 20.4674074296875  5.20148148046875 19.2774074296875  5.52555555859375 18.2092592460938  C 4.43148148046875 17.81  3.18962963671875 17.2629629609375  2.4429629609375 16.332222234375  C 1.06370371484375 14.372222234375  0.586666675781248 11.8885185195312  1.04814815625 9.5448148046875  C 1.70148148046875 6.12518516796875  4.0762963125 3.0607407265625  7.14074075390625 1.437777765625  Z " fill-rule="nonzero" fill="#111111" stroke="none" transform="matrix(1 0 0 1 244 375 )" />
  </g>
</svg>