<?xml version="1.0" encoding="utf-8"?>
<svg version="1.1" xmlns:xlink="http://www.w3.org/1999/xlink" width="17px" height="6px" xmlns="http://www.w3.org/2000/svg">
  <g transform="matrix(1 0 0 1 -249 -385 )">
    <path d="M 0.3388888828125 3.35333332421875  C 0.115925921875 2.059629609375  0.93259259765625 0.9448148046875  2.17185184375 0.607777765625  C 3.45 0.25  5.384074078125 0.270740726562501  6.382222234375 1.28444444140625  C 7.4192592734375 2.22037036328125  7.3 4.02222220703125  6.17740740234375 4.8388888828125  C 5.25444444140625 5.51555555859375  3.89851851953125 5.59851851953125  2.80185184375 5.44814815625  C 1.66629628515625 5.282222234375  0.48148148046875 4.600370390625  0.3388888828125 3.35333332421875  Z M 10.074074078125 3.79148148046875  C 9.56333332421875 2.44333332421875  10.3411111171875 1.115925921875  11.7125925976563 0.78666667578125  C 12.74185184375 0.501481480468751  13.9370370390625 0.58444444140625  14.9014814804687 1.05370371484375  C 16.0396296367187 1.6162963125  16.34814815625 3.19259259765625  15.64814815625 4.20629628515625  C 14.9351851953125 5.1007407265625  13.7062963125 5.32111108984375  12.6251851953125 5.26666667578125  C 11.5985185195312 5.1862963125  10.4888889101562 4.82851851953125  10.074074078125 3.79148148046875  Z " fill-rule="nonzero" fill="#ff1368" stroke="none" transform="matrix(1 0 0 1 249 385 )" />
  </g>
</svg>