<?xml version="1.0" encoding="utf-8"?>
<svg version="1.1" xmlns:xlink="http://www.w3.org/1999/xlink" width="14px" height="4px" xmlns="http://www.w3.org/2000/svg">
  <g transform="matrix(1 0 0 1 -250 -386 )">
    <path d="M 1.304074078125 2.82259259765625  C 0.588518519531251 2.462222234375  0.61444444140625 1.37074075390625  1.37666667578125 1.09333332421875  C 2.1829629609375 0.78222220703125  3.26666667578125 0.7848148046875  4.0729629609375 1.095925921875  C 4.84555555859375 1.38629628515625  4.74185184375 2.65148148046875  3.94074075390625 2.86666667578125  C 3.1551851953125 3.12851851953125  2.07666667578125 3.13888891015625  1.304074078125 2.82259259765625  Z M 10.8396296367188 2.6048148046875  C 10.3288888828125 2.4025925703125  10.1992592734375 1.64037036328125  10.72814815625 1.35259259765625  C 11.3944444414063 0.955925921875  12.4470370390625 1.04148148046875  13.1548148046875 1.305925921875  C 13.7433333242187 1.5937036875  13.605925921875 2.4129629609375  13.0537037148437 2.64629628515625  C 12.4159259492188 2.915925921875  11.48 2.86407405078125  10.8396296367188 2.6048148046875  Z " fill-rule="nonzero" fill="#ffffff" stroke="none" transform="matrix(1 0 0 1 250 386 )" />
  </g>
</svg>