<?xml version="1.0" encoding="utf-8"?>
<svg version="1.1" xmlns:xlink="http://www.w3.org/1999/xlink" width="24px" height="14px" xmlns="http://www.w3.org/2000/svg">
  <g transform="matrix(1 0 0 1 -273 -18 )">
    <path d="M 0.28125 9.90613425925926  C 0.28125 9.00584972993827  0.715315755208333 8.55570746527778  1.583447265625 8.55570746527778  L 2.88515625 8.55570746527778  C 3.75328776041667 8.55570746527778  4.187353515625 9.00584972993827  4.187353515625 9.90613425925926  L 4.187353515625 12.6064814814815  C 4.187353515625 13.5067660108025  3.75328776041667 13.956908275463  2.88515625 13.956908275463  L 1.583447265625 13.956908275463  C 0.715315755208333 13.956908275463  0.28125 13.5067660108025  0.28125 12.6064814814815  L 0.28125 9.90613425925926  Z M 6.7917236328125 7.20530598958333  C 6.7917236328125 6.30502146026235  7.22578125 5.85487919560185  8.093896484375 5.85487919560185  L 9.3956298828125 5.85487919560185  C 10.2637451171875 5.85487919560185  10.697802734375 6.30502146026235  10.697802734375 7.20530598958333  L 10.697802734375 12.6064814814815  C 10.697802734375 13.5067660108025  10.2637451171875 13.956908275463  9.3956298828125 13.956908275463  L 8.093896484375 13.956908275463  C 7.22578125 13.956908275463  6.7917236328125 13.5067660108025  6.7917236328125 12.6064814814815  L 6.7917236328125 7.20530598958333  Z M 13.302197265625 4.50495876736111  C 13.302197265625 3.60467423804013  13.7362548828125 3.15453197337963  14.6043701171875 3.15453197337963  L 15.906103515625 3.15453197337963  C 16.77421875 3.15453197337963  17.2082763671875 3.60467423804013  17.2082763671875 4.50495876736111  L 17.2082763671875 12.6064814814815  C 17.2082763671875 13.5067660108025  16.77421875 13.956908275463  15.906103515625 13.956908275463  L 14.6043701171875 13.956908275463  C 13.7362548828125 13.956908275463  13.302197265625 13.5067660108025  13.302197265625 12.6064814814815  L 13.302197265625 4.50495876736111  Z M 19.812646484375 1.80413049768519  C 19.812646484375 0.903845968364198  20.2467122395833 0.453703703703704  21.11484375 0.453703703703704  L 22.416552734375 0.453703703703704  C 23.2846842447917 0.453703703703704  23.71875 0.903845968364198  23.71875 1.80413049768519  L 23.71875 12.6064814814815  C 23.71875 13.5067660108025  23.2846842447917 13.956908275463  22.416552734375 13.956908275463  L 21.11484375 13.956908275463  C 20.2467122395833 13.956908275463  19.812646484375 13.5067660108025  19.812646484375 12.6064814814815  L 19.812646484375 1.80413049768519  Z " fill-rule="nonzero" fill="#2c2c2c" stroke="none" transform="matrix(1 0 0 1 273 18 )" />
  </g>
</svg>