<?xml version="1.0" encoding="utf-8"?>
<svg version="1.1" xmlns:xlink="http://www.w3.org/1999/xlink" width="30px" height="19px" xmlns="http://www.w3.org/2000/svg">
  <g transform="matrix(1 0 0 1 -35 -284 )">
    <path d="M 5.84107142857143 3.36317757009346  L 22.725 0.252149532710279  C 23.0779959486596 0.187148127126432  23.4362384155277 0.154442393260523  23.7952357822215 0.154442393260523  C 26.7799154105003 0.154442393260523  29.2907330756023 2.37884562923985  29.6339285714286 5.32710280373832  L 29.7964285714286 6.71836448598131  C 30.13691631789 9.64506386588311  28.6250695617674 12.4769506518259  25.9964285714286 13.836261682243  C 20.5 16.6773831775701  16.9758928571429 18.2808411214953  15.4196428571429 18.6448598130841  C 14.0964285714286 18.9547196261682  11.2741071428571 19.0523831775701  6.95357142857143 18.9378504672897  C 3.08418059188334 18.8358508160803  0.000576020377103248 15.6876431383681  0 11.8385981308411  L 0 10.3470093457944  C 0.000437975067539842 6.92382359158877  2.45623600202883 3.98794100160917  5.84107142857143 3.36406542056074  Z " fill-rule="nonzero" fill="#ffe7b2" stroke="none" transform="matrix(1 0 0 1 35 284 )" />
  </g>
</svg>