<?xml version="1.0" encoding="utf-8"?>
<svg version="1.1" xmlns:xlink="http://www.w3.org/1999/xlink" width="26px" height="23px" xmlns="http://www.w3.org/2000/svg">
  <g transform="matrix(1 0 0 1 -313 -280 )">
    <path d="M 7.65371336416748 21.1308754625122  L 11.8969638023369 21.1308754625122  L 11.8969638023369 17.1652208617332  C 8.11832441937837 17.1651579386217  4.79324262463142 14.6710003725543  3.73564664070107 11.0433832035054  C 1.59553293355687 10.7490862420166  0.000800072477385971 8.92073010177795  0 6.76047624148004  L 0 3.56869079844206  C 0 2.94292778529914  0.507281168940819 2.43564664070107  1.13304418208374 2.43564664070107  L 3.39913252190847 2.43564664070107  L 3.39913252190847 1.30260245861733  C 3.3991325353526 0.676839454980845  3.90641367601298 0.169558314320465  4.53217667964946 0.169558300876338  L 20.3947950827653 0.169558300876338  C 21.0205580864018 0.169558314320465  21.5278392270622 0.676839454980845  21.5278392405063 1.30260245861733  L 21.5278392405063 2.43564664070107  L 23.8823050389484 2.43564664070107  C 24.5080680425849 2.4356466541452  25.0153491832453 2.94292779480558  25.0153491966894 3.56869079844206  L 25.0153491966894 6.75934318403116  C 25.0155385762235 8.95558656176464  23.3695953915038 10.8032528102429  21.1879259980526 11.0558466893866  C 20.1845498102495 14.4768740899052  17.1536929613714 16.9087974334693  13.5965300632911 17.1470921372931  L 13.5965300632911 21.1308754625122  L 17.8397804771178 21.1308754625122  C 18.3092465672156 21.1308754503408  18.6897074340667 21.5113363171919  18.6897074340667 21.9806585808179  C 18.6897074340667 22.4499808444439  18.3092465672156 22.830441711295  17.8399243035896 22.830441711295  L 7.65371336416748 22.8304416991237  C 7.18424727406972 22.830441711295  6.80378640721859 22.4499808444439  6.80378640721859 21.9806585808179  C 6.80378640721859 21.5113363171919  7.18424727406972 21.1308754503408  7.6535695376957 21.1308754503408  Z M 3.39913252190847 8.66738958130477  L 3.39913252190847 4.13521287731256  L 1.69956626095424 4.13521287731256  L 1.69956626095424 6.75934318403116  C 1.69956626095424 7.89012127555988  2.41451713729309 8.85434184518014  3.41726122200584 9.22258120740019  C 3.40525948218424 9.0377599496468  3.39921344797187 8.85260008998952  3.39913252190847 8.66738958130477  Z M 23.3157829600779 4.13521287731256  L 21.5278392405063 4.13521287731256  L 21.5278392405063 8.66738958130477  C 21.5278392405063 8.86453926484907  21.5210409688413 9.06055591528724  21.5074444498539 9.25430645082765  C 22.5862349355397 8.90107282907112  23.3158003148169 7.89449203032588  23.3157829600779 6.75934318403116  L 23.3157829600779 4.13521287731256  Z M 10.5939629990263 12.4188988315482  L 12.5461981012658 11.6586261927946  C 12.6787911420428 11.6068075071509  12.8260331520176 11.6068075071509  12.9586261927945 11.6586261927945  L 14.9097282375852 12.4177657740993  C 14.975380164381 12.4433902368053  15.0452369254286 12.4565399944394  15.1157123720818 12.4565399944394  C 15.4285938766844 12.4565399944394  15.6822344509523 12.2028994201715  15.6822344509523 11.8900179155689  C 15.6822344509523 11.8793528899632  15.6819332903156 11.8686899908364  15.6813313291139 11.8580419668939  L 15.5612286514119 9.76644242940604  C 15.5531086438869 9.6248514648481  15.5983913165766 9.48536466143362  15.688129600779 9.37554218597858  L 17.0149243184031 7.75415596397274  C 17.0976293318562 7.65297259966313  17.1428096586359 7.52630768656121  17.1428096586359 7.39562412805715  C 17.1428096586359 7.1382197572911  16.9692776847563 6.9131688935364  16.7203328383642 6.84772064264849  L 14.6944498539435 6.31518987341772  C 14.5570959077273 6.27932135421494  14.4382138197875 6.19319249529427  14.3613348588121 6.07385146056475  L 13.2282907010711 4.31083473709835  C 13.1239353923826 4.14927804420963  12.944741540178 4.0516998206984  12.7524121470302 4.0516998206984  C 12.5600827538823 4.0516998206984  12.3808889016778 4.14927804420963  12.2765335929893 4.31083473709835  L 11.1434894109056 6.07385146056475  C 11.0666104557992 6.19319249039006  10.9477283773537 6.27932134872618  10.8103744401168 6.31518987341772  L 8.7844914556962 6.8477206426485  C 8.53554660930411 6.9131688935364  8.36201463542449 7.1382197572911  8.36201463542449 7.39562412805715  C 8.36201463542449 7.52630768656121  8.40719496220419 7.65297259966313  8.48989997565725 7.75415596397274  L 9.81556166017527 9.37554218597858  C 9.90570642668093 9.48519970915598  9.95139892744807 9.62470337316501  9.94359564264849 9.76644242940604  L 9.82349296494645 11.8580419668939  C 9.82286403833724 11.8689252393966  9.82254937849874 11.8798243980104  9.82254937849874 11.8907258276895  C 9.82254937849874 12.2036073322921  10.0761899527666 12.45724790656  10.3890714573692 12.45724790656  C 10.4591527230849 12.45724790656  10.5286256820747 12.4442448138308  10.5939629990263 12.4188988315482  Z " fill-rule="nonzero" fill="#ff4029" stroke="none" transform="matrix(1 0 0 1 313 280 )" />
  </g>
</svg>