<?xml version="1.0" encoding="utf-8"?>
<svg version="1.1" xmlns:xlink="http://www.w3.org/1999/xlink" width="7px" height="7px" xmlns="http://www.w3.org/2000/svg">
  <g transform="matrix(1 0 0 1 -52 -385 )">
    <path d="M 3.5391987578125 2.72373584375  C 3.740265390625 2.93760246874999  3.7125320546875 3.3088023828125  3.4826654453125 3.5296023359375  C 3.37504305410429 3.62514219993964  3.23563139506648 3.67706495893093  3.0917322109375 3.675202296875  C 2.93599890625 3.675202296875  2.7930656171875 3.618135640625  2.6991989453125 3.517868984375  C 2.4527990078125 3.25493571875  2.377599015625 2.7141358203125  2.5626656640625 2.536535890625  C 2.61866565625 2.4826692265625  2.732265625 2.4501359140625  2.866665578125 2.450135890625  C 3.122665515625 2.450135890625  3.390932125 2.5584025390625  3.5391987578125 2.72373584375  Z M 3.090132203125 5.4666685625  C 3.69370077691503 5.46618039274857  4.27455563477809 5.23646916908677  4.7151985 4.824002046875  C 5.657064953125 3.9205355703125  5.72159828125 2.436802578125  4.8634651328125 1.5216027734375  C 4.390398578125 0.994136234375  3.625598734375 0.666669640625001  2.866665578125 0.666669640625001  C 2.26186571875 0.666669640625001  1.7119991640625 0.8746696015625  1.3183992578125 1.25280284375  C 0.327999484375001 2.2032026328125  0.560532765625002 3.8501356015625  1.38826590625 4.733868734375  C 1.83015217870646 5.20216439921997  2.44573249209336 5.46730776637716  3.089598859375 5.4666685625  Z " fill-rule="nonzero" fill="#33334b" stroke="none" transform="matrix(1 0 0 1 52 385 )" />
  </g>
</svg>