<?xml version="1.0" encoding="utf-8"?>
<svg version="1.1" xmlns:xlink="http://www.w3.org/1999/xlink" width="25px" height="23px" xmlns="http://www.w3.org/2000/svg">
  <g transform="matrix(1 0 0 1 -38 -377 )">
    <path d="M 11.1066668671875 14.788268265625  C 11.0096002265625 14.2117350625  11.026666875 13.662935171875  11.10293353125 13.065068640625  C 11.180800171875 12.7429353671875  11.2586668359375 12.57386875  11.30720015625 12.491735453125  C 11.475200109375 12.5760021015625  11.7904000546875 12.84106871875  12.2506666171875 13.28586859375  C 12.4495998984375 13.477868546875  12.6373331953125 13.6592018359375  12.83573315625 13.8170684921875  C 12.914133140625 13.877335140625  12.9914664609375 13.9290684765625  13.0682664375 13.974935125  C 12.876266484375 13.96106846875  12.6917331796875 13.95146846875  12.519466546875 13.9514684453125  C 12.3693500571379 13.9503154653178  12.2193250455733 13.959224317947  12.0703999921875 13.9781351171875  C 11.6502856210526 14.0197386018746  11.2893512085725 14.2942550018653  11.1370668515625 14.6880016328125  C 11.1248001796875 14.7210682890625  11.1157335234375 14.7546682890625  11.1066668671875 14.788268265625  Z M 5.7082680703125 12.0277355546875  C 5.7082680703125 11.1072024296875  5.092268203125 10.688002515625  4.52000165625 10.688002515625  C 4.2288017109375 10.688002515625  3.8634684609375 10.7669358203125  3.3056019375 11.1786690625  C 4.2016017421875 10.093869296875  5.7744013828125 8.7264029453125  8.0042675625 8.7264029453125  L 8.1050675390625 8.7269362890625  C 9.5648005546875 8.8672029296875  10.754666953125 9.53760278125  11.78186671875 10.8122691484375  C 11.6039728896876 10.7504773653678  11.4171171875242 10.7184037733812  11.228800171875 10.7173358359375  C 10.6154669765625 10.7173358359375  9.8037338203125 11.062402421875  9.4224005625 12.704535390625  L 9.4069338984375 12.7893353828125  C 9.211200609375 14.2746683828125  9.306667265625 15.609068078125  10.2496003828125 17.4192010234375  C 9.7216005 16.896534484375  8.923734 16.2848012734375  8.08426753125 16.2848012734375  C 7.41493434375 16.2848012734375  6.6368011875 16.7125345234375  6.4629345703125 17.91360090625  L 6.4613345625 17.9221342421875  L 6.4565345625 17.9813342265625  L 6.4517345625 18.010667546875  C 6.0426679921875 16.7754678203125  5.61653475 14.7920016015625  5.7082680703125 12.0277355546875  Z M 6.852801140625 3.8005373828125  L 6.8522678203125 3.8000040390625  C 6.91253446875 3.06773753125  7.475734359375 2.5157376484375  8.162667515625 2.515737671875  L 8.1642675234375 2.2506710546875  L 8.1642675234375 2.515737671875  C 8.58377397802103 2.51924368969719  8.97802511000358 2.71676311208998  9.2320006171875 3.0506708828125  C 9.430400578125 3.3109375  9.510933890625 3.6245374140625  9.4592005546875 3.934404015625  C 9.353067234375 4.5717372109375  9.0773339765625 5.33173703125  8.3658674765625 5.33173703125  C 8.30446136779894 5.33144927651404  8.24315263390936 5.32681547909082  8.182400859375 5.317870375  C 7.4816010234375 5.2176037421875  6.7738678359375 4.61067053125  6.852801140625 3.8005373828125  Z M 18.756265171875 16.6021345234375  C 18.6549318515625 17.2970676953125  18.8095984921875 17.88533425  19.0058651015625 18.632534078125  L 19.0106651015625 18.651200734375  C 18.7205113889239 18.4659412431766  18.3957034154542 18.3416432193419  18.05599865625 18.285867484375  L 17.99466534375 18.2778674921875  C 17.9180349579665 18.2714221258071  17.8411663428126 18.2682192661907  17.764265390625 18.2682674921875  C 17.0911988671875 18.2682674921875  16.537599 18.5392007734375  16.1711990625 19.0325339921875  L 16.1583990703125 18.9546673515625  C 16.08106575 18.5040007890625  16.0805324296875 18.142400875  16.079465765625 17.8224009296875  C 16.0778657578125 17.2368010703125  16.0757324296875 16.5082678984375  15.3802659140625 15.984001328125  C 15.3233912814938 15.9420744651143  15.2636942563683 15.9041178490688  15.201599296875 15.870401359375  C 15.9636954999584 15.8852353955819  16.7258987286813 15.8469202955063  17.4826654453125 15.7557347265625  C 18.1493319609375 15.6704014140625  18.7679985 15.5141347890625  19.3237316953125 15.3333348203125  C 19.0298651015625 15.7253347421875  18.81439846875 16.189334640625  18.756265171875 16.6021345234375  Z M 22.947197578125 13.0293353359375  C 22.7371712654551 12.6803585282583  22.3592998478129 12.4673249062366  21.95199778125 12.4682687734375  C 21.7994644921875 12.4682687734375  21.650131171875 12.49760209375  21.5189312109375 12.5509354375  C 21.2463979453125 12.6469354140625  20.9333313515625 12.7898687265625  20.602131421875 12.9402686875  C 19.7541316171875 13.3253352578125  18.5935985390625 13.853335140625  17.275198828125 14.0229351015625  C 16.6943275101026 14.0925271147381  16.1098244541336 14.1274334527005  15.5247992109375 14.1274684140625  C 15.0981326484375 14.1274684140625  14.71413271875 14.109335078125  14.3589328125 14.0842684140625  C 14.489066109375 14.013868421875  14.60533275 13.9157351171875  14.698666078125 13.7936018125  C 14.9130660234375 13.5152018828125  14.9866660078125 13.1536019453125  14.90026603125 12.8016020546875  L 14.897599359375 12.790402046875  L 14.854932703125 12.66453540625  L 14.849599359375 12.6496020859375  C 14.801599359375 12.5285354453125  14.7295993828125 12.3456021484375  14.61973275 12.1424021875  C 13.2005330625 9.230936171875  11.356800140625 7.573869859375  8.99413399218749 7.0976033125  C 10.1589337265625 6.8309367109375  10.981333546875 5.8069369375  11.2416001640625 4.2410706015625  C 11.3790095492739 3.42245311708267  11.1689125156555 2.58361122302586  10.66186696875 1.926404453125  C 10.0664624021911 1.14264234434573  9.13999890276827 0.680889311669348  8.1557341875 0.6773380703125  C 6.5242678828125 0.6773380703125  5.1904015078125 1.949871109375  5.0528015390625 3.6320040859375  C 4.90506825 5.1317370859375  5.9141346796875 6.5424034375  7.3744010390625 7.0090700078125  C 3.044802 7.3770699296875  0.964802460937499 11.535469  0.871469132812499 11.727468953125  C 0.0341359921874986 13.578135203125  0.240002601562499 14.2720017109375  0.467735906249999 14.6330683046875  C 0.665069203124999 14.94773490625  0.988269117187499 15.12800153125  1.352002359375 15.12800153125  C 1.769068921875 15.12800153125  2.1626688515625 14.8986682421875  2.5210687734375 14.44906834375  C 3.1808019609375 13.644801859375  3.65600184375 13.1589352890625  3.979735125 12.8672020234375  C 3.996268453125 15.661868078125  4.561068328125 19.152000625  6.1258679765625 21.166933515625  C 6.35027746394 21.4440869548857  6.68765403412974 21.6053302278694  7.0442677734375 21.60586675  C 7.3925343515625 21.60586675  7.7226676171875 21.454400125  7.9509342421875 21.190933515625  C 8.1696008671875 20.9360002421875  8.2709341640625 20.6000003125  8.2282675078125 20.2730670390625  C 8.1765341953125 19.8224004765625  8.1498675234375 19.149333953125  8.1493341796875 18.272000828125  C 8.1568008515625 18.2256008359375  8.162667515625 18.17920084375  8.1664008515625 18.1333341953125  C 8.1717341953125 18.1002675390625  8.177067515625 18.0736008671875  8.182400859375 18.0522675390625  C 8.3408008125 18.105600859375  8.651734078125 18.2709341640625  9.06720065625 18.684800734375  C 9.2581339453125 18.8757340234375  9.4341339140625 19.054400640625  9.600533859375 19.2224006171875  C 10.564266984375 20.198400390625  11.147200171875 20.7882669296875  12.0202666640625 21.1973335  C 12.1621332890625 21.27360015625  12.5183998828125 21.4405334453125  12.9237331171875 21.44053346875  C 12.9621331171875 21.44053346875  12.9999997734375 21.4389334609375  13.04373309375 21.435200125  C 13.454399671875 21.4010668046875  13.7903996015625 21.152533515625  13.943466234375 20.772800265625  C 14.1087995390625 20.3621336875  14.0277328828125 19.858667125  13.74666628125 19.526933875  C 12.55093321875 18.0138675390625  11.84320003125 16.907201125  11.4533334609375 15.967468  C 12.1199999765625 16.643201171875  13.1002664296875 16.9658677890625  13.82719959375 17.204267734375  C 13.9679995546875 17.2501343828125  14.2447995 17.3408010390625  14.3461328203125 17.385067703125  C 14.361066140625 17.479467671875  14.362132828125 17.7274676171875  14.3621328046875 17.82773425  C 14.36319946875 18.1968008359375  14.3642661328125 18.6565340546875  14.4645327890625 19.24266728125  C 14.63839940625 20.345600359375  14.902932703125 20.9925335546875  15.37866590625 21.4768001171875  C 15.6266658515625 21.72906671875  15.943999125 21.867733375  16.2730657265625 21.8677333515625  C 16.5791989921875 21.8677333515625  16.862398921875 21.7493333828125  17.0703988828125 21.5349334375  C 17.2773321796875 21.32160015625  17.39146546875 21.0336002265625  17.390932125 20.7296002890625  C 17.4069321328125 20.0133337890625  17.6133320859375 20.0133337890625  17.763732046875 20.013333765625  C 17.780265375 20.013333765625  17.796798703125 20.013333765625  17.81333203125 20.0144004296875  C 18.22666528125 20.1002670859375  18.394665234375 20.393067015625  18.6741318515625 21.0330668828125  L 18.732265171875 21.16426684375  C 18.9210651328125 21.54826675  19.296531703125 21.7872000390625  19.71199828125 21.7872000390625  C 20.1738648515625 21.7872000390625  20.5861314140625 21.49706678125  20.7642647109375 21.044266890625  C 21.0970646484375 20.16426709375  20.8517313515625 18.9269340390625  20.7295980703125 18.433067453125  L 20.663998078125 18.181334171875  C 20.507731453125 17.588267640625  20.404798125 17.1957343984375  20.454931453125 16.852801140625  C 20.4794647734375 16.676801171875  20.7290647265625 16.2821346015625  20.93173134375 16.1445346328125  C 22.15146440625 15.296534828125  22.6799976328125 14.8112016015625  22.951464234375 14.292268375  C 23.169597515625 13.874135125  23.1674641875 13.4016019140625  22.947197578125 13.0288019921875  Z " fill-rule="nonzero" fill="#33334b" stroke="none" transform="matrix(1 0 0 1 38 377 )" />
  </g>
</svg>