<?xml version="1.0" encoding="utf-8"?>
<svg version="1.1" xmlns:xlink="http://www.w3.org/1999/xlink" width="26px" height="25px" xmlns="http://www.w3.org/2000/svg">
  <g transform="matrix(1 0 0 1 -107 -375 )">
    <path d="M 1.83529411914063 24.6949891022859  C 1.682352953125 24.8474945384838  1.682352953125 24.8474945384838  1.52941176171875 24.8474945638021  C 1.22352940429688 24.8474945638021  0.917647046875 24.6949891276042  0.764705880859375 24.3899782045718  C 0.61176471484375 23.9324618706597  0.764705880859375 23.6274509729456  1.22352940429688 23.3224400752315  L 7.49411764257813 20.577342046441  C 8.10588235742187 20.2723311487268  8.717647046875 20.2723311487268  9.32941176171875 20.577342046441  L 15.7529411660156 23.1699346390336  L 16.3647058808594 23.1699346390336  L 22.6352941191406 20.424836610243  C 23.0941176425781 20.2723311740451  23.4 20.424836610243  23.7058823574219 20.8823529441551  C 23.8588235234375 21.3398692780671  23.7058823574219 21.6448801757812  23.2470588339844 21.9498910734954  L 16.9764705957031 24.6949891022859  C 16.3647058808594 25  15.7529411914063 25  15.1411764765625 24.6949891022859  L 8.717647046875 21.9498910734954  L 8.10588235742187 21.9498910734954  L 1.83529411914063 24.6949891022859  Z M 12.2352941191406 12.9520697048611  C 12.082352953125 13.2570806025752  11.7764705957031 13.4095860387731  11.4705882382813 13.4095860640914  C 11.3176470722656 13.4095860640914  11.1647058808594 13.4095860640914  11.1647058808594 13.2570806025752  L 8.717647046875 12.189542473235  C 8.56470588085937 12.037037037037  8.2588235234375 12.037037037037  8.10588235742187 12.189542473235  L 5.6588235234375 13.2570806025752  C 5.35294116601563 13.5620915002894  4.89411764257813 13.4095860387731  4.7411764765625 12.9520697048611  C 4.58823531054688 12.647058807147  4.7411764765625 12.189542473235  5.04705883398438 11.8845316008391  L 7.49411764257813 10.6644880099826  C 8.10588235742187 10.3594771122685  8.87058823828125 10.3594771122685  9.482352953125 10.6644880099826  L 11.9294117617188 11.8845316008391  C 12.2352941191406 12.037037037037  12.3882352851563 12.4945533962674  12.2352941191406 12.9520697048611  Z M 13.3058823574219 13.4095860640914  L 13.1529411660156 13.4095860640914  C 13 13.4095860640914  12.6941176425781 13.2570806278935  12.5411764765625 13.2570806025752  C 12.3882353105469 12.9520697048611  12.2352941191406 12.647058807147  12.3882352851563 12.4945533709491  L 14.0705882382812 7.61437908347801  L 14.8352941191406 7.91938998119213  L 14.2235294042969 7.30936818576389  L 20.6470588339844 0.751633998842593  C 20.9529411914062 0.446623101128472  21.4117647148438 0.446623101128472  21.717647046875 0.751633998842593  L 24.9294117617187 3.95424836154514  C 25.0823529277344 4.25925925925926  25.2352941191406 4.41176469545718  25.2352941191406 4.56427015697338  C 25.2352941191406 4.71677561848959  25.082352953125 5.02178649088542  24.9294117617187 5.17429192708333  L 18.5058823574219 11.579520703125  L 17.8941176425781 10.9694989076968  L 18.2 11.7320261393229  L 13.3058823574219 13.4095860640914  Z M 16.517647046875 10.6644880099826  L 14.9882352851563 9.29193900824653  L 14.2235294042969 11.4270152416088  L 16.517647046875 10.6644880099826  Z M 21.1058823574219 2.42919389829282  L 15.7529411660156 7.76688451967593  L 17.8941176425781 9.90196077835648  L 23.2470588339844 4.56427015697338  L 21.1058823574219 2.42919389829282  Z " fill-rule="nonzero" fill="#000000" stroke="none" transform="matrix(1 0 0 1 107 375 )" />
  </g>
</svg>