<?xml version="1.0" encoding="utf-8"?>
<svg version="1.1" xmlns:xlink="http://www.w3.org/1999/xlink" width="13px" height="11px" xmlns="http://www.w3.org/2000/svg">
  <g transform="matrix(1 0 0 1 -185 -373 )">
    <path d="M 11.7147727353516 4.87700000820313  L 11.6871969804687 4.87700000820313  L 6.34439393131511 0.852000002734375  C 6.10655756758549 0.682276520119123  5.78942727551347 0.682276520119122  5.55159091178385 0.852000002734375  L 0.360454558919266 4.87700000820313  C 0.175018426323759 5.00782945389017  0.0644365080977947 5.22257475527486  0.0644365080977947 5.45185425706025  C 0.0644365080977947 5.83845357741134  0.373088684521671 6.15185424885712  0.7538304394129 6.15185424885712  C 0.765185081006475 6.15185424885712  0.776537989697499 6.15156940868957  0.787878774414058 6.1509999890625  L 1.84265150976562 6.1509999890625  L 1.84265150976562 9.65100000820313  C 1.84265150976562 10.0375993285542  2.1513036861895 10.351  2.53204544108072 10.351  L 9.42598484309895 10.351  C 9.80672659799018 10.351  10.1153787744141 10.0375993285542  10.1153787744141 9.65100000820312  L 10.1153787744141 6.1509999890625  L 11.3218181764323 6.1509999890625  C 11.7019237870836 6.15008932363513  12.0095854722807 5.8369564094702  12.0095854722807 5.45100194582752  C 12.0095854722807 5.22224950759621  11.8995082847192 5.00792864884815  11.7147727353516 4.87700000820313  Z M 9.44666666666667 4.75100000546875  L 9.39840908821615 4.75100000546875  C 9.01766733332492 4.75100000546875  8.70901515690104 5.06440067691453  8.70901515690104 5.45099999726563  L 8.70901515690104 8.95099998632812  L 6.59946968619791 8.95099998632812  L 6.59946968619791 6.78100000273438  L 5.22068182356771 6.78100000273438  L 5.22068182356771 8.94399999453125  L 3.19386364713541 8.94399999453125  L 3.19386364713541 5.44400000546875  C 3.19501800736681 5.07825441199112  2.9186727086386 4.77325793072412  2.55962122558594 4.74400001367188  L 5.95833333333333 2.28000001367187  L 9.44666666666667 4.75100000546875  Z " fill-rule="nonzero" fill="#2394fb" stroke="none" transform="matrix(1 0 0 1 185 373 )" />
  </g>
</svg>