<?xml version="1.0" encoding="utf-8"?>
<svg version="1.1" xmlns:xlink="http://www.w3.org/1999/xlink" width="20px" height="14px" xmlns="http://www.w3.org/2000/svg">
  <g transform="matrix(1 0 0 1 -303 -18 )">
    <path d="M 9.89358974358974 13.956884057971  L 6.72051282051282 10.8170289855072  C 7.56203536919086 9.98456848043796  8.70343641854896 9.51688989729071  9.89358974358974 9.51688989729071  C 11.0837430686305 9.51688989729071  12.2251441179886 9.98456848043796  13.0666666666667 10.8170289855072  L 9.89358974358974 13.956884057971  Z M 16.4474358974359 7.37916666666667  L 16.4474358974359 7.38043478260869  L 16.5576923076923 7.4856884057971  L 14.7435897435897 9.28007246376812  C 12.1462481872375 6.71066891832422  7.94585093483473 6.67567925150097  5.3051282051282 9.20144927536232  L 5.22564102564102 9.28007246376812  L 3.41282051282051 7.4856884057971  C 7.00025935612618 3.93768510607541  12.8012191958857 3.89027838846054  16.4474358974359 7.37916666666667  Z M 0.0128205128205128 4.12391304347826  C 5.46538461538462 -1.26938405797101  14.2717948717949 -1.32391304347826  19.7910256410256 3.96159420289855  L 19.9576923076923 4.12391304347826  L 18.1435897435897 5.91702898550724  C 13.6899852013148 1.51196527215362  6.48792282229068 1.4532683124326  1.96153846153846 5.78514492753623  L 1.82564102564103 5.91702898550725  L 0.0128205128205128 4.12391304347826  Z " fill-rule="nonzero" fill="#000000" stroke="none" transform="matrix(1 0 0 1 303 18 )" />
  </g>
</svg>