<?xml version="1.0" encoding="utf-8"?>
<svg version="1.1" xmlns:xlink="http://www.w3.org/1999/xlink" width="15px" height="15px" xmlns="http://www.w3.org/2000/svg">
  <g transform="matrix(1 0 0 1 -340 -48 )">
    <path d="M 15 7.5  C 15 3.3579375  11.6424375 0  7.4998125 0  C 3.3579375 0  0 3.3579375  0 7.5  C 0 11.64225  3.3579375 15  7.4998125 15  C 11.6424375 15  15 11.64225  15 7.5  Z M 9.1040625 4.44  L 9.1040625 10.616625  C 9.075375 11.124375  8.8051875 11.3780625  8.2929375 11.3780625  C 7.7510625 11.3780625  7.480875 11.124375  7.480875 10.616625  L 7.48125 5.15925  L 6.84 5.15925  C 6.3556875 5.15925  6.0995625 4.905375  6.07125 4.397625  C 6.099375 3.974625  6.3556875 3.7351875  6.8405625 3.678375  L 8.377875 3.678375  C 8.8335 3.706875  9.075375 3.9605625  9.1040625 4.44  Z " fill-rule="nonzero" fill="#dd0e27" stroke="none" transform="matrix(1 0 0 1 340 48 )" />
  </g>
</svg>