<?xml version="1.0" encoding="utf-8"?>
<svg version="1.1" xmlns:xlink="http://www.w3.org/1999/xlink" width="18px" height="7px" xmlns="http://www.w3.org/2000/svg">
  <g transform="matrix(1 0 0 1 -331 -22 )">
    <path d="M 2.6437500065918 1.75000000683594  C 2.6437500065918 1.22500000683594  2.30625 0.875000000000001  1.8 0.875  C 1.29375 0.875  0.956249993408203 1.22500000683594  0.956249993408203 1.75000000683594  L 0.956249993408203 5.24999999316406  C 0.956249993408203 5.77499999316406  1.29375 6.125  1.8 6.125  C 2.30625 6.125  2.6437500065918 5.77499999316406  2.6437500065918 5.24999999316406  L 2.6437500065918 1.75000000683594  Z M 5.85 1.75000000683594  C 5.85 1.22500000683594  5.5124999934082 0.875000000000001  5.0062499934082 0.875  C 4.4999999934082 0.875  4.16249998681641 1.22500000683594  4.1625000065918 1.75000000683594  L 4.1625000065918 5.24999999316406  C 4.1625000065918 5.77499999316406  4.50000001318359 6.125  5.0062499934082 6.125  C 5.51249997363281 6.125  5.85 5.77499999316406  5.85 5.24999999316406  L 5.85 1.75000000683594  Z M 9.0562499934082 1.75000000683594  C 9.0562499934082 1.22500000683594  8.71874998681641 0.875000000000001  8.2125000065918 0.875  C 7.7062500065918 0.875  7.36875 1.22500000683594  7.36875 1.75000000683594  L 7.36875 5.24999999316406  C 7.36875 5.77499999316406  7.7062500065918 6.125  8.2125000065918 6.125  C 8.7187500065918 6.125  9.0562500131836 5.77499999316406  9.0562499934082 5.24999999316406  L 9.0562499934082 1.75000000683594  Z M 18 1.75000000683594  C 18 1.22500000683594  17.6624999934082 0.875000000000001  17.1562499934082 0.875  L 16.3125000065918 0.875  L 16.3125000065918 6.125  L 17.1562499934082 6.125  C 17.6624999934082 6.125  18 5.77499999316406  18 5.24999999316406  L 18 1.75000000683594  Z " fill-rule="nonzero" fill="#000000" stroke="none" transform="matrix(1 0 0 1 331 22 )" />
  </g>
</svg>