<?xml version="1.0" encoding="utf-8"?>
<svg version="1.1" xmlns:xlink="http://www.w3.org/1999/xlink" width="20px" height="23px" xmlns="http://www.w3.org/2000/svg">
  <g transform="matrix(1 0 0 1 -36 -54 )">
    <path d="M 19.8076923076923 10.4581479166667  C 19.8076923076923 13.4715632029297  17.6698878290264 16.670703463737  13.4800961538462 20.1109604166667  C 13.3331710623601 20.2331034030353  13.1479079422631 20.3000020892855  12.9565813875516 20.3000020892855  C 12.5051948131707 20.3000020892855  12.1392736952439 19.9353007084185  12.1392736952439 19.4854187559522  C 12.1392736952439 19.2404450722197  12.2498916622058 19.0084789293439  12.4404807692308 18.8537867970703  C 16.2908173076923 15.6923888804036  18.1730769230769 12.875559713737  18.1730769230769 10.4581479166667  C 18.1730769230769 5.93395208333333  14.512900632512 2.26805554707031  10 2.26805554707031  C 5.48709936748798 2.26805554707031  1.82692307692308 5.93395208333333  1.82692307692308 10.4581479166667  C 1.82692307692308 13.3914625  4.59596153846154 16.8996013804036  10.2342948632812 20.8820992970703  C 10.4504779755836 21.0348377782574  10.5789481336154 21.2825553566886  10.5789481336154 21.5466635416667  C 10.5789481336154 21.9965575245341  10.2130172305043 22.3612686579682  9.76161858548678 22.3612686579682  C 9.59226854653768 22.3612686579682  9.4271000217238 22.3088394784101  9.28894230769231 22.211227786263  C 3.25775640174279 17.951228463737  0.192307692307692 14.0672951304036  0.192307692307692 10.4581479166667  C 0.192307692307692 5.03600971373698  4.58233975210337 0.638888880403646  10 0.638888880403646  C 15.4176602478966 0.638888880403646  19.8076923076923 5.03600971373698  19.8076923076923 10.4581479166667  Z M 13.8141025555889 10.4138888804036  C 13.8141025555889 12.5133416412109  12.1064743419471 14.2152777608073  10 14.215277786263  C 7.89352563251202 14.215277786263  6.18589744441106 12.5133416666667  6.18589744441106 10.4138888804036  C 6.18589744441106 8.31443609414062  7.89352565805288 6.6125  10 6.6125  C 12.1064743419471 6.6125  13.8141025555889 8.31443611959635  13.8141025555889 10.4138888804036  Z M 10 12.5861111195963  C 11.2036975340335 12.5861111195963  12.179487183744 11.6135741020515  12.179487183744 10.4138888931315  C 12.179487183744 9.21420368421149  11.2036975340335 8.24166666666666  10 8.24166666666666  C 8.79630246596653 8.24166666666666  7.82051281625601 9.21420368421148  7.82051281625601 10.4138888931315  C 7.82051281625601 11.6135741020515  8.79630246596653 12.5861111195963  10 12.5861111195963  Z " fill-rule="nonzero" fill="#000000" stroke="none" transform="matrix(1 0 0 1 36 54 )" />
  </g>
</svg>