<?xml version="1.0" encoding="utf-8"?>
<svg version="1.1" xmlns:xlink="http://www.w3.org/1999/xlink" width="27px" height="27px" xmlns="http://www.w3.org/2000/svg">
  <g transform="matrix(1 0 0 1 -322 -52 )">
    <path d="M 22.7345000112305 24.358875  C 22.737375 25.5864999887695  21.736875 26.5869999887695  20.5092500112305 26.5869999887695  L 13.5 26.5869999887695  C 9.90912501123047 26.5869999887695  6.56262501123047 25.161  4.072875 22.5763749887695  C 1.58312498876953 19.9888749887695  0.2865 16.5848749775391  0.424500000000001 12.991125  C 0.68325 6.20037501123047  6.20325 0.680375011230469  12.991125 0.4245  C 16.58775 0.283625011230469  19.9888749887695 1.58312498876953  22.5735 4.072875  C 25.161 6.56262501123047  26.584125 9.912  26.584125 13.5  C 26.584125 17.00175  25.2185000112305 20.2936250112305  22.7345000112305 22.7661249887695  L 22.7345000112305 24.358875  Z M 20.9807499887695 5.728875  C 18.951 3.77675001123047  16.3088749775391 2.71587501123047  13.5028749887695 2.71587501123047  C 13.362 2.71587501123047  13.2211249775391 2.71875  13.077375 2.72450001123047  C 7.48262498876953 2.93725002246094  2.934375 7.48550001123047  2.72162498876953 13.0802499887695  C 2.60949998876953 16.044375  3.676125 18.8503749887695  5.728875 20.9807499887695  C 7.781625 23.1139999775391  10.541625 24.2869999775391  13.5 24.2870000112305  L 20.4373749887695 24.2870000112305  L 20.4373749887695 22.737375  C 20.4373749887695 22.14225  20.676 21.5758749887695  21.10725 21.1446249887695  C 23.1571250112305 19.1033749775391  24.2870000112305 16.389375  24.2870000112305 13.5  C 24.2870000112305 10.541625  23.1140000112305 7.781625  20.9807499887695 5.728875  Z " fill-rule="nonzero" fill="#333c4f" stroke="none" transform="matrix(1 0 0 1 322 52 )" />
  </g>
</svg>