<?xml version="1.0" encoding="utf-8"?>
<svg version="1.1" xmlns:xlink="http://www.w3.org/1999/xlink" width="13px" height="10px" xmlns="http://www.w3.org/2000/svg">
  <g transform="matrix(1 0 0 1 -50 -279 )">
    <path d="M 0.878355263157896 0.345454545454546  C 1.69684210526316 0.115454545454546  2.54611842105263 0  3.40138157894737 0  C 8.37473684210526 0  12.4996710526316 3.86272727272727  12.9957236842105 8.98818181818182  C 13.0444736842105 9.5  12.6442105263158 9.95181818181818  12.0985526315789 9.99727272727273  L 12.00875 10  C 11.5024342105263 10  11.0688157894737 9.63818181818182  11.0243421052632 9.15454545454545  C 10.6275269437959 4.99987798115313  7.3301198313934 1.84295796932804  3.40138157894737 1.85636363636364  C 2.73855263157895 1.85636363636364  2.07914473684211 1.94727272727273  1.44368421052632 2.12454545454545  C 0.920263157894738 2.27181818181818  0.369473684210528 1.99181818181818  0.212105263157894 1.5  C 0.0564473684210523 1.00909090909091  0.35407894736842 0.490909090909091  0.878355263157896 0.345454545454546  Z " fill-rule="nonzero" fill="#f6c661" stroke="none" transform="matrix(1 0 0 1 50 279 )" />
  </g>
</svg>