<?xml version="1.0" encoding="utf-8"?>
<svg version="1.1" xmlns:xlink="http://www.w3.org/1999/xlink" width="26px" height="6px" xmlns="http://www.w3.org/2000/svg">
  <g transform="matrix(1 0 0 1 -37 -297 )">
    <path d="M 0.702702702702703 4.75702702702703  L 25.2972972972973 4.75702702702703  C 25.6610546658329 4.75712994305911  25.9558791625304 5.02935905830486  25.9558791625304 5.36513510657124  C 25.9558791625304 5.66895369605918  25.7129567691147 5.92615511839032  25.3868918918919 5.96756756756756  L 25.2972972972973 6  L 0.702702702702703 6  C 0.338945334167095 5.97314032721118  0.0441208374695902 5.70091121196542  0.0441208374695902 5.36513516369903  C 0.0441208374695902 5.06131657421108  0.287043230885301 4.80411515187993  0.613108108108108 4.7627027027027  L 0.702702702702703 4.75702702702703  Z M 18.5425675675676 0  L 18.5416891891892 0.0267567567567555  C 18.9051055295373 0.027303732131211  19.199398815998 0.299402373341837  19.199398815998 0.634864056512354  C 19.199398815998 0.938684820775004  18.9564730387063 1.19588738333479  18.6304054054054 1.2372972972973  L 18.5416891891892 1.24297297297297  L 7.47939189189189 1.24297297297298  C 7.11597555154379 1.24242599759853  6.82168226508306 0.970327356387908  6.82168226508306 0.634865673217377  C 6.82168226508306 0.331044908954718  7.06460804237479 0.0738423463949233  7.39067567567567 0.0324324324324306  L 7.47939189189189 0  L 18.5425675675676 0  Z " fill-rule="nonzero" fill="#333333" stroke="none" transform="matrix(1 0 0 1 37 297 )" />
  </g>
</svg>