<?xml version="1.0" encoding="utf-8"?>
<svg version="1.1" xmlns:xlink="http://www.w3.org/1999/xlink" width="15px" height="12px" xmlns="http://www.w3.org/2000/svg">
  <g transform="matrix(1 0 0 1 -49 -278 )">
    <path d="M 14.990625 9.82208955223881  C 14.4417613636364 4.21611940298507  9.88806818181818 0  4.41221590909091 0  C 3.47215909090909 0  2.53806818181818 0.125373134328358  1.63806818181818 0.375223880597015  C 0.565909090909092 0.672537313432836  -0.088636363636363 1.7955223880597  0.265909090909091 2.89701492537313  C 0.58721590909091 3.89373134328358  1.60653409090909 4.44179104477612  2.58920454545455 4.23940298507463  L 2.72301136363636 4.20716417910448  C 3.2743694095384 4.05481873913208  3.84211315349727 3.97776627553339  4.41221590909091 3.97791044776119  C 7.7204833758984 3.96535359645477  10.5245426067103 6.53273257745566  10.9653409090909 9.97791044776119  L 10.9909090909091 10.2035820895522  C 11.0897727272727 11.2513432835821  11.9795454545455 12  12.9894886363636 12  L 13.1088068181818 11.9964179104478  C 14.2474431818182 11.9050746268657  15.0988636363636 10.9576119402985  14.990625 9.82208955223881  Z " fill-rule="nonzero" fill="#333333" stroke="none" transform="matrix(1 0 0 1 49 278 )" />
  </g>
</svg>