<?xml version="1.0" encoding="utf-8"?>
<svg version="1.1" xmlns:xlink="http://www.w3.org/1999/xlink" width="8px" height="16px" xmlns="http://www.w3.org/2000/svg">
  <g transform="matrix(1 0 0 1 -54 -375 )">
    <path d="M 4.2810648359375 7.24320291665358  C 3.4810650078125 7.24320291665358  2.1994652890625 5.36907021996236  2.0693319921875 4.00853732521726  C 2.01738033458399 3.48669883289535  2.17252433364212 2.96533844660358  2.5013318984375 2.55680448754481  C 2.86518462003392 2.09889336589058  3.41832994369868 1.83233863505772  4.0031982265625 1.83307139659504  C 5.0042646640625 1.83307139659504  5.8325311484375 2.6021378106008  5.9301311328125 3.62293745427115  C 5.993064453125 4.27840391222925  5.8154645 5.1696035938285  5.46773121875 5.94880335045119  C 5.1274646328125 6.70933642947361  4.6906647265625 7.20426960069446  4.3258648203125 7.24106958876712  C 4.31097951358454 7.24256958444649  4.29602532186275 7.2432816872444  4.2810648359375 7.24320291665358  Z M 6.7962642734375 10.9034683589384  C 6.59359765625 10.5434684695047  6.387197703125 10.2704019141006  6.20426440625 10.0272019725443  C 5.8831978203125 9.60160212169586  5.669864515625 9.3162688723508  5.574931203125 8.68000243568332  C 7.1397308515625 7.67253610302209  7.8613306953125 4.97867034955297  7.7146640703125 3.44427085706151  C 7.5269307734375 1.48053817820154  5.933331125 0  4.0079982265625 0  C 2.88159729462543 -0.00187468380135563  1.8161867067971 0.511479090664859  1.11573218749999 1.39360486760961  C 0.483171584293714 2.17983075221681  0.184765144313431 3.1830738806411  0.284799054687497 4.1872039458644  C 0.373332359374999 5.11360363134022  0.847465601562497 6.31680323117776  1.4927987890625 7.25386957952337  C 2.1754653125 8.24426924221794  2.98613178125 8.85760236894973  3.8154649296875 9.02666899067031  C 3.9914648984375 10.0917352934534  4.4090648046875 10.6485351140066  4.786664703125 11.1498682688868  C 4.948264671875 11.363734869973  5.100264640625 11.5658681208087  5.243197953125 11.8192013815444  C 6.0378644375 13.2282675677377  5.5258645625 14.7536004049929  5.52053121875 14.7669337394395  C 5.3509312578125 15.2394669209776  5.5882645390625 15.7664000808078  6.049064421875 15.9418666861878  C 6.1498643984375 15.980266681894  6.255464375 16  6.3621310390625 16  C 6.73978321645687 15.9966482813757  7.07530022393166 15.7582098175418  7.202664171875 15.4026668558541  C 7.2367974921875 15.3093335616028  8.0255973125 13.0826676230806  6.7962642734375 10.9034683589384  Z " fill-rule="nonzero" fill="#2472f2" stroke="none" transform="matrix(1 0 0 1 54 375 )" />
  </g>
</svg>