<?xml version="1.0" encoding="utf-8"?>
<svg version="1.1" xmlns:xlink="http://www.w3.org/1999/xlink" width="22px" height="21px" xmlns="http://www.w3.org/2000/svg">
  <g transform="matrix(1 0 0 1 -246 -376 )">
    <path d="M 5.51666667578125 1.8870370390625  C 9.64666667578125 -0.534444441406249  15.4955555585937 0.557037039062501  18.5885185195312 4.184074078125  C 20.5044444414062 6.4111111171875  21.6425925976563 9.35629628515625  21.6737037148438 12.2962962851563  C 21.650370390625 13.0507407265625  21.5933333515625 14.0307407265625  21.142222234375 14.6633333242188  C 20.0611111171875 15.6303703632813  18.2696296367187 15.9181481289062  16.9007407539062 16.2629629609375  C 17.42444446875 17.2429629609375  18.254074078125 18.4148148046875  18.2592592460937 19.5503703632812  C 18.2592592460937 19.9003703632812  17.937777765625 20.3125925976562  17.605925921875 19.9496296367188  C 16.7529629609375 19.042222234375  16.434074078125 17.5333333515625  16.0555555585937 16.3744444414063  C 14.5674074023437 16.5870370390625  13.0714814804687 16.6803703632812  11.567777765625 16.72185184375  C 11.63 17.885925921875  11.7648148046875 19.2937036875  11.3266666757812 20.3955555585938  C 11.15814815625 20.7896296367188  10.6448148320312 21.2303703632812  10.4451851953125 20.5744444414063  C 10.2144444414062 19.3429629609375  10.5696296367187 17.9429629609375  10.8185185195312 16.7270370390625  C 9.30444444140625 16.6907407539063  7.8188888828125 16.5766666757813  6.317777765625 16.3744444414063  C 6.1466666484375 17.3985185195313  6.0325925703125 18.6066666757813  5.514074078125 19.5192592460938  C 5.28851851953125 19.879629609375  5.06814815625 20.1337036875  4.60925924609375 20.0092592460938  C 4.3448148046875 18.7985184921875  5.06037036328125 17.359629609375  5.462222234375 16.23185184375  C 4.21 15.8688888828125  2.46777779296875 15.4825925976563  1.60962963671875 14.422222234375  C 0.489629636718748 12.882222234375  0.126666675781248 10.7848148320313  0.468888882812498 8.92851851953125  C 0.964074078124998 5.99370371484375  2.975925921875 3.38037036328125  5.51666667578125 1.8870370390625  Z " fill-rule="nonzero" fill="#ffffff" stroke="none" transform="matrix(1 0 0 1 246 376 )" />
  </g>
</svg>