<?xml version="1.0" encoding="utf-8"?>
<svg version="1.1" xmlns:xlink="http://www.w3.org/1999/xlink" width="27px" height="17px" xmlns="http://www.w3.org/2000/svg">
  <g transform="matrix(1 0 0 1 -37 -281 )">
    <path d="M 8.35411764705882 0.710104166666668  C 8.54683525752461 0.352736207917355  8.91920641595448 0.130074642944765  9.32413807109761 0.130074642944765  C 9.66548278809923 0.130074642944765  9.98759279026955 0.288671327666766  10.1964705882353 0.559583333333334  L 10.2617647058824 0.654322916666667  L 15.2426470588235 8.7284375  L 18.1826470588235 4.97072916666667  C 18.5300200042275 4.52620392386759  19.1552594270984 4.41552934114504  19.6332352941177 4.71395833333334  L 19.7311764705882 4.78479166666667  C 19.7973529411765 4.83614583333334  19.8564705882353 4.89458333333334  19.9085294117647 4.96010416666667  L 19.9817647058824 5.06192708333334  L 26.8526470588235 15.9357291666667  C 26.9198245980015 16.0420658896098  26.9554929091899 16.1653752551844  26.9554929091899 16.2912788447457  C 26.9554929091899 16.6580304364302  26.6592107583427 16.9553413447457  26.2937282033076 16.9553413447457  C 26.1019032970257 16.9553413447457  25.9195169298576 16.8718161399851  25.7938235294118 16.72640625  L 25.7355882352941 16.64671875  L 19.0305882352941 6.03677083333334  L 16.0888235294118 9.79802083333334  C 16.0355797702617 9.86603128112962  15.974575308851 9.92754473000654  15.9070588235294 9.98130208333334  L 15.8011764705882 10.0556770833333  C 15.3229393729473 10.3524377685585  14.6987894344336 10.2406771608488  14.3523529411765 9.79625000000001  L 14.2835294117647 9.69708333333334  L 9.33617647058824 1.67786458333334  L 1.28823529411765 16.6077604166667  C 1.13079154503116 16.8997970085536  0.782591909368231 17.0302580350152  0.472941176470588 16.9132291666667  L 0.390882352941176 16.8760416666667  C 0.0998562682926501 16.7180512378959  -0.0301533359321488 16.3686425757202  0.0864705882352945 16.0579166666667  L 0.123529411764706 15.9755729166667  L 8.35411764705882 0.710989583333332  Z " fill-rule="nonzero" fill="#333333" stroke="none" transform="matrix(1 0 0 1 37 281 )" />
  </g>
</svg>