<?xml version="1.0" encoding="utf-8"?>
<svg version="1.1" xmlns:xlink="http://www.w3.org/1999/xlink" width="15px" height="12px" xmlns="http://www.w3.org/2000/svg">
  <g transform="matrix(1 0 0 1 -27 -579 )">
    <path d="M 0 0  L 15 0  L 15 12  L 0 12  L 0 0  Z M 13.7881097560976 10.8076923137019  L 13.7881097560976 1.19230768629808  L 1.21189024390244 1.19230768629808  L 1.21189024390244 10.8076923137019  L 13.7881097560976 10.8076923137019  Z M 2.73628048185023 7.92307692908654  L 12.2637195181498 7.92307692908654  L 12.2637195181498 9.07692308293269  L 2.73628048185023 9.07692308293269  L 2.73628048185023 7.92307692908654  Z M 6.94016767697218 4.06807692908654  L 7.5 2.92307691706731  L 8.06021341463415 4.06807692908654  L 9.31211890243902 4.25192307692308  L 8.40625000595465 5.14346154447115  L 8.61966462819169 6.40192307091346  L 7.5 5.80769230168269  L 6.37995426233803 6.40192307091346  L 6.59374999404535 5.14346154447115  L 5.68788109756098 4.25192307692308  L 6.94016767697218 4.06807692908654  Z " fill-rule="nonzero" fill="#1677ff" stroke="none" transform="matrix(1 0 0 1 27 579 )" />
  </g>
</svg>