<?xml version="1.0" encoding="utf-8"?>
<svg version="1.1" xmlns:xlink="http://www.w3.org/1999/xlink" width="4px" height="4px" xmlns="http://www.w3.org/2000/svg">
  <g transform="matrix(1 0 0 1 -312 -272 )">
    <path d="M 3.10961572265625 2.97129388020833  C 3.17102884765625 2.81576463541667  3.0319844140625 2.65652912760417  2.798670546875 2.61557372395833  C 2.5653566796875 2.57505825520833  2.32694337890625 2.66746125  2.2650903125 2.82315046875  C 2.21485678206314 2.9507972753696  2.13728787700512 3.07295073947814  2.03477611328125 3.18584319010417  C 1.90937015625 3.32332111979167  1.97506279296875 3.50246106770833  2.18149966796875 3.58591837239583  C 2.24962495928777 3.61353479338237  2.32782321092359 3.62814047103202  2.40755435546875 3.6281403125  C 2.55513783203125 3.6281403125  2.6993016796875 3.57823923177083  2.7811925 3.48810266927083  C 2.927056171875 3.32801393229167  3.0375237890625 3.154140078125  3.10961572265625 2.97129388020833  Z M 2.0129785546875 1.84740641927083  C 2.04969443359375 1.989150546875  2.23395380859375 2.08909934895833  2.442950390625 2.08909934895833  C 2.46726767578125 2.08909934895833  2.49242484375 2.0878194921875  2.51758203125 2.0848331640625  C 2.7551554296875 2.05752955729167  2.91467755859375 1.9069730859375  2.8737221484375 1.7484441796875  C 2.68136369140625 1.0034476171875  1.8483569921875 0.396222291666666  0.751759804687502 0.201297460937499  C 0.519305839843751 0.160915312499999  0.279592695312504 0.252051770833333  0.217319667968752 0.407741002604167  C 0.155046640625001 0.562990286458333  0.293671113281251 0.722652395833334  0.526545019531254 0.764034427083333  C 1.294718984375 0.900525807291666  1.8781936328125 1.32577151041667  2.0129785546875 1.84740641927083  Z " fill-rule="nonzero" fill="#2000ff" stroke="none" fill-opacity="0.501960784313725" transform="matrix(1 0 0 1 312 272 )" />
  </g>
</svg>