<?xml version="1.0" encoding="utf-8"?>
<svg version="1.1" xmlns:xlink="http://www.w3.org/1999/xlink" width="14px" height="12px" xmlns="http://www.w3.org/2000/svg">
  <g transform="matrix(1 0 0 1 -302 -269 )">
    <path d="M 13.6935991992187 4.8615825  C 12.9617767252604 9.05283307617187  7.48837418619792 11.5211366308594  6.98313966145833 11.5211366308594  C 6.47591425347222 11.5211366308594  0.989897571614583 9.048993515625  0.267376271701389 4.83697025390625  C 0.214959913194444 4.59816700195312  0.19240689453125 4.06394182617187  0.193060151909722 4.02076167480469  C 0.193060151909722 4.02076167480469  0.191738081597222 3.85218055664062  0.208318450520833 3.74900711425781  C 0.396737350260417 1.89170512207031  1.99672703125 0.49264681640625  3.93543211371528 0.49264681640625  C 5.00430572699653 0.49264681640625  6.02440258680556 0.936177143554687  6.73499412760417 1.70935555664062  C 6.86237986328125 1.848195  7.10355729817708 1.848195  7.23161183159722 1.70935555664062  C 7.94220335720486 0.936012172851562  8.96264239366319 0.492646831054687  10.0311738454861 0.492646816406249  C 11.9808132682292 0.492646816406249  13.6192830946181 1.96032243164062  13.7635913606771 3.83488749023437  C 13.7768587608507 3.93230157714844  13.7775275737847 4.07225090332031  13.7775275889757 4.10520221191406  C 13.7775275889757 4.35583914550781  13.7493285264757 4.61031563964844  13.6935991992187 4.8615825  Z M 6.22641552300348 2.14379689453125  C 5.64488953559028 1.51086777832031  4.80989862196181 1.14778844238281  3.93543211371528 1.14778844238281  C 2.34472805121528 1.14778844238281  1.03302829644097 2.29796462402344  0.883416163194444 3.82305382324219  L 0.876448064236111 3.86560404785156  C 0.872792918836806 3.89728050292969  0.872139661458333 3.9983541796875  0.872466282552083 4.02203652832031  C 0.873461731770833 4.10104768066406  0.898005648871528 4.54714271484375  0.934837072482639 4.71603880371094  C 1.56479762152778 8.38585778320313  6.37571657552083 10.6769411865234  6.98247084852431 10.85911078125  C 7.58855629340278 10.67500640625  12.3908428862847 8.37594389648438  13.0264650347222 4.73891124023438  C 13.0748996115451 4.51851092285156  13.0981214583333 4.30992928710938  13.0981214583333 4.10520221191406  C 13.0981214583333 4.08504446777344  13.0954617621528 3.98299589355469  13.0914799804688 3.93054678222656  L 13.086502749566 3.88736661621094  C 12.9700668945313 2.35123866210938  11.6281616384549 1.14780344238281  10.0311738454861 1.14780344238281  C 9.15703397352431 1.14780344238281  8.32171640842014 1.51088277832031  7.73983268880209 2.14379689453125  C 7.54841190104167 2.352528515625  7.27240948133681 2.47217011230469  6.98312410590278 2.47217011230469  C 6.69383873046875 2.47217011230469  6.41783631076389 2.352528515625  6.22641552300348 2.14379689453125  Z " fill-rule="nonzero" fill="#2000ff" stroke="none" transform="matrix(1 0 0 1 302 269 )" />
  </g>
</svg>