<?xml version="1.0" encoding="utf-8"?>
<svg version="1.1" xmlns:xlink="http://www.w3.org/1999/xlink" width="25px" height="25px" xmlns="http://www.w3.org/2000/svg">
  <g transform="matrix(1 0 0 1 -245 -279 )">
    <path d="M 15.21875 12.5  L 15.21875 8.87469790722656  C 16.3192395927734 9.7015  17.03125 11.0176770644531  17.03125 12.5  C 17.03125 15.0024583427734  15.0024583427734 17.03125  12.5 17.03125  C 9.99754165722656 17.03125  7.96875 15.0024583427734  7.96875 12.5  C 7.96875 9.99754165722656  9.99754165722656 7.96875  12.5 7.96875  C 13.5201354072266 7.96875  14.4614270927734 8.305875  15.21875 8.87469790722656  L 15.21875 3.13541665722656  C 15.21875 2.63490860269241  15.6244919454658 2.22916665722656  16.125 2.22916665722656  C 16.6255080545342 2.22916665722656  17.03125 2.63490860269241  17.03125 3.13541665722656  L 17.03125 12.5  C 17.03125 13.0005080545342  16.6255080545342 13.40625  16.125 13.40625  C 15.6244919454658 13.40625  15.21875 13.0005080545342  15.21875 12.5  Z M 0.416666657226562 12.5  C 0.416666657226562 5.82667709277344  5.82667709277344 0.416666657226562  12.5 0.416666657226562  C 13.0005080354364 0.416666657226562  13.4062499809022 0.822408602692406  13.4062499809022 1.32291665722656  C 13.4062499809022 1.82342471176072  13.0005080354364 2.22916665722656  12.4999999809022 2.22916665722656  C 6.82747915722656 2.22916665722656  2.22916665722656 6.82747915722656  2.22916665722656 12.5  C 2.22916665722656 18.1725208427734  6.82747915722656 22.7708333427734  12.5 22.7708333427734  C 18.1725208427734 22.7708333427734  22.7708333427734 18.1725208427734  22.7708333427734 12.5  C 22.7735308839772 10.857977353464  22.380612876881 9.23947016502451  21.6253333427734 7.78145834277344  C 21.555220287201 7.65012469147564  21.5185426389096 7.50354045630078  21.5185426389096 7.35466343146179  C 21.5185426389096 6.85415537692763  21.9242845843754 6.44841343146179  22.4247926389096 6.44841343146179  C 22.767382869507 6.44841343146179  23.0806897739431 6.64160237036279  23.23453125 6.94770834277343  C 24.1233426802466 8.66335535490887  24.5859822184561 10.5677931238493  24.5833333427734 12.5  C 24.5833333427734 19.1733229072266  19.1733229355469 24.5833333427734  12.5 24.5833333427734  C 5.82667706445312 24.5833333427734  0.416666657226562 19.1733229072266  0.416666657226562 12.5  Z M 12.5 15.21875  C 14.0015241636025 15.21875  15.21875 14.0015241636025  15.21875 12.5  C 15.21875 10.9984758363975  14.0015241636025 9.78125  12.5 9.78125  C 10.9984758363975 9.78125  9.78125 10.9984758363975  9.78125 12.5  C 9.78125 14.0015241636025  10.9984758363975 15.21875  12.5 15.21875  Z M 21.8645833427734 3.13541665722656  C 21.8645833710938 4.70292706445312  20.3293958427734 5.85416665722656  18.5416666572266 5.85416665722656  C 16.7913958144531 5.85416665722656  15.21875 4.6319375  15.21875 3.13541665722656  C 15.21875 1.63889581445312  16.7913958427734 0.416666657226562  18.5416666572266 0.416666657226562  C 20.3293958144531 0.416666657226562  21.8645833144531 1.56790625  21.8645833427734 3.13541665722656  Z M 17.03125 3.13541665722656  C 17.03125 3.51664581445312  17.7067083427734 4.04166665722656  18.5416666572266 4.04166665722656  C 19.4231458144531 4.04166665722656  20.0520833144531 3.57011456445312  20.0520833427734 3.13541665722656  C 20.0520833710938 2.70071875  19.4231458427734 2.22916665722656  18.5416666572266 2.22916665722656  C 17.7067083144531 2.22916665722656  17.03125 2.7541875  17.03125 3.13541665722656  Z " fill-rule="nonzero" fill="#000000" stroke="none" transform="matrix(1 0 0 1 245 279 )" />
  </g>
</svg>