<?xml version="1.0" encoding="utf-8"?>
<svg version="1.1" xmlns:xlink="http://www.w3.org/1999/xlink" width="16px" height="11px" xmlns="http://www.w3.org/2000/svg">
  <g transform="matrix(1 0 0 1 -41 -385 )">
    <path d="M 3.634667859375 9.73333428125  C 3.634667859375 9.7280009375  3.638934515625 9.705067625  3.638934515625 9.705067625  L 3.644267859375 9.6464009609375  L 3.6453345234375 9.63840096875  C 3.820267828125 8.46560121875  4.6037343046875 8.0480013125  5.2778674921875 8.0480013125  C 6.1226673046875 8.0480013125  6.925867125 8.6453345234375  7.45760034375 9.1557344140625  C 6.50826721875 7.3882681484375  6.4122672421875 6.0848017578125  6.6096005390625 4.6346687421875  L 6.624533859375 4.5514687578125  C 7.008533765625 2.94773578906251  7.825600265625 2.61120251562501  8.4432001171875 2.6112025390625  C 8.636800078125 2.6112025390625  8.8229333671875 2.645869203125  9 2.70453584375  C 7.96586690625 1.458669453125  6.7680004921875 0.804269609375002  5.2986675 0.667202960937503  C 5.26489157199479 0.666767750866299  5.23111281751337 0.666589972265536  5.1973341796875 0.666669640625003  C 2.9520013359375 0.666669640625003  1.369068375 2.002136  0.4666685625 3.0613357578125  C 1.0282684453125 2.6597358359375  1.3962683671875 2.5824025390625  1.6896016171875 2.5824025390625  C 2.2656015 2.5824025390625  2.8858680234375 2.992002453125  2.8858680234375 3.89120225  C 2.7936013828125 6.58986832812501  3.2224012734375 8.5269345546875  3.634134515625 9.73333428125001  Z M 13.6239989765625 2.8000025  C 13.506665671875 2.8000025  13.406399015625 2.82826915625  13.357332375 2.8746691484375  C 13.1946657421875 3.0293357890625  13.2613323984375 3.5008023359375  13.477332328125 3.72960228125  C 13.5594656484375 3.8165356015625  13.6853322890625 3.86666890625  13.82186559375 3.8666689296875  C 13.9478602959103 3.86831102973527  14.0700092519162 3.82328878188139  14.1647988515625 3.7402689453125  C 14.36746546875 3.547202328125  14.39146546875 3.224535734375  14.2149321796875 3.0378691015625  C 14.0847988828125 2.893869125  13.848532265625 2.8000024765625  13.6239989765625 2.8000025  Z " fill-rule="nonzero" fill="#ffffff" stroke="none" transform="matrix(1 0 0 1 41 385 )" />
  </g>
</svg>