<?xml version="1.0" encoding="utf-8"?>
<svg version="1.1" xmlns:xlink="http://www.w3.org/1999/xlink" width="24px" height="18px" xmlns="http://www.w3.org/2000/svg">
  <g transform="matrix(1 0 0 1 -107 -380 )">
    <path d="M 16.8760181069712 17.4092879272204  L 15.9638008990385 17.4092879272204  C 15.6597284963942 17.4092879272204  15.35565609375 17.4092879272204  15.0515837163462 17.2532507861842  L 8.66606333653846 14.6006192072368  L 8.05791855649039 14.6006192072368  L 3.95294118389423 16.4730650032895  C 3.19276018990385 16.7851393112664  2.43257919591346 16.7851393112664  1.824434390625 16.3170278622533  C 1.21628958533654 15.8489164132401  0.760180993990386 15.2247677972862  0.760180993990386 14.444582040296  L 0.760180993990386 5.23839009745066  C 0.760180993990386 4.30216719942434  1.21628958533654 3.52198141652961  2.12850679326923 3.05386996751645  L 7.44977375120192 0.713312696546054  C 8.05791855649039 0.557275555509869  8.66606333653846 0.557275555509869  9.27420814182693 0.869349837582238  L 11.7067873377404 2.11764706949013  C 12.0108597403846 2.27368421052632  12.1628959290865 2.74179568544408  12.0108597403846 3.20990710855263  C 11.8588235516827 3.52198141652961  11.4027149350962 3.67801855756579  11.0986425324519 3.36594427549342  L 8.66606333653846 2.27368421052632  C 8.51402714783654 2.11764706949013  8.20995474519231 2.11764706949013  8.05791855649039 2.11764706949013  L 2.73665157331731 4.61424148149671  C 2.43257917067308 4.77027862253289  2.28054298197115 5.08235293050987  2.28054298197115 5.23839009745066  L 2.28054298197115 14.2885448992599  C 2.28054298197115 14.6006192072368  2.43257917067308 14.756656348273  2.58461538461538 14.9126934893092  C 2.73665157331731 15.0687306303454  3.04072397596154 15.0687306303454  3.34479637860577 14.9126934893092  L 7.44977375120192 13.040247667352  C 8.05791855649039 12.728173359375  8.66606333653846 12.728173359375  9.27420814182692 13.040247667352  L 15.6597284963942 15.6928792462993  L 16.2678733016827 15.6928792462993  L 21.5891402596154 13.1962848342928  C 21.8932126622596 13.0402476932566  22.0452488509615 12.7281733852796  22.0452488762019 12.4160990773026  L 22.0452488762019 5.8625386875  C 22.0452488762019 5.39442723848684  22.3493212788462 5.08235293050987  22.8054298701923 5.08235293050987  C 23.2615384615385 5.08235293050987  23.5656108641827 5.39442723848684  23.5656108641827 5.8625386875  L 23.5656108641827 12.7281733852796  C 23.5656108641827 13.6643962833059  23.1095022728365 14.4445820662007  22.1972850649039 14.9126934893092  L 16.8760181069712 17.4092879272204  Z " fill-rule="nonzero" fill="#000000" stroke="none" transform="matrix(1 0 0 1 107 380 )" />
  </g>
</svg>