<?xml version="1.0" encoding="utf-8"?>
<svg version="1.1" xmlns:xlink="http://www.w3.org/1999/xlink" width="10px" height="14px" xmlns="http://www.w3.org/2000/svg">
  <g transform="matrix(1 0 0 1 -81 -247 )">
    <path d="M 9.8772173828125 5.030086953125  C 9.8772173828125 5.12278259765625  9.87495650390625 5.21078259765625  9.87026087890625 5.294086953125  C 9.865739140625 5.37756521484375  9.8587826171875 5.46556521484375  9.84939130859375 5.55826087890625  C 9.7689421596786 6.31472750438714  9.59870015759886 7.05892325479239  9.34226087890625 7.7751304296875  C 9.08663337293898 8.48563558830109  8.7631080476963 9.16984359628125  8.37617390625 9.81826087890625  C 7.97943939887089 10.4821566618779  7.52851322340046 11.1121270510051  7.028 11.7017391210938  C 6.51060222177676 12.3122264374329  5.95837844165074 12.8923227114193  5.374086953125 13.4391304296875  C 5.29060869140625 13.5410434765625  5.184 13.592  5.05426087890625 13.592  C 4.91530435546875 13.592  4.80417392578125 13.5410434765625  4.72069564453125 13.4389565234375  C 4.13294498375476 12.8885281731617  3.57834858415496 12.3037338467864  3.05982609375 11.6876521679687  C 2.55336142577485 11.0872136087094  2.09770443537072 10.4456988296184  1.69756521484375 9.76973912109375  C 1.3072360816399 9.10992319562804  0.981438641871016 8.41400728911267  0.72469564453125 7.69165216796875  C 0.468365922434506 6.96660928898583  0.302645558506663 6.21266047115041  0.23130435546875 5.4469565234375  C 0.231449935908994 5.3774468355895  0.229129635685583 5.30795385888173  0.22434783203125 5.23860869140625  C 0.2196521875 5.17373912109375  0.21739130859375 5.10417390625  0.21739130859375 5.029913046875  C 0.21739130859375 4.38139130859375  0.3448695703125 3.769913046875  0.599652167968749 3.19530435546875  C 0.85443478515625 2.6208695703125  1.19965216796875 2.12052173828125  1.6351304296875 1.69426087890625  C 2.07060869140625 1.26817392578125  2.58260869140625 0.929739140624999  3.1709565234375 0.679652167968749  C 3.75930435546875 0.42939130859375  4.3871304296875 0.30434783203125  5.05443478515625 0.30434783203125  C 5.72139130859375 0.30434783203125  6.3469565234375 0.429565214843751  6.93060869140625 0.67965216796875  C 7.51443478515625 0.929739121093751  8.024 1.268  8.45965216796875 1.69426087890625  C 8.8951304296875 2.12034783203125  9.2403478125 2.6208695703125  9.4951304296875 3.19530435546875  C 9.749913046875 3.769913046875  9.87739130859375 4.38139130859375  9.87739130859375 5.030086953125  Z M 5.05443478515625 7.19826087890625  C 5.36017390625 7.19826087890625  5.64747826171875 7.14034783203125  5.91617390625 7.02452173828125  C 6.17689759618274 6.91402900024714  6.41488695511362 6.75617530666718  6.618086953125 6.5589565234375  C 6.81872426873598 6.362402376491  6.97926369368663 6.12874014355067  7.0907826171875 5.8709565234375  C 7.20643478515625 5.6067826171875  7.26434783203125 5.32660869140625  7.26434783203125 5.030086953125  C 7.26434783203125 4.73356521484375  7.20643478515625 4.4532173828125  7.09060869140625 4.1892173828125  C 6.97913371419201 3.93145247984012  6.81865504517233 3.69779270222408  6.618086953125 3.5012173828125  C 6.4189565234375 3.306434765625  6.1850434765625 3.1513043359375  5.91617390625 3.03547826171875  C 5.64747826171875 2.91965216796875  5.36017390625 2.861739140625  5.05443478515625 2.86173912109375  C 4.7486956640625 2.8617391015625  4.46139130859375 2.91965216796875  4.19269564453125 3.03565216796875  C 3.93046361819291 3.14719668561004  3.69037053108262 3.30488294757433  3.48382609375 3.5012173828125  C 3.27968375574516 3.69625117604209  3.11665397408003 3.93018146807147  3.00434783203125 4.1892173828125  C 2.88831295669627 4.45428732214411  2.82912738276522 4.74073600573416  2.83060869140625 5.030086953125  C 2.83060869140625 5.32660869140625  2.88852173828125 5.60678259765625  3.00434783203125 5.8709565234375  C 3.11664573148636 6.12999703647294  3.27967658839003 6.36392887135458  3.48382609375 6.5589565234375  C 3.69037053108262 6.75529095867566  3.93046361819291 6.91297722063995  4.19269564453125 7.02452173828125  C 4.4613912890625 7.14034783203125  4.74869564453125 7.19843478515625  5.05443478515625 7.19843478515625  Z " fill-rule="nonzero" fill="#ffffff" stroke="none" transform="matrix(1 0 0 1 81 247 )" />
  </g>
</svg>