<?xml version="1.0" encoding="utf-8"?>
<svg version="1.1" xmlns:xlink="http://www.w3.org/1999/xlink" width="3px" height="3px" xmlns="http://www.w3.org/2000/svg">
  <g transform="matrix(1 0 0 1 -91 -259 )">
    <path d="M 0.78270534041561 1.26086956054688  C 0.78270534041561 1.52496800741108  0.99677112884093 1.73907705954081  1.2608695703125 1.7391304296875  C 1.52510240918246 1.73913043945312  1.73922709822811 1.52500575040747  1.73922709822811 1.26086956054688  C 1.73922709822811 0.996733370686281  1.52510240918246 0.782608681640626  1.26096621932186 0.782608681640626  C 0.99677112884093 0.782662061552941  0.78270534041561 0.996771113682671  0.78270534041561 1.26086956054688  Z M 1.2608695703125 2.21739130859375  C 1.78914193924687 2.21739130859375  2.21739130859375 1.78914193924687  2.21739130859375 1.2608695703125  C 2.21739130859375 0.732597201378125  1.78914193924687 0.304347832031251  1.2608695703125 0.304347832031251  C 0.732597201378123 0.304347832031251  0.304347832031247 0.732597201378125  0.304347832031247 1.2608695703125  C 0.304347832031247 1.78914193924687  0.732597201378123 2.21739130859375  1.2608695703125 2.21739130859375  Z " fill-rule="nonzero" fill="#ffffff" stroke="none" transform="matrix(1 0 0 1 91 259 )" />
  </g>
</svg>