<?xml version="1.0" encoding="utf-8"?>
<svg version="1.1" xmlns:xlink="http://www.w3.org/1999/xlink" width="16px" height="16px" xmlns="http://www.w3.org/2000/svg">
  <g transform="matrix(1 0 0 1 -20 -230 )">
    <path d="M 15.6080210019531 2.52713642382813  L 15.6080210019531 2.2562218828125  C 15.6080210019531 1.23103446875  14.7757871289062 0.398800595703125  13.7505996894531 0.398800595703125  L 0.391978998046875 0.398800595703125  C 0.391978998046875 8.80299849804687  7.20382307421875 15.6148425742187  15.6080210019531 15.6148425742187  L 15.6080210019531 2.71229384960937  L 15.6002248867188 2.70254872460938  C 15.6060719667969 2.64407794921875  15.6080209765625 2.58560719921875  15.6080210019531 2.52713642382813  Z M 9.488080953125 6.729235375  L 11.3396551601562 8.58080960742187  C 11.4975262207031 8.73868066796875  11.4975262207031 8.9959520390625  11.3396551601562 9.15382309960937  C 11.1817840996094 9.31169416015625  10.9245127285156 9.31169416015625  10.7666416679688 9.15382309960937  L 8.9150674609375 7.3022488671875  L 7.06349325390625 9.15382309960937  C 6.90562219335937 9.31169416015625  6.64835082226562 9.31169416015625  6.49047976171875 9.15382309960937  C 6.33260870117187 8.9959520390625  6.33260870117187 8.73868066796875  6.49047976171875 8.58080960742187  L 8.34205396875 6.729235375  L 6.49047976171875 4.87766116796875  C 6.33260870117187 4.71979010742187  6.33260870117187 4.46251873632812  6.49047976171875 4.30464767578125  C 6.64835082226562 4.14677661523437  6.90562219335937 4.14677661523437  7.06349325390625 4.30464767578125  L 8.9150674609375 6.1562218828125  L 10.7666416679687 4.30464767578125  C 10.9245127285156 4.14677661523437  11.1817840996094 4.14677661523437  11.3396551601562 4.30464767578125  C 11.4975262207031 4.46251873632812  11.4975262207031 4.71979010742187  11.3396551601562 4.87766116796875  L 9.488080953125 6.729235375  Z " fill-rule="nonzero" fill="#000000" stroke="none" transform="matrix(1 0 0 1 20 230 )" />
  </g>
</svg>