<?xml version="1.0" encoding="utf-8"?>
<svg version="1.1" xmlns:xlink="http://www.w3.org/1999/xlink" width="12px" height="12px" viewBox="75 2018  12 12" xmlns="http://www.w3.org/2000/svg">
  <path d="M 81 2018  C 84.36 2018  87 2020.64  87 2024  C 87 2027.36  84.36 2030  81 2030  C 77.64 2030  75 2027.36  75 2024  C 75 2020.64  77.64 2018  81 2018  Z " fill-rule="nonzero" fill="#f0f0f0" stroke="none" />
  <path d="M 81 2018.5  C 84.08 2018.5  86.5 2020.92  86.5 2024  C 86.5 2027.08  84.08 2029.5  81 2029.5  C 77.92 2029.5  75.5 2027.08  75.5 2024  C 75.5 2020.92  77.92 2018.5  81 2018.5  Z " stroke-width="1" stroke="#797979" fill="none" />
  <path d="M 81 2027  C 79.32 2027  78 2025.68  78 2024  C 78 2022.32  79.32 2021  81 2021  C 82.68 2021  84 2022.32  84 2024  C 84 2025.68  82.68 2027  81 2027  " fill-rule="nonzero" fill="#797979" stroke="none" />
</svg>