<?xml version="1.0" encoding="utf-8"?>
<svg version="1.1" xmlns:xlink="http://www.w3.org/1999/xlink" width="30px" height="31px" xmlns="http://www.w3.org/2000/svg">
  <g transform="matrix(1 0 0 1 -1682 -1683 )">
    <path d="M 1.83292161908163 0.177462173095701  C 2.2577955375022 0.177462173095701  2.66874829208436 0.330718373434886  2.99196428571429 0.609702797202797  L 3.09017858537946 0.70093241504589  L 15.224107156808 12.9771853146853  L 26.9116071428571 1.15346738008086  C 27.246976550658 0.810890405112386  27.7037966190362 0.618152917389705  28.1803919150354 0.618152917389705  C 29.1666146902952 0.618152917389705  29.9661062147006 1.42696252483006  29.9661062147006 2.42467973803  C 29.9661062147006 2.86046116401083  29.8103966272526 3.28155520771079  29.5276785853795 3.61034380873033  L 29.438392843192 3.7097027972028  L 17.7491071289062 15.5316142332277  L 29.4375 27.3553321678322  C 29.776723068964 27.694684989585  29.9676175840721 28.1572472535245  29.9676175840721 28.6398760935893  C 29.9676175840721 29.6375933067892  29.1681260596668 30.4464029142296  28.1819032844069 30.4464029142296  C 27.7511070222124 30.4464029142296  27.3348325703974 30.2888527178614  27.0098214425223 30.0027972027972  L 26.9116071428571 29.9106643356643  L 15.224107156808 18.0869464010599  L 3.09017858537947 30.3641025499891  C 2.75527909664158 30.7029918069279  2.3010065868206 30.8933850831727  1.82732671636414 30.8933850831727  C 0.841103941104287 30.8933850831727  0.041612416698962 30.0845754757324  0.041612416698962 29.0868582625324  C 0.041612416698962 28.6542334424704  0.195078678265922 28.2359737377841  0.474107142857146 27.9081293706294  L 0.56428572823661 27.8087703821569  L 12.6991071428571 15.5316142332277  L 0.565178571428572 3.25626458287806  C 0.233384409593706 2.91790096674861  0.0472073194164483 2.46060036141603  0.0472073194164483 1.983988993736  C 0.0472073194164483 0.986271780536053  0.846698843821774 0.177462173095701  1.83292161908163 0.177462173095701  Z " fill-rule="nonzero" fill="#111111" stroke="none" transform="matrix(1 0 0 1 1682 1683 )" />
  </g>
</svg>