<?xml version="1.0" encoding="utf-8"?>
<svg version="1.1" xmlns:xlink="http://www.w3.org/1999/xlink" width="10px" height="15px" xmlns="http://www.w3.org/2000/svg">
  <g transform="matrix(1 0 0 1 -2019 -2331 )">
    <path d="M 9.68738766273696 7.5  C 9.68738766273696 7.30761367701865  9.5965132561074 7.12594750371713  9.44102564603365 7.00750000488281  L 0.410256415264423 0.13125  C 0.382379228379912 0.110167036988987  0.348101032030695 0.0987244766362469  0.312820505655542 0.0987244766362469  C 0.225021394345726 0.0987244766362469  0.153846151689196 0.168120338226364  0.153846151689196 0.253724471753434  L 0.153846153846154 1.76374999511719  C 0.153846153846154 1.85874999023437  0.2 1.95124999511719  0.275641030649038 2.01  L 7.4871794921875 7.5  L 0.274358969350961 12.99  C 0.196825890490374 13.049254137389  0.151842979167034 13.1402024908025  0.152564107572116 13.2362500048828  L 0.152564107572116 14.7462499951172  C 0.152564107572116 14.8774999951172  0.30641026141827 14.9487499951172  0.410256415264423 14.86875  L 9.44102564603365 7.99249999511719  C 9.5965132561074 7.87405249628287  9.68738766273696 7.69238632298135  9.68738766273696 7.5  Z " fill-rule="nonzero" fill="#000000" stroke="none" fill-opacity="0.647058823529412" transform="matrix(1 0 0 1 2019 2331 )" />
  </g>
</svg>