<?xml version="1.0" encoding="utf-8"?>
<svg version="1.1" xmlns:xlink="http://www.w3.org/1999/xlink" width="16px" height="3px" xmlns="http://www.w3.org/2000/svg">
  <g transform="matrix(1 0 0 1 -1692 -2399 )">
    <path d="M 13.8024691423002 0.415854444444445  C 12.8834308187135 0.415854444444445  12.1390513450292 0.788044171539962  12.1390513255361 1.24756335282651  C 12.1390513255361 1.70708251461988  12.8834307992203 2.07927226120858  13.8024691423002 2.07927226120858  C 14.7215074853801 2.07927226120858  15.4658869395712 1.70708253411306  15.4658869395712 1.24756335282651  C 15.4658869395712 0.788044171539962  14.7215074658869 0.415854444444445  13.8024691423002 0.415854444444445  Z M 2.15854450292398 0.415854444444445  C 1.23950615984405 0.415854444444445  0.495126705653021 0.788044171539962  0.495126705653021 1.24756335282651  C 0.495126705653021 1.70708251461988  1.23950617933723 2.07927226120858  2.15854450292398 2.07927226120858  C 3.07758282651072 2.07927226120858  3.82196230019493 1.70708253411306  3.82196231968811 1.24756335282651  C 3.82196233918129 0.788044171539962  3.0775828460039 0.415854444444445  2.15854450292398 0.415854444444445  Z " fill-rule="nonzero" fill="#ff9191" stroke="none" fill-opacity="0.298039215686275" transform="matrix(1 0 0 1 1692 2399 )" />
  </g>
</svg>