<?xml version="1.0" encoding="utf-8"?>
<svg version="1.1" xmlns:xlink="http://www.w3.org/1999/xlink" width="12px" height="12px" viewBox="98 84  12 12" xmlns="http://www.w3.org/2000/svg">
  <path d="M 104 84  C 107.36 84  110 86.64  110 90  C 110 93.36  107.36 96  104 96  C 100.64 96  98 93.36  98 90  C 98 86.64  100.64 84  104 84  Z " fill-rule="nonzero" fill="#ffffff" stroke="none" />
  <path d="M 104 84.5  C 107.08 84.5  109.5 86.92  109.5 90  C 109.5 93.08  107.08 95.5  104 95.5  C 100.92 95.5  98.5 93.08  98.5 90  C 98.5 86.92  100.92 84.5  104 84.5  Z " stroke-width="1" stroke="#797979" fill="none" />
  <path d="M 104 93  C 102.32 93  101 91.68  101 90  C 101 88.32  102.32 87  104 87  C 105.68 87  107 88.32  107 90  C 107 91.68  105.68 93  104 93  " fill-rule="nonzero" fill="#797979" stroke="none" />
</svg>