<?xml version="1.0" encoding="utf-8"?>
<svg version="1.1" xmlns:xlink="http://www.w3.org/1999/xlink" width="12px" height="12px" viewBox="176 84  12 12" xmlns="http://www.w3.org/2000/svg">
  <path d="M 182 84  C 185.36 84  188 86.64  188 90  C 188 93.36  185.36 96  182 96  C 178.64 96  176 93.36  176 90  C 176 86.64  178.64 84  182 84  Z " fill-rule="nonzero" fill="#ffffff" stroke="none" />
  <path d="M 182 84.5  C 185.08 84.5  187.5 86.92  187.5 90  C 187.5 93.08  185.08 95.5  182 95.5  C 178.92 95.5  176.5 93.08  176.5 90  C 176.5 86.92  178.92 84.5  182 84.5  Z " stroke-width="1" stroke="#797979" fill="none" />
  <path d="M 182 93  C 180.32 93  179 91.68  179 90  C 179 88.32  180.32 87  182 87  C 183.68 87  185 88.32  185 90  C 185 91.68  183.68 93  182 93  " fill-rule="nonzero" fill="#797979" stroke="none" />
</svg>