<?xml version="1.0" encoding="utf-8"?>
<svg version="1.1" xmlns:xlink="http://www.w3.org/1999/xlink" width="12px" height="12px" viewBox="253 84  12 12" xmlns="http://www.w3.org/2000/svg">
  <path d="M 259 84  C 262.36 84  265 86.64  265 90  C 265 93.36  262.36 96  259 96  C 255.64 96  253 93.36  253 90  C 253 86.64  255.64 84  259 84  Z " fill-rule="nonzero" fill="#f0f0f0" stroke="none" />
  <path d="M 259 84.5  C 262.08 84.5  264.5 86.92  264.5 90  C 264.5 93.08  262.08 95.5  259 95.5  C 255.92 95.5  253.5 93.08  253.5 90  C 253.5 86.92  255.92 84.5  259 84.5  Z " stroke-width="1" stroke="#797979" fill="none" />
  <path d="M 259 93  C 257.32 93  256 91.68  256 90  C 256 88.32  257.32 87  259 87  C 260.68 87  262 88.32  262 90  C 262 91.68  260.68 93  259 93  " fill-rule="nonzero" fill="#797979" stroke="none" />
</svg>