<?xml version="1.0" encoding="utf-8"?>
<svg version="1.1" xmlns:xlink="http://www.w3.org/1999/xlink" width="12px" height="12px" viewBox="98 202  12 12" xmlns="http://www.w3.org/2000/svg">
  <path d="M 104 202  C 107.36 202  110 204.64  110 208  C 110 211.36  107.36 214  104 214  C 100.64 214  98 211.36  98 208  C 98 204.64  100.64 202  104 202  Z " fill-rule="nonzero" fill="#f0f0f0" stroke="none" />
  <path d="M 104 202.5  C 107.08 202.5  109.5 204.92  109.5 208  C 109.5 211.08  107.08 213.5  104 213.5  C 100.92 213.5  98.5 211.08  98.5 208  C 98.5 204.92  100.92 202.5  104 202.5  Z " stroke-width="1" stroke="#797979" fill="none" />
  <path d="M 104 211  C 102.32 211  101 209.68  101 208  C 101 206.32  102.32 205  104 205  C 105.68 205  107 206.32  107 208  C 107 209.68  105.68 211  104 211  " fill-rule="nonzero" fill="#797979" stroke="none" />
</svg>