<?xml version="1.0" encoding="utf-8"?>
<svg version="1.1" xmlns:xlink="http://www.w3.org/1999/xlink" width="12px" height="12px" viewBox="176 202  12 12" xmlns="http://www.w3.org/2000/svg">
  <path d="M 182 202  C 185.36 202  188 204.64  188 208  C 188 211.36  185.36 214  182 214  C 178.64 214  176 211.36  176 208  C 176 204.64  178.64 202  182 202  Z " fill-rule="nonzero" fill="#f0f0f0" stroke="none" />
  <path d="M 182 202.5  C 185.08 202.5  187.5 204.92  187.5 208  C 187.5 211.08  185.08 213.5  182 213.5  C 178.92 213.5  176.5 211.08  176.5 208  C 176.5 204.92  178.92 202.5  182 202.5  Z " stroke-width="1" stroke="#797979" fill="none" />
  <path d="M 182 211  C 180.32 211  179 209.68  179 208  C 179 206.32  180.32 205  182 205  C 183.68 205  185 206.32  185 208  C 185 209.68  183.68 211  182 211  " fill-rule="nonzero" fill="#797979" stroke="none" />
</svg>