<?xml version="1.0" encoding="utf-8"?>
<svg version="1.1" xmlns:xlink="http://www.w3.org/1999/xlink" width="12px" height="12px" viewBox="98 227  12 12" xmlns="http://www.w3.org/2000/svg">
  <path d="M 104 227  C 107.36 227  110 229.64  110 233  C 110 236.36  107.36 239  104 239  C 100.64 239  98 236.36  98 233  C 98 229.64  100.64 227  104 227  Z " fill-rule="nonzero" fill="#f0f0f0" stroke="none" />
  <path d="M 104 227.5  C 107.08 227.5  109.5 229.92  109.5 233  C 109.5 236.08  107.08 238.5  104 238.5  C 100.92 238.5  98.5 236.08  98.5 233  C 98.5 229.92  100.92 227.5  104 227.5  Z " stroke-width="1" stroke="#797979" fill="none" />
  <path d="M 104 236  C 102.32 236  101 234.68  101 233  C 101 231.32  102.32 230  104 230  C 105.68 230  107 231.32  107 233  C 107 234.68  105.68 236  104 236  " fill-rule="nonzero" fill="#797979" stroke="none" />
</svg>