<?xml version="1.0" encoding="utf-8"?>
<svg version="1.1" xmlns:xlink="http://www.w3.org/1999/xlink" width="12px" height="12px" viewBox="98 281  12 12" xmlns="http://www.w3.org/2000/svg">
  <path d="M 104 281  C 107.36 281  110 283.64  110 287  C 110 290.36  107.36 293  104 293  C 100.64 293  98 290.36  98 287  C 98 283.64  100.64 281  104 281  Z " fill-rule="nonzero" fill="#f0f0f0" stroke="none" />
  <path d="M 104 281.5  C 107.08 281.5  109.5 283.92  109.5 287  C 109.5 290.08  107.08 292.5  104 292.5  C 100.92 292.5  98.5 290.08  98.5 287  C 98.5 283.92  100.92 281.5  104 281.5  Z " stroke-width="1" stroke="#797979" fill="none" />
  <path d="M 104 290  C 102.32 290  101 288.68  101 287  C 101 285.32  102.32 284  104 284  C 105.68 284  107 285.32  107 287  C 107 288.68  105.68 290  104 290  " fill-rule="nonzero" fill="#797979" stroke="none" />
</svg>