<?xml version="1.0" encoding="utf-8"?>
<svg version="1.1" xmlns:xlink="http://www.w3.org/1999/xlink" width="12px" height="12px" viewBox="176 281  12 12" xmlns="http://www.w3.org/2000/svg">
  <path d="M 182 281  C 185.36 281  188 283.64  188 287  C 188 290.36  185.36 293  182 293  C 178.64 293  176 290.36  176 287  C 176 283.64  178.64 281  182 281  Z " fill-rule="nonzero" fill="#f0f0f0" stroke="none" />
  <path d="M 182 281.5  C 185.08 281.5  187.5 283.92  187.5 287  C 187.5 290.08  185.08 292.5  182 292.5  C 178.92 292.5  176.5 290.08  176.5 287  C 176.5 283.92  178.92 281.5  182 281.5  Z " stroke-width="1" stroke="#797979" fill="none" />
  <path d="M 182 290  C 180.32 290  179 288.68  179 287  C 179 285.32  180.32 284  182 284  C 183.68 284  185 285.32  185 287  C 185 288.68  183.68 290  182 290  " fill-rule="nonzero" fill="#797979" stroke="none" />
</svg>