<?xml version="1.0" encoding="utf-8"?>
<svg version="1.1" xmlns:xlink="http://www.w3.org/1999/xlink" width="12px" height="12px" viewBox="98 304  12 12" xmlns="http://www.w3.org/2000/svg">
  <path d="M 104 304  C 107.36 304  110 306.64  110 310  C 110 313.36  107.36 316  104 316  C 100.64 316  98 313.36  98 310  C 98 306.64  100.64 304  104 304  Z " fill-rule="nonzero" fill="#f0f0f0" stroke="none" />
  <path d="M 104 304.5  C 107.08 304.5  109.5 306.92  109.5 310  C 109.5 313.08  107.08 315.5  104 315.5  C 100.92 315.5  98.5 313.08  98.5 310  C 98.5 306.92  100.92 304.5  104 304.5  Z " stroke-width="1" stroke="#797979" fill="none" />
  <path d="M 104 313  C 102.32 313  101 311.68  101 310  C 101 308.32  102.32 307  104 307  C 105.68 307  107 308.32  107 310  C 107 311.68  105.68 313  104 313  " fill-rule="nonzero" fill="#797979" stroke="none" />
</svg>