<?xml version="1.0" encoding="utf-8"?>
<svg version="1.1" xmlns:xlink="http://www.w3.org/1999/xlink" width="12px" height="12px" viewBox="98 387  12 12" xmlns="http://www.w3.org/2000/svg">
  <path d="M 104 387  C 107.36 387  110 389.64  110 393  C 110 396.36  107.36 399  104 399  C 100.64 399  98 396.36  98 393  C 98 389.64  100.64 387  104 387  Z " fill-rule="nonzero" fill="#f0f0f0" stroke="none" />
  <path d="M 104 387.5  C 107.08 387.5  109.5 389.92  109.5 393  C 109.5 396.08  107.08 398.5  104 398.5  C 100.92 398.5  98.5 396.08  98.5 393  C 98.5 389.92  100.92 387.5  104 387.5  Z " stroke-width="1" stroke="#797979" fill="none" />
  <path d="M 104 396  C 102.32 396  101 394.68  101 393  C 101 391.32  102.32 390  104 390  C 105.68 390  107 391.32  107 393  C 107 394.68  105.68 396  104 396  " fill-rule="nonzero" fill="#797979" stroke="none" />
</svg>