<?xml version="1.0" encoding="utf-8"?>
<svg version="1.1" xmlns:xlink="http://www.w3.org/1999/xlink" width="12px" height="12px" viewBox="98 508  12 12" xmlns="http://www.w3.org/2000/svg">
  <path d="M 104 508  C 107.36 508  110 510.64  110 514  C 110 517.36  107.36 520  104 520  C 100.64 520  98 517.36  98 514  C 98 510.64  100.64 508  104 508  Z " fill-rule="nonzero" fill="#ffffff" stroke="none" />
  <path d="M 104 508.5  C 107.08 508.5  109.5 510.92  109.5 514  C 109.5 517.08  107.08 519.5  104 519.5  C 100.92 519.5  98.5 517.08  98.5 514  C 98.5 510.92  100.92 508.5  104 508.5  Z " stroke-width="1" stroke="#797979" fill="none" />
  <path d="M 104 517  C 102.32 517  101 515.68  101 514  C 101 512.32  102.32 511  104 511  C 105.68 511  107 512.32  107 514  C 107 515.68  105.68 517  104 517  " fill-rule="nonzero" fill="#797979" stroke="none" />
</svg>