<?xml version="1.0" encoding="utf-8"?>
<svg version="1.1" xmlns:xlink="http://www.w3.org/1999/xlink" width="12px" height="12px" viewBox="98 112  12 12" xmlns="http://www.w3.org/2000/svg">
  <path d="M 104 112  C 107.36 112  110 114.64  110 118  C 110 121.36  107.36 124  104 124  C 100.64 124  98 121.36  98 118  C 98 114.64  100.64 112  104 112  Z " fill-rule="nonzero" fill="#ffffff" stroke="none" />
  <path d="M 104 112.5  C 107.08 112.5  109.5 114.92  109.5 118  C 109.5 121.08  107.08 123.5  104 123.5  C 100.92 123.5  98.5 121.08  98.5 118  C 98.5 114.92  100.92 112.5  104 112.5  Z " stroke-width="1" stroke="#797979" fill="none" />
  <path d="M 104 121  C 102.32 121  101 119.68  101 118  C 101 116.32  102.32 115  104 115  C 105.68 115  107 116.32  107 118  C 107 119.68  105.68 121  104 121  " fill-rule="nonzero" fill="#797979" stroke="none" />
</svg>