<?xml version="1.0" encoding="utf-8"?>
<svg version="1.1" xmlns:xlink="http://www.w3.org/1999/xlink" width="12px" height="12px" viewBox="98 246  12 12" xmlns="http://www.w3.org/2000/svg">
  <path d="M 104 246  C 107.36 246  110 248.64  110 252  C 110 255.36  107.36 258  104 258  C 100.64 258  98 255.36  98 252  C 98 248.64  100.64 246  104 246  Z " fill-rule="nonzero" fill="#ffffff" stroke="none" />
  <path d="M 104 246.5  C 107.08 246.5  109.5 248.92  109.5 252  C 109.5 255.08  107.08 257.5  104 257.5  C 100.92 257.5  98.5 255.08  98.5 252  C 98.5 248.92  100.92 246.5  104 246.5  Z " stroke-width="1" stroke="#797979" fill="none" />
  <path d="M 104 255  C 102.32 255  101 253.68  101 252  C 101 250.32  102.32 249  104 249  C 105.68 249  107 250.32  107 252  C 107 253.68  105.68 255  104 255  " fill-rule="nonzero" fill="#797979" stroke="none" />
</svg>