<?xml version="1.0" encoding="utf-8"?>
<svg version="1.1" xmlns:xlink="http://www.w3.org/1999/xlink" width="12px" height="12px" viewBox="98 271  12 12" xmlns="http://www.w3.org/2000/svg">
  <path d="M 104 271  C 107.36 271  110 273.64  110 277  C 110 280.36  107.36 283  104 283  C 100.64 283  98 280.36  98 277  C 98 273.64  100.64 271  104 271  Z " fill-rule="nonzero" fill="#ffffff" stroke="none" />
  <path d="M 104 271.5  C 107.08 271.5  109.5 273.92  109.5 277  C 109.5 280.08  107.08 282.5  104 282.5  C 100.92 282.5  98.5 280.08  98.5 277  C 98.5 273.92  100.92 271.5  104 271.5  Z " stroke-width="1" stroke="#797979" fill="none" />
  <path d="M 104 280  C 102.32 280  101 278.68  101 277  C 101 275.32  102.32 274  104 274  C 105.68 274  107 275.32  107 277  C 107 278.68  105.68 280  104 280  " fill-rule="nonzero" fill="#797979" stroke="none" />
</svg>