<?xml version="1.0" encoding="utf-8"?>
<svg version="1.1" xmlns:xlink="http://www.w3.org/1999/xlink" width="12px" height="12px" viewBox="176 271  12 12" xmlns="http://www.w3.org/2000/svg">
  <path d="M 182 271  C 185.36 271  188 273.64  188 277  C 188 280.36  185.36 283  182 283  C 178.64 283  176 280.36  176 277  C 176 273.64  178.64 271  182 271  Z " fill-rule="nonzero" fill="#f0f0f0" stroke="none" />
  <path d="M 182 271.5  C 185.08 271.5  187.5 273.92  187.5 277  C 187.5 280.08  185.08 282.5  182 282.5  C 178.92 282.5  176.5 280.08  176.5 277  C 176.5 273.92  178.92 271.5  182 271.5  Z " stroke-width="1" stroke="#797979" fill="none" />
  <path d="M 182 280  C 180.32 280  179 278.68  179 277  C 179 275.32  180.32 274  182 274  C 183.68 274  185 275.32  185 277  C 185 278.68  183.68 280  182 280  " fill-rule="nonzero" fill="#797979" stroke="none" />
</svg>