<?xml version="1.0" encoding="utf-8"?>
<svg version="1.1" xmlns:xlink="http://www.w3.org/1999/xlink" width="12px" height="12px" viewBox="176 325  12 12" xmlns="http://www.w3.org/2000/svg">
  <path d="M 182 325  C 185.36 325  188 327.64  188 331  C 188 334.36  185.36 337  182 337  C 178.64 337  176 334.36  176 331  C 176 327.64  178.64 325  182 325  Z " fill-rule="nonzero" fill="#ffffff" stroke="none" />
  <path d="M 182 325.5  C 185.08 325.5  187.5 327.92  187.5 331  C 187.5 334.08  185.08 336.5  182 336.5  C 178.92 336.5  176.5 334.08  176.5 331  C 176.5 327.92  178.92 325.5  182 325.5  Z " stroke-width="1" stroke="#797979" fill="none" />
  <path d="M 182 334  C 180.32 334  179 332.68  179 331  C 179 329.32  180.32 328  182 328  C 183.68 328  185 329.32  185 331  C 185 332.68  183.68 334  182 334  " fill-rule="nonzero" fill="#797979" stroke="none" />
</svg>