<?xml version="1.0" encoding="utf-8"?>
<svg version="1.1" xmlns:xlink="http://www.w3.org/1999/xlink" width="12px" height="12px" viewBox="98 348  12 12" xmlns="http://www.w3.org/2000/svg">
  <path d="M 104 348  C 107.36 348  110 350.64  110 354  C 110 357.36  107.36 360  104 360  C 100.64 360  98 357.36  98 354  C 98 350.64  100.64 348  104 348  Z " fill-rule="nonzero" fill="#ffffff" stroke="none" />
  <path d="M 104 348.5  C 107.08 348.5  109.5 350.92  109.5 354  C 109.5 357.08  107.08 359.5  104 359.5  C 100.92 359.5  98.5 357.08  98.5 354  C 98.5 350.92  100.92 348.5  104 348.5  Z " stroke-width="1" stroke="#797979" fill="none" />
  <path d="M 104 357  C 102.32 357  101 355.68  101 354  C 101 352.32  102.32 351  104 351  C 105.68 351  107 352.32  107 354  C 107 355.68  105.68 357  104 357  " fill-rule="nonzero" fill="#797979" stroke="none" />
</svg>