<?xml version="1.0" encoding="utf-8"?>
<svg version="1.1" xmlns:xlink="http://www.w3.org/1999/xlink" width="12px" height="12px" viewBox="176 348  12 12" xmlns="http://www.w3.org/2000/svg">
  <path d="M 182 348  C 185.36 348  188 350.64  188 354  C 188 357.36  185.36 360  182 360  C 178.64 360  176 357.36  176 354  C 176 350.64  178.64 348  182 348  Z " fill-rule="nonzero" fill="#f0f0f0" stroke="none" />
  <path d="M 182 348.5  C 185.08 348.5  187.5 350.92  187.5 354  C 187.5 357.08  185.08 359.5  182 359.5  C 178.92 359.5  176.5 357.08  176.5 354  C 176.5 350.92  178.92 348.5  182 348.5  Z " stroke-width="1" stroke="#797979" fill="none" />
  <path d="M 182 357  C 180.32 357  179 355.68  179 354  C 179 352.32  180.32 351  182 351  C 183.68 351  185 352.32  185 354  C 185 355.68  183.68 357  182 357  " fill-rule="nonzero" fill="#797979" stroke="none" />
</svg>