<?xml version="1.0" encoding="utf-8"?>
<svg version="1.1" xmlns:xlink="http://www.w3.org/1999/xlink" width="12px" height="12px" viewBox="176 431  12 12" xmlns="http://www.w3.org/2000/svg">
  <path d="M 182 431  C 185.36 431  188 433.64  188 437  C 188 440.36  185.36 443  182 443  C 178.64 443  176 440.36  176 437  C 176 433.64  178.64 431  182 431  Z " fill-rule="nonzero" fill="#f0f0f0" stroke="none" />
  <path d="M 182 431.5  C 185.08 431.5  187.5 433.92  187.5 437  C 187.5 440.08  185.08 442.5  182 442.5  C 178.92 442.5  176.5 440.08  176.5 437  C 176.5 433.92  178.92 431.5  182 431.5  Z " stroke-width="1" stroke="#797979" fill="none" />
  <path d="M 182 440  C 180.32 440  179 438.68  179 437  C 179 435.32  180.32 434  182 434  C 183.68 434  185 435.32  185 437  C 185 438.68  183.68 440  182 440  " fill-rule="nonzero" fill="#797979" stroke="none" />
</svg>