<?xml version="1.0" encoding="utf-8"?>
<svg version="1.1" xmlns:xlink="http://www.w3.org/1999/xlink" width="12px" height="12px" viewBox="98 552  12 12" xmlns="http://www.w3.org/2000/svg">
  <path d="M 104 552  C 107.36 552  110 554.64  110 558  C 110 561.36  107.36 564  104 564  C 100.64 564  98 561.36  98 558  C 98 554.64  100.64 552  104 552  Z " fill-rule="nonzero" fill="#ffffff" stroke="none" />
  <path d="M 104 552.5  C 107.08 552.5  109.5 554.92  109.5 558  C 109.5 561.08  107.08 563.5  104 563.5  C 100.92 563.5  98.5 561.08  98.5 558  C 98.5 554.92  100.92 552.5  104 552.5  Z " stroke-width="1" stroke="#797979" fill="none" />
  <path d="M 104 561  C 102.32 561  101 559.68  101 558  C 101 556.32  102.32 555  104 555  C 105.68 555  107 556.32  107 558  C 107 559.68  105.68 561  104 561  " fill-rule="nonzero" fill="#797979" stroke="none" />
</svg>