<?xml version="1.0" encoding="utf-8"?>
<svg version="1.1" xmlns:xlink="http://www.w3.org/1999/xlink" width="12px" height="12px" viewBox="169 552  12 12" xmlns="http://www.w3.org/2000/svg">
  <path d="M 175 552  C 178.36 552  181 554.64  181 558  C 181 561.36  178.36 564  175 564  C 171.64 564  169 561.36  169 558  C 169 554.64  171.64 552  175 552  Z " fill-rule="nonzero" fill="#ffffff" stroke="none" />
  <path d="M 175 552.5  C 178.08 552.5  180.5 554.92  180.5 558  C 180.5 561.08  178.08 563.5  175 563.5  C 171.92 563.5  169.5 561.08  169.5 558  C 169.5 554.92  171.92 552.5  175 552.5  Z " stroke-width="1" stroke="#797979" fill="none" />
  <path d="M 175 561  C 173.32 561  172 559.68  172 558  C 172 556.32  173.32 555  175 555  C 176.68 555  178 556.32  178 558  C 178 559.68  176.68 561  175 561  " fill-rule="nonzero" fill="#797979" stroke="none" />
</svg>