<?xml version="1.0" encoding="utf-8"?>
<svg version="1.1" xmlns:xlink="http://www.w3.org/1999/xlink" width="12px" height="12px" viewBox="98 137  12 12" xmlns="http://www.w3.org/2000/svg">
  <path d="M 104 137  C 107.36 137  110 139.64  110 143  C 110 146.36  107.36 149  104 149  C 100.64 149  98 146.36  98 143  C 98 139.64  100.64 137  104 137  Z " fill-rule="nonzero" fill="#f0f0f0" stroke="none" />
  <path d="M 104 137.5  C 107.08 137.5  109.5 139.92  109.5 143  C 109.5 146.08  107.08 148.5  104 148.5  C 100.92 148.5  98.5 146.08  98.5 143  C 98.5 139.92  100.92 137.5  104 137.5  Z " stroke-width="1" stroke="#797979" fill="none" />
  <path d="M 104 146  C 102.32 146  101 144.68  101 143  C 101 141.32  102.32 140  104 140  C 105.68 140  107 141.32  107 143  C 107 144.68  105.68 146  104 146  " fill-rule="nonzero" fill="#797979" stroke="none" />
</svg>