<?xml version="1.0" encoding="utf-8"?>
<svg version="1.1" xmlns:xlink="http://www.w3.org/1999/xlink" width="12px" height="12px" viewBox="176 137  12 12" xmlns="http://www.w3.org/2000/svg">
  <path d="M 182 137  C 185.36 137  188 139.64  188 143  C 188 146.36  185.36 149  182 149  C 178.64 149  176 146.36  176 143  C 176 139.64  178.64 137  182 137  Z " fill-rule="nonzero" fill="#ffffff" stroke="none" />
  <path d="M 182 137.5  C 185.08 137.5  187.5 139.92  187.5 143  C 187.5 146.08  185.08 148.5  182 148.5  C 178.92 148.5  176.5 146.08  176.5 143  C 176.5 139.92  178.92 137.5  182 137.5  Z " stroke-width="1" stroke="#797979" fill="none" />
  <path d="M 182 146  C 180.32 146  179 144.68  179 143  C 179 141.32  180.32 140  182 140  C 183.68 140  185 141.32  185 143  C 185 144.68  183.68 146  182 146  " fill-rule="nonzero" fill="#797979" stroke="none" />
</svg>