<?xml version="1.0" encoding="utf-8"?>
<svg version="1.1" xmlns:xlink="http://www.w3.org/1999/xlink" width="12px" height="12px" viewBox="98 162  12 12" xmlns="http://www.w3.org/2000/svg">
  <path d="M 104 162  C 107.36 162  110 164.64  110 168  C 110 171.36  107.36 174  104 174  C 100.64 174  98 171.36  98 168  C 98 164.64  100.64 162  104 162  Z " fill-rule="nonzero" fill="#ffffff" stroke="none" />
  <path d="M 104 162.5  C 107.08 162.5  109.5 164.92  109.5 168  C 109.5 171.08  107.08 173.5  104 173.5  C 100.92 173.5  98.5 171.08  98.5 168  C 98.5 164.92  100.92 162.5  104 162.5  Z " stroke-width="1" stroke="#797979" fill="none" />
  <path d="M 104 171  C 102.32 171  101 169.68  101 168  C 101 166.32  102.32 165  104 165  C 105.68 165  107 166.32  107 168  C 107 169.68  105.68 171  104 171  " fill-rule="nonzero" fill="#797979" stroke="none" />
</svg>