<?xml version="1.0" encoding="utf-8"?>
<svg version="1.1" xmlns:xlink="http://www.w3.org/1999/xlink" width="12px" height="12px" viewBox="176 162  12 12" xmlns="http://www.w3.org/2000/svg">
  <path d="M 182 162  C 185.36 162  188 164.64  188 168  C 188 171.36  185.36 174  182 174  C 178.64 174  176 171.36  176 168  C 176 164.64  178.64 162  182 162  Z " fill-rule="nonzero" fill="#f0f0f0" stroke="none" />
  <path d="M 182 162.5  C 185.08 162.5  187.5 164.92  187.5 168  C 187.5 171.08  185.08 173.5  182 173.5  C 178.92 173.5  176.5 171.08  176.5 168  C 176.5 164.92  178.92 162.5  182 162.5  Z " stroke-width="1" stroke="#797979" fill="none" />
  <path d="M 182 171  C 180.32 171  179 169.68  179 168  C 179 166.32  180.32 165  182 165  C 183.68 165  185 166.32  185 168  C 185 169.68  183.68 171  182 171  " fill-rule="nonzero" fill="#797979" stroke="none" />
</svg>