<?xml version="1.0" encoding="utf-8"?>
<svg version="1.1" xmlns:xlink="http://www.w3.org/1999/xlink" width="12px" height="12px" viewBox="176 216  12 12" xmlns="http://www.w3.org/2000/svg">
  <path d="M 182 216  C 185.36 216  188 218.64  188 222  C 188 225.36  185.36 228  182 228  C 178.64 228  176 225.36  176 222  C 176 218.64  178.64 216  182 216  Z " fill-rule="nonzero" fill="#f0f0f0" stroke="none" />
  <path d="M 182 216.5  C 185.08 216.5  187.5 218.92  187.5 222  C 187.5 225.08  185.08 227.5  182 227.5  C 178.92 227.5  176.5 225.08  176.5 222  C 176.5 218.92  178.92 216.5  182 216.5  Z " stroke-width="1" stroke="#797979" fill="none" />
  <path d="M 182 225  C 180.32 225  179 223.68  179 222  C 179 220.32  180.32 219  182 219  C 183.68 219  185 220.32  185 222  C 185 223.68  183.68 225  182 225  " fill-rule="nonzero" fill="#797979" stroke="none" />
</svg>