<?xml version="1.0" encoding="utf-8"?>
<svg version="1.1" xmlns:xlink="http://www.w3.org/1999/xlink" width="12px" height="12px" viewBox="98 239  12 12" xmlns="http://www.w3.org/2000/svg">
  <path d="M 104 239  C 107.36 239  110 241.64  110 245  C 110 248.36  107.36 251  104 251  C 100.64 251  98 248.36  98 245  C 98 241.64  100.64 239  104 239  Z " fill-rule="nonzero" fill="#f0f0f0" stroke="none" />
  <path d="M 104 239.5  C 107.08 239.5  109.5 241.92  109.5 245  C 109.5 248.08  107.08 250.5  104 250.5  C 100.92 250.5  98.5 248.08  98.5 245  C 98.5 241.92  100.92 239.5  104 239.5  Z " stroke-width="1" stroke="#797979" fill="none" />
  <path d="M 104 248  C 102.32 248  101 246.68  101 245  C 101 243.32  102.32 242  104 242  C 105.68 242  107 243.32  107 245  C 107 246.68  105.68 248  104 248  " fill-rule="nonzero" fill="#797979" stroke="none" />
</svg>