<?xml version="1.0" encoding="utf-8"?>
<svg version="1.1" xmlns:xlink="http://www.w3.org/1999/xlink" width="12px" height="12px" viewBox="176 239  12 12" xmlns="http://www.w3.org/2000/svg">
  <path d="M 182 239  C 185.36 239  188 241.64  188 245  C 188 248.36  185.36 251  182 251  C 178.64 251  176 248.36  176 245  C 176 241.64  178.64 239  182 239  Z " fill-rule="nonzero" fill="#f0f0f0" stroke="none" />
  <path d="M 182 239.5  C 185.08 239.5  187.5 241.92  187.5 245  C 187.5 248.08  185.08 250.5  182 250.5  C 178.92 250.5  176.5 248.08  176.5 245  C 176.5 241.92  178.92 239.5  182 239.5  Z " stroke-width="1" stroke="#797979" fill="none" />
  <path d="M 182 248  C 180.32 248  179 246.68  179 245  C 179 243.32  180.32 242  182 242  C 183.68 242  185 243.32  185 245  C 185 246.68  183.68 248  182 248  " fill-rule="nonzero" fill="#797979" stroke="none" />
</svg>