<?xml version="1.0" encoding="utf-8"?>
<svg version="1.1" xmlns:xlink="http://www.w3.org/1999/xlink" width="12px" height="12px" viewBox="98 322  12 12" xmlns="http://www.w3.org/2000/svg">
  <path d="M 104 322  C 107.36 322  110 324.64  110 328  C 110 331.36  107.36 334  104 334  C 100.64 334  98 331.36  98 328  C 98 324.64  100.64 322  104 322  Z " fill-rule="nonzero" fill="#ffffff" stroke="none" />
  <path d="M 104 322.5  C 107.08 322.5  109.5 324.92  109.5 328  C 109.5 331.08  107.08 333.5  104 333.5  C 100.92 333.5  98.5 331.08  98.5 328  C 98.5 324.92  100.92 322.5  104 322.5  Z " stroke-width="1" stroke="#797979" fill="none" />
  <path d="M 104 331  C 102.32 331  101 329.68  101 328  C 101 326.32  102.32 325  104 325  C 105.68 325  107 326.32  107 328  C 107 329.68  105.68 331  104 331  " fill-rule="nonzero" fill="#797979" stroke="none" />
</svg>