<?xml version="1.0" encoding="utf-8"?>
<svg version="1.1" xmlns:xlink="http://www.w3.org/1999/xlink" width="12px" height="12px" viewBox="176 322  12 12" xmlns="http://www.w3.org/2000/svg">
  <path d="M 182 322  C 185.36 322  188 324.64  188 328  C 188 331.36  185.36 334  182 334  C 178.64 334  176 331.36  176 328  C 176 324.64  178.64 322  182 322  Z " fill-rule="nonzero" fill="#f0f0f0" stroke="none" />
  <path d="M 182 322.5  C 185.08 322.5  187.5 324.92  187.5 328  C 187.5 331.08  185.08 333.5  182 333.5  C 178.92 333.5  176.5 331.08  176.5 328  C 176.5 324.92  178.92 322.5  182 322.5  Z " stroke-width="1" stroke="#797979" fill="none" />
  <path d="M 182 331  C 180.32 331  179 329.68  179 328  C 179 326.32  180.32 325  182 325  C 183.68 325  185 326.32  185 328  C 185 329.68  183.68 331  182 331  " fill-rule="nonzero" fill="#797979" stroke="none" />
</svg>