<?xml version="1.0" encoding="utf-8"?>
<svg version="1.1" xmlns:xlink="http://www.w3.org/1999/xlink" width="12px" height="12px" viewBox="169 443  12 12" xmlns="http://www.w3.org/2000/svg">
  <path d="M 175 443  C 178.36 443  181 445.64  181 449  C 181 452.36  178.36 455  175 455  C 171.64 455  169 452.36  169 449  C 169 445.64  171.64 443  175 443  Z " fill-rule="nonzero" fill="#ffffff" stroke="none" />
  <path d="M 175 443.5  C 178.08 443.5  180.5 445.92  180.5 449  C 180.5 452.08  178.08 454.5  175 454.5  C 171.92 454.5  169.5 452.08  169.5 449  C 169.5 445.92  171.92 443.5  175 443.5  Z " stroke-width="1" stroke="#797979" fill="none" />
  <path d="M 175 452  C 173.32 452  172 450.68  172 449  C 172 447.32  173.32 446  175 446  C 176.68 446  178 447.32  178 449  C 178 450.68  176.68 452  175 452  " fill-rule="nonzero" fill="#797979" stroke="none" />
</svg>