<?xml version="1.0" encoding="utf-8"?>
<svg version="1.1" xmlns:xlink="http://www.w3.org/1999/xlink" width="16px" height="16px" xmlns="http://www.w3.org/2000/svg">
  <g transform="matrix(1 0 0 1 -397 -19 )">
    <path d="M 0.977558196843535 0.0915933796622974  C 1.20415762000118 0.0915933796622974  1.42333242244499 0.170693354030909  1.59571428571429 0.314685314685315  L 1.64809524553571 0.361771569055943  L 8.11952381696429 6.6979020979021  L 14.3528571428571 0.595338002622378  C 14.5317208270176 0.418524080058006  14.7753581968193 0.319046667039848  15.0295423546855 0.319046667039848  C 15.5555278348241 0.319046667039848  15.981923314507 0.736496787009062  15.981923314507 1.25144760672516  C 15.981923314507 1.47636705239269  15.8988782012014 1.69370591365718  15.7480952455357 1.86340325611888  L 15.7004761830357 1.91468531468532  L 9.46619046875 8.0163170236014  L 15.7 14.1188811188811  C 15.8809189701141 14.2940309623665  15.9827293781718 14.5327727760127  15.9827293781718 14.7818715321751  C 15.9827293781718 15.2968223518912  15.556333898489 15.7142724718604  15.0303484183504 15.7142724718604  C 14.8005904118466 15.7142724718604  14.5785773708786 15.6329562414768  14.4052381026786 15.4853146853147  L 14.3528571428571 15.4377622377622  L 8.11952381696429 9.33519814248251  L 1.64809524553572 15.6717948645105  C 1.46948218487551 15.846705448737  1.22720351297099 15.9449729461537  0.974574248727542 15.9449729461537  C 0.448588768588953 15.9449729461537  0.022193288906113 15.5275228261845  0.022193288906113 15.0125720064684  C 0.022193288906113 14.7892817767589  0.104041961741825 14.5734058001466  0.252857142857144 14.4041958041958  L 0.300952388392859 14.3529137456294  L 6.77285714285714 8.0163170236014  L 0.301428571428572 1.68065268793706  C 0.124471685116643 1.50601340219283  0.0251772370221058 1.2699872833115  0.0251772370221058 1.02399431934761  C 0.0251772370221058 0.509043499631511  0.451572716704946 0.0915933796622974  0.977558196843535 0.0915933796622974  Z " fill-rule="nonzero" fill="#111111" stroke="none" transform="matrix(1 0 0 1 397 19 )" />
  </g>
</svg>