<?xml version="1.0" encoding="utf-8"?>
<svg version="1.1" xmlns:xlink="http://www.w3.org/1999/xlink" width="16px" height="16px" xmlns="http://www.w3.org/2000/svg">
  <g transform="matrix(1 0 0 1 -236 -149 )">
    <path d="M 15.9067961165049 8  C 15.8820970873786 3.60340194174757  12.3252970873786 0.0466019417475732  7.95339805825243 0.0466019417475732  C 3.5568 0.0466019417475732  0 3.60340194174757  0 8  C 0 12.3965980582524  3.5568 15.9533980582524  7.95339805825243 15.9533980582524  C 12.3499961165049 15.9533980582524  15.9067961165049 12.3965980582524  15.9067961165049 8  Z M 8.42269514563107 11.2603961165049  L 8.42269514563107 12.6683029126214  L 7.01480388349515 12.6683029126214  L 7.01480388349515 11.2603961165049  L 8.42269514563107 11.2603961165049  Z M 10.0775922330097 7.11080388349515  C 9.92939805825243 7.3824932038835  9.63300970873786 7.70359611650485  9.21309514563107 8.12349514563107  C 8.76851262135922 8.54339417475728  8.49679223300971 8.86449708737864  8.42269514563107 9.03740582524272  C 8.34859805825243 9.21029902912621  8.2992 9.50668737864078  8.2992 9.976  L 8.42269514563107 10.3464854368932  L 7.01480388349515 10.3464854368932  L 6.99010485436893 9.95130097087379  C 7.01480388349515 9.48200388349515  7.08890097087379 9.06210485436893  7.21239611650485 8.74100194174757  C 7.36059029126214 8.3952  7.65699417475728 8  8.10159223300971 7.53070291262136  C 8.52149126213592 7.11080388349515  8.76849708737864 6.78970097087379  8.8672932038835 6.6415067961165  C 8.94139029126214 6.49331262135922  8.99078834951457 6.32040388349515  8.99078834951457 6.07339805825243  C 8.99078834951457 5.72761165048544  8.89199223300971 5.4559067961165  8.66970097087379 5.25829902912621  C 8.44740970873787 5.0607067961165  8.15099029126214 4.93721165048544  7.75580582524272 4.93721165048544  C 6.91599223300971 4.93721165048544  6.61960388349515 5.52998834951456  6.54549126213593 6.5920932038835  L 5.1376 6.5920932038835  L 5.1376 6.44389902912621  C 5.16229902912622 5.94990291262136  5.21169708737864 5.57940194174757  5.33519223300971 5.28299805825243  C 5.45868737864078 4.98660970873786  5.63159611650486 4.71490485436893  5.90330097087379 4.46789902912621  C 6.17499029126214 4.22090873786408  6.47139417475729 4.04801553398058  6.79249708737864 3.94920388349515  C 7.11358446601942 3.85040776699029  7.43470291262136 3.77631067961165  7.78050485436894 3.77631067961165  C 8.49679223300971 3.77631067961165  9.11429902912622 3.99860194174757  9.58359611650486 4.41850097087379  C 10.0528932038835 4.8384  10.2998990291262 5.43120776699029  10.2998990291262 6.14749514563107  C 10.2998990291262 6.51799611650485  10.2258019417476 6.83909902912621  10.0776077669903 7.11080388349515  Z " fill-rule="nonzero" fill="#000000" stroke="none" transform="matrix(1 0 0 1 236 149 )" />
  </g>
</svg>