<?xml version="1.0" encoding="utf-8"?>
<svg version="1.1" xmlns:xlink="http://www.w3.org/1999/xlink" width="29px" height="29px" xmlns="http://www.w3.org/2000/svg">
  <defs>
    <filter x="173px" y="286px" width="29px" height="29px" filterUnits="userSpaceOnUse" id="filter1326">
      <feOffset dx="0" dy="0" in="SourceAlpha" result="shadowOffsetInner" />
      <feGaussianBlur stdDeviation="2.5" in="shadowOffsetInner" result="shadowGaussian" />
      <feComposite in2="shadowGaussian" operator="atop" in="SourceAlpha" result="shadowComposite" />
      <feColorMatrix type="matrix" values="0 0 0 0 0  0 0 0 0 0  0 0 0 0 0  0 0 0 0.349019607843137 0  " in="shadowComposite" />
    </filter>
    <g id="widget1327">
      <path d="M 187.5 291  C 192.82 291  197 295.18  197 300.5  C 197 305.82  192.82 310  187.5 310  C 182.18 310  178 305.82  178 300.5  C 178 295.18  182.18 291  187.5 291  Z " fill-rule="nonzero" fill="#2000ff" stroke="none" />
      <path d="M 187.5 291.5  C 192.54 291.5  196.5 295.46  196.5 300.5  C 196.5 305.54  192.54 309.5  187.5 309.5  C 182.46 309.5  178.5 305.54  178.5 300.5  C 178.5 295.46  182.46 291.5  187.5 291.5  Z " stroke-width="1" stroke="#797979" fill="none" />
    </g>
  </defs>
  <g transform="matrix(1 0 0 1 -173 -286 )">
    <use xlink:href="#widget1327" filter="url(#filter1326)" />
    <use xlink:href="#widget1327" />
  </g>
</svg>