<?xml version="1.0" encoding="utf-8"?>
<svg version="1.1" xmlns:xlink="http://www.w3.org/1999/xlink" width="12px" height="12px" xmlns="http://www.w3.org/2000/svg">
  <g transform="matrix(1 0 0 1 -344 -314 )">
    <path d="M 11.2393846153846 9.58892307692308  L 7.62830769230769 6  L 11.2172307692308 2.41107692307692  C 11.6713846153846 1.95692307692308  11.6713846153846 1.23692307692308  11.2172307692308 0.78276923076923  C 10.7630769230769 0.328615384615383  10.0430769230769 0.328615384615384  9.58892307692308 0.78276923076923  L 6 4.37169230769231  L 2.41107692307692 0.782769230769231  C 1.95692307692308 0.328615384615385  1.23692307692308 0.328615384615385  0.782769230769231 0.782769230769231  C 0.328615384615385 1.23692307692308  0.328615384615385 1.95692307692308  0.782769230769231 2.41107692307692  L 4.37169230769231 6  L 0.78276923076923 9.58892307692308  C 0.328615384615384 10.0430769230769  0.328615384615384 10.7630769230769  0.78276923076923 11.2172307692308  C 0.993230769230768 11.4387692307692  1.29230769230769 11.5495384615385  1.60246153846154 11.5495384615385  C 1.91261538461538 11.5495384615385  2.20061538461538 11.4276923076923  2.42215384615384 11.2172307692308  L 6.01107692307692 7.62830769230769  L 9.6 11.2172307692308  C 9.81046153846154 11.4387692307692  10.1095384615385 11.5495384615385  10.4196923076923 11.5495384615385  C 10.7298461538462 11.5495384615385  11.0178461538462 11.4276923076923  11.2393846153846 11.2172307692308  C 11.6935384615385 10.7630769230769  11.6935384615385 10.0430769230769  11.2393846153846 9.58892307692308  Z " fill-rule="nonzero" fill="#000000" stroke="none" transform="matrix(1 0 0 1 344 314 )" />
  </g>
</svg>