<?xml version="1.0" encoding="utf-8"?>
<svg version="1.1" xmlns:xlink="http://www.w3.org/1999/xlink" width="10px" height="9px" xmlns="http://www.w3.org/2000/svg">
  <g transform="matrix(1 0 0 1 -254 -228 )">
    <path d="M 0.440000000000001 4.48  C 0.440000000000001 2.09428  2.37428 0.160000000000004  4.76 0.160000000000004  C 7.14572 0.160000000000004  9.08 2.09428  9.08 4.48  C 9.08 6.86572  7.14572 8.8  4.76 8.8  C 2.37428 8.8  0.440000000000001 6.86572  0.440000000000001 4.48  Z M 3.869 3.48352  L 3.8258 3.4432  C 3.66182597940707 3.30000680406286  3.45150780178728 3.22110070693454  3.23381129103871 3.22110070693454  C 2.73675501619099 3.22110070693454  2.33381129103871 3.62404443208682  2.33381129103871 4.12110070693453  C 2.33381129103871 4.35929769050179  2.42823840996746 4.58778061464763  2.5964 4.75648  L 4.12352 6.2836  L 4.16672000000001 6.32428  C 4.52334822358365 6.63680237501273  5.06128505806898 6.61900762609679  5.39648 6.2836  L 6.9236 4.75648  L 6.96428 4.71328  C 7.27680237501273 4.35665177641635  7.2590076260968 3.81871494193103  6.9236 3.48352  L 6.8804 3.4432  C 6.52391932911788 3.13080694142848  5.98624585405997 3.1484407420746  5.651 3.48352  L 4.76 4.37452  L 3.869 3.48352  Z " fill-rule="nonzero" fill="#ff0065" stroke="none" transform="matrix(1 0 0 1 254 228 )" />
  </g>
</svg>