<?xml version="1.0" encoding="utf-8"?>
<svg version="1.1" xmlns:xlink="http://www.w3.org/1999/xlink" width="11px" height="12px" xmlns="http://www.w3.org/2000/svg">
  <g transform="matrix(1 0 0 1 -194 -490 )">
    <path d="M 3.70628761904762 0.702419999999999  C 4.07588761904762 0.431879999999999  4.64480761904762 0.277799999999999  5.41342476190476 0.24  C 8.63686476190476 0.267  10.3426819047619 2.12946  10.5310647619048 5.82756  C 10.5544476190476 6.28656  10.5442647619048 6.70992  10.5048533333333 7.10088  C 10.010691674384 6.73635818121641  9.403569100416 6.53904575695658  8.77904761904762 6.54  C 7.2169219047619 6.54  5.95047619047619 7.74888  5.95047619047619 9.24  C 5.95047619047619 10.13208  6.40380190476191 10.923  7.10245904761905 11.41476  C 6.18392761904762 11.71176  5.31857333333333 11.7591  4.85713904761905 11.76  C 3.53525333333333 11.76234  0.481904761904762 11.247  0.481904761904762 7.65996  C 0.560161904761905 6.96768  0.788521904761905 6.28476  1.16679619047619 5.61156  C 1.73439619047619 4.60122  2.02555047619048 3.53256  2.3052019047619 2.31  C 2.63821904761905 1.5504  3.00593333333333 1.1085  3.70628761904762 0.702419999999999  Z M 3.35045333333333 4.17336  C 3.09649800376857 4.11864825928026  2.84415751714204 4.27079393910278  2.78681333333333 4.5132  C 2.65500190476191 5.07012  2.4213619047619 5.4762  2.09098476190476 5.74584  C 1.98625649578417 5.83133885362118  1.92596119106545 5.95629672545078  1.92596119106545 6.08784  C 1.92596119106545 6.33638056352008  2.13703750488372 6.53786249943753  2.39741333333333 6.53786249943753  C 2.50977837378047 6.53786249943753  2.61844874357341 6.49955391448702  2.70384190476191 6.42984  C 3.19978476190476 6.02484  3.53261333333333 5.44704  3.70647619047619 4.71138  C 3.71419060879373 4.67881247046516  3.7180837649658 4.64552653690015  3.7180837649658 4.61213688304403  C 3.7180837649658 4.40178319088429  3.56541591778193 4.21949522836908  3.35045333333333 4.17318  Z " fill-rule="nonzero" fill="#2000ff" stroke="none" transform="matrix(1 0 0 1 194 490 )" />
  </g>
</svg>