<?xml version="1.0" encoding="utf-8"?>
<svg version="1.1" xmlns:xlink="http://www.w3.org/1999/xlink" width="5px" height="5px" xmlns="http://www.w3.org/2000/svg">
  <g transform="matrix(1 0 0 1 -200 -497 )">
    <path d="M 0.220000000000001 2.48888888888889  C 0.220000000000001 1.16348888888889  1.18714 0.0888888888888909  2.38 0.0888888888888909  C 3.57286 0.0888888888888909  4.54 1.16348888888889  4.54 2.48888888888889  C 4.54 3.81428888888889  3.57286 4.88888888888889  2.38 4.88888888888889  C 1.18714 4.88888888888889  0.220000000000001 3.81428888888889  0.220000000000001 2.48888888888889  Z M 1.9345 1.93528888888889  L 1.9129 1.91288888888889  C 1.83091298970353 1.83333711336826  1.72575390089364 1.78950039274141  1.61690564551936 1.78950039274141  C 1.3683775080955 1.78950039274141  1.16690564551936 2.01335801782601  1.16690564551936 2.28950039274141  C 1.16690564551936 2.42183205027877  1.21411920498373 2.54876700813757  1.2982 2.64248888888889  L 2.06176 3.49088888888889  L 2.08336 3.51348888888889  C 2.26167411179183 3.68711243056263  2.53064252903449 3.67722645894266  2.69824 3.49088888888889  L 3.4618 2.64248888888889  L 3.48214 2.61848888888889  C 3.63840118750636 2.42036209800908  3.6295038130484 2.12150830107279  3.4618 1.93528888888889  L 3.4402 1.91288888888889  C 3.26195966455894 1.73933718968249  2.99312292702998 1.749133745597  2.8255 1.93528888888889  L 2.38 2.43028888888889  L 1.9345 1.93528888888889  Z " fill-rule="nonzero" fill="#ff0065" stroke="none" transform="matrix(1 0 0 1 200 497 )" />
  </g>
</svg>