<?xml version="1.0" encoding="utf-8"?>
<svg version="1.1" xmlns:xlink="http://www.w3.org/1999/xlink" width="9px" height="16px" xmlns="http://www.w3.org/2000/svg">
  <g transform="matrix(1 0 0 1 -333 -458 )">
    <path d="M 7.5470769296875 6.92967391304348  L 1.56392308353365 0.58883152173913  C 1.40616692962386 0.42735673617025  1.19541266679579 0.337106351460004  0.976090102347196 0.337106351460004  C 0.508772233454835 0.337106351460004  0.129936249582773 0.738590138715722  0.129936249582773 1.23384548890056  C 0.129936249582773 1.46627972839771  0.215095586950391 1.68963343085138  0.367461538461539 1.85682065917969  L 5.75238462199519 7.56366847125509  L 0.367461538461539 13.2705163043478  C 0.202374694253566 13.4394945794138  0.109140666883564 13.6722951638227  0.109140666883564 13.9155302715093  C 0.109140666883564 14.4107856216941  0.487976650755626 14.8122694089498  0.955294519647987 14.8122694089498  C 1.18480867254196 14.8122694089498  1.40447691629188 14.7134616082044  1.56392308353365 14.5385054417884  L 7.54453846814904 8.20124999299422  L 7.5470769296875 8.19766305048404  C 7.87740010903353 7.84748655082408  7.87740010903353 7.27985041270344  7.5470769296875 6.92967391304348  Z M 7.54453846814904 6.92698369565217  L 1.56476922415866 0.588831521739129  L 7.54453846814904 6.92698369565217  Z " fill-rule="nonzero" fill="#000000" stroke="none" transform="matrix(1 0 0 1 333 458 )" />
  </g>
</svg>