<?xml version="1.0" encoding="utf-8"?>
<svg version="1.1" xmlns:xlink="http://www.w3.org/1999/xlink" width="4px" height="6px" xmlns="http://www.w3.org/2000/svg">
  <g transform="matrix(1 0 0 1 -344 -104 )">
    <path d="M 2.83015384863281 2.30989130434783  L 0.58647115632512 0.196277173913043  C 0.527312598608948 0.142452245390083  0.448279750048421 0.112368783820001  0.366033788380198 0.112368783820001  C 0.190789587545563 0.112368783820001  0.0487260935935398 0.246196712905241  0.0487260935935398 0.41128182963352  C 0.0487260935935398 0.488759909465904  0.0806608451063966 0.563211143617126  0.137798076923077 0.618940219726563  L 2.1571442332482 2.5212228237517  L 0.137798076923077 4.42350543478261  C 0.0758905103450872 4.47983152647128  0.0409277500813365 4.55743172127424  0.0409277500813365 4.63851009050309  C 0.0409277500813365 4.80359520723137  0.18299124403336 4.93742313631661  0.358235444867995 4.93742313631661  C 0.444303252203236 4.93742313631661  0.526678843609455 4.90448720273481  0.58647115632512 4.84616848059613  L 2.82920192555589 2.73374999766474  L 2.83015384863281 2.73255435016134  C 2.95402504088757 2.61582885027469  2.95402504088757 2.42661680423448  2.83015384863281 2.30989130434783  Z M 2.82920192555589 2.30899456521739  L 0.586788459059496 0.196277173913043  L 2.82920192555589 2.30899456521739  Z " fill-rule="nonzero" fill="#000000" stroke="none" transform="matrix(1 0 0 1 344 104 )" />
  </g>
</svg>