<?xml version="1.0" encoding="utf-8"?>
<svg version="1.1" xmlns:xlink="http://www.w3.org/1999/xlink" width="8px" height="13px" xmlns="http://www.w3.org/2000/svg">
  <g transform="matrix(1 0 0 1 -348 -307 )">
    <path d="M 6.60369231347656 5.54373913043478  L 1.36843269809195 0.471065217391304  C 1.23039606342088 0.3418853889362  1.04598608344632 0.269685081168003  0.854078839553796 0.269685081168003  C 0.44517570427298 0.269685081168003  0.113694218384926 0.590872110972578  0.113694218384926 0.987076391120449  C 0.113694218384926 1.17302378271817  0.188208638581592 1.3517067446811  0.321528846153846 1.48545652734375  L 5.03333654424579 6.05093477700407  L 0.321528846153846 10.6164130434783  C 0.17707785747187 10.7515956635311  0.0954980835231184 10.9378361310582  0.0954980835231184 11.1324242172074  C 0.0954980835231184 11.5286284973553  0.426979569411173 11.8498155271599  0.835882704691989 11.8498155271599  C 1.03670758847422 11.8498155271599  1.22891730175539 11.7707692865636  1.36843269809195 11.6308043534307  L 6.60147115963041 6.56099999439538  L 6.60369231347656 6.55813044038723  C 6.89272509540434 6.27798924065926  6.89272509540434 5.82388033016275  6.60369231347656 5.54373913043478  Z M 6.60147115963041 5.54158695652174  L 1.36917307113882 0.471065217391303  L 6.60147115963041 5.54158695652174  Z " fill-rule="nonzero" fill="#555555" stroke="none" transform="matrix(1 0 0 1 348 307 )" />
  </g>
</svg>