<?xml version="1.0" encoding="utf-8"?>
<svg version="1.1" xmlns:xlink="http://www.w3.org/1999/xlink" width="15px" height="18px" xmlns="http://www.w3.org/2000/svg">
  <g transform="matrix(1 0 0 1 -25 -543 )">
    <path d="M 15 8.11764705193015  C 15 12.5033823529412  8.54166666015625 17.8235293979779  7.5 17.8235294186581  C 6.45833333984375 17.8235294186581  0 12.5033823529412  0 8.11764705193015  C 0 3.73191175091912  3.35791666015625 0.176470581341912  7.5 0.176470581341912  C 11.6420833398437 0.176470581341912  15 3.73191175091912  15 8.11764705193015  Z M 5.20833333984375 8.11764705193015  C 5.20833333984375 9.45772058134191  6.234375 10.5441176332721  7.5 10.5441176539522  C 8.765625 10.5441176539522  9.79166666015625 9.45772060202206  9.79166666015625 8.11764705193015  C 9.79166666015625 6.77757350183824  8.765625 5.69117647058824  7.5 5.69117647058824  C 6.234375 5.69117647058824  5.20833333984375 6.77757352251838  5.20833333984375 8.11764705193015  Z " fill-rule="nonzero" fill="#000000" stroke="none" transform="matrix(1 0 0 1 25 543 )" />
  </g>
</svg>