<?xml version="1.0" encoding="utf-8"?>
<svg version="1.1" xmlns:xlink="http://www.w3.org/1999/xlink" width="8px" height="4px" xmlns="http://www.w3.org/2000/svg">
  <g transform="matrix(1 0 0 1 -31 -583 )">
    <path d="M 4.50406758284601 2.72855101364522  C 5.47051333333333 2.46947368421053  6.25647824561404 1.69099415204678  6.59747888888889 0.641377524366472  C 6.65321550594593 0.47011573386815  6.81285324753928 0.35419025956673  6.99295647173489 0.35419025956673  C 7.22264850373484 0.35419025956673  7.40885068585237 0.540392441684263  7.40885068585237 0.770084473684209  C 7.40885068585237 0.813793092670396  7.40196057843635 0.857228500510052  7.3884340545809 0.898791423001949  C 6.96218323586745 2.20998050682261  5.96496426900585 3.19846653021443  4.7194801754386 3.5319818128655  C 3.47482779727096 3.86549707602339  2.11914230019493 3.50827810916179  1.0915659454191 2.586328791423  C 1.00081176218354 2.50734973442171  0.948709088315101 2.39293750777973  0.948709088315101 2.27262951461399  C 0.948709088315101 2.04295944679797  1.13489346494352 1.85677507016955  1.36456353275954 1.85677507016955  C 1.4693488205083 1.85677507016955  1.57027164420666 1.89633302462552  1.6471475048733 1.96753736842105  C 2.47053931773879 2.70609487329435  3.53803769980507 2.98721247563353  4.50406758284601 2.72855101364522  Z " fill-rule="nonzero" fill="#443c25" stroke="none" transform="matrix(1 0 0 1 31 583 )" />
  </g>
</svg>