<?xml version="1.0" encoding="utf-8"?>
<svg version="1.1" xmlns:xlink="http://www.w3.org/1999/xlink" width="7px" height="8px" xmlns="http://www.w3.org/2000/svg">
  <g transform="matrix(1 0 0 1 -25 -575 )">
    <path d="M 3.05445093567251 7.83087719298246  L 5.76706953216374 0.770916179337232  C 6.04569200779727 0.779233274853802  6.3201559454191 0.792956471734893  6.58380766081871 0.811254054580897  L 3.92441846003899 7.73024040935672  C 3.63040935672515 7.79178686159844  3.33847953216374 7.82588693957115  3.05445093567251 7.83087719298246  Z M 4.93827159844055 0.763430799220273  L 2.24810916179337 7.76267705653021  C 1.67423001949318 7.65039635477583  1.15732294346979 7.39672514619883  0.74729044834308 6.99251461988304  C -0.213333333333333 6.04436647173489  -0.136400253411306 3.68231319688109  0.354723840155945 2.69840155945419  L 0.536868089668616 2.33203378167641  L 0.603404814814815 2.20270306042885  L 0.669941520467836 2.08210526315789  C 0.980584795321637 1.53983105263158  1.3265756920078 1.26952567251462  2.51591943469786 0.998388557504874  C 3.18752436647173 0.845354113060429  4.0566601754386 0.773827153996101  4.93868746588694 0.763430799220273  Z " fill-rule="nonzero" fill="#ffffff" stroke="none" fill-opacity="0.152941176470588" transform="matrix(1 0 0 1 25 575 )" />
  </g>
</svg>