<?xml version="1.0" encoding="utf-8"?>
<svg version="1.1" xmlns:xlink="http://www.w3.org/1999/xlink" width="9px" height="8px" xmlns="http://www.w3.org/2000/svg">
  <g transform="matrix(1 0 0 1 -35 -575 )">
    <path d="M 1.84727744639376 0.997972709551656  C 3.08486029239766 0.756777134502923  5.35708900584795 0.659883040935672  6.94440545808967 0.903989610136453  L 4.53244964912281 7.17881740740741  C 4.42224822612086 7.12059777777778  4.31287849902534 7.05821961013645  4.20434048732943 6.99251461988304  C 4.04382066276803 6.89478883040936  3.89244964912281 6.80122157894737  3.75022742690058 6.70973358674464  L 3.47742690058479 6.53174789473684  C 3.34643274853801 6.4448343079922  3.2237556920078 6.36083171539961  3.10856399610136 6.27890838206628  L 2.88732943469785 6.11838855750487  C 2.55554455879859 5.87561532466664  2.243255918579 5.60726400385128  1.95332033138401 5.31578947368421  L 1.82232617933723 5.17855750487329  L 1.7599480116959 5.10994152046784  L 1.64059779727095 4.97312539961014  L 1.52665366471735 4.83589343079922  L 1.47176087719298 4.76727744639376  L 1.36363873294347 4.6283820662768  L 1.25801169590643 4.48699155945419  C 0.677894736842102 3.70310592592593  0.472046783625727 1.26661469785575  1.84727744639376 0.997972709551656  Z M 8.4522937037037 1.30903183235868  L 5.98835608187134 7.71942820662768  C 5.73431287994162 7.6632035879901  5.48458692797593 7.58899454049445  5.24106563352827 7.49736192982456  L 7.71456789473684 1.06284600389863  C 8.0181416374269 1.14102664717349  8.25767380116959 1.22087070175438  8.4522937037037 1.30820013645224  Z " fill-rule="nonzero" fill="#ffffff" stroke="none" fill-opacity="0.101960784313725" transform="matrix(1 0 0 1 35 575 )" />
  </g>
</svg>