<?xml version="1.0" encoding="utf-8"?>
<svg version="1.1" xmlns:xlink="http://www.w3.org/1999/xlink" width="12px" height="12px" viewBox="26 378  12 12" xmlns="http://www.w3.org/2000/svg">
  <path d="M 32 378  C 35.36 378  38 380.64  38 384  C 38 387.36  35.36 390  32 390  C 28.64 390  26 387.36  26 384  C 26 380.64  28.64 378  32 378  Z " fill-rule="nonzero" fill="#ffffff" stroke="none" />
  <path d="M 32 378.5  C 35.08 378.5  37.5 380.92  37.5 384  C 37.5 387.08  35.08 389.5  32 389.5  C 28.92 389.5  26.5 387.08  26.5 384  C 26.5 380.92  28.92 378.5  32 378.5  Z " stroke-width="1" stroke="#797979" fill="none" />
  <path d="M 32 387  C 30.32 387  29 385.68  29 384  C 29 382.32  30.32 381  32 381  C 33.68 381  35 382.32  35 384  C 35 385.68  33.68 387  32 387  " fill-rule="nonzero" fill="#797979" stroke="none" />
</svg>