<?xml version="1.0" encoding="utf-8"?>
<svg version="1.1" xmlns:xlink="http://www.w3.org/1999/xlink" width="34px" height="34px" xmlns="http://www.w3.org/2000/svg">
  <g transform="matrix(1 0 0 1 -323 -17 )">
    <path d="M 19.8819933035714 33.5927209821429  C 18.9168258928571 33.7498950892857  17.95784375 33.827875  17.0083482142857 33.827875  C 12.529265625 33.827875  8.289359375 32.0947477678571  5.07093303571429 28.8732857142857  C 1.16802901785714 24.9712165178571  -0.549919642857143 19.5726160714286  0.353660714285714 14.0634776785714  C 1.54233258928571 6.81039732142857  7.48110044642857 1.08951785714286  14.7983102678571 0.150837053571427  C 20.6192544642857 -0.603310267857144  26.3293191964286 1.64053794642857  30.0529263392857 6.13422991071428  C 30.5501763392857 6.73287276785714  30.4670357142857 7.62043973214286  29.866609375 8.117765625  C 29.26709375 8.61543303571428  28.3782745535714 8.53100223214286  27.8844017857143 7.932359375  C 24.7786383928571 4.18499776785714  20.0223191964286 2.32493973214286  15.1569799107143 2.94521205357143  C 9.06650223214286 3.72747767857143  4.1214375 8.48637723214286  3.134640625 14.5183035714286  C 2.37916517857143 19.1221160714286  3.81126339285714 23.6287857142857  7.0635 26.8806808035714  C 10.3166473214286 30.1329174107143  14.8233928571429 31.5675959821429  19.4245491071429 30.8107924107143  C 25.4699464285714 29.819328125  30.3500089285714 24.6559196428571  31.0284151785714 18.5334151785714  C 31.185171875 17.1256026785714  31.1375491071429 15.7190424107143  30.8871785714286 14.3537678571429  C 30.7884419642857 13.8213794642857  30.6601450892857 13.291609375  30.5008459821429 12.7769799107143  C 30.2729397321429 12.0327745535714  30.6914129464286 11.2440200892857  31.4356183035714 11.0169866071429  C 32.18153125 10.7852477678571  32.96725 11.2058459821429  33.195953125 11.9509620535714  C 33.3865711831959 12.5720744963904  33.5404946718832 13.2038602218534  33.6569263392857 13.843046875  C 33.96015625 15.480890625  34.017265625 17.163359375  33.8301897321429 18.8449174107143  C 33.0019709821429 26.3154308035714  27.2659129464286 32.3807120535714  19.8819933035714 33.5927209821429  Z " fill-rule="nonzero" fill="#555555" stroke="none" transform="matrix(1 0 0 1 323 17 )" />
  </g>
</svg>