<?xml version="1.0" encoding="utf-8"?>
<svg version="1.1" xmlns:xlink="http://www.w3.org/1999/xlink" width="16px" height="18px" xmlns="http://www.w3.org/2000/svg">
  <g transform="matrix(1 0 0 1 -154 -338 )">
    <path d="M 5.39096380952381 1.05363  C 5.92856380952381 0.647819999999998  6.75608380952381 0.416699999999998  7.87407238095238 0.36  C 12.5627123809524 0.4005  15.043900952381 3.19419  15.3179123809524 8.74134  C 15.3519238095238 9.42984  15.3371123809524 10.06488  15.2797866666667 10.65132  C 14.5610060718313 10.1045372718246  13.6779186915142 9.80856863543487  12.7695238095238 9.81  C 10.497340952381 9.81  8.6552380952381 11.62332  8.6552380952381 13.86  C 8.6552380952381 15.19812  9.31462095238095 16.3845  10.3308495238095 17.12214  C 8.99480380952381 17.56764  7.73610666666667 17.63865  7.06492952380952 17.64  C 5.14218666666667 17.64351  0.700952380952381 16.8705  0.700952380952381 11.48994  C 0.814780952380952 10.45152  1.14694095238095 9.42714  1.6971580952381 8.41734  C 2.5227580952381 6.90183  2.94625523809524 5.29884  3.35302095238095 3.465  C 3.83740952380952 2.3256  4.37226666666667 1.66275  5.39096380952381 1.05363  Z M 4.87338666666667 6.26004  C 4.50399709639065 6.1779723889204  4.13695638857024 6.40619090865416  4.05354666666667 6.7698  C 3.86182095238095 7.60518  3.52198095238095 8.2143  3.04143238095238 8.61876  C 2.88910035750424 8.74700828043177  2.8013980960952 8.93444508817617  2.8013980960952 9.13176  C 2.8013980960952 9.50457084528013  3.10841818892178 9.8067937491563  3.48714666666667 9.8067937491563  C 3.65058672549887 9.8067937491563  3.80865271792495 9.74933087173054  3.93286095238096 9.64476  C 4.65423238095238 9.03726  5.13834666666667 8.17056  5.3912380952381 7.06707  C 5.40245906733634 7.01821870569774  5.40812183995025 6.96828980535022  5.40812183995025 6.91820532456604  C 5.40812183995025 6.60267478632644  5.18605951677372 6.32924284255362  4.87338666666667 6.25977  Z " fill-rule="nonzero" fill="#2000ff" stroke="none" transform="matrix(1 0 0 1 154 338 )" />
  </g>
</svg>