<?xml version="1.0" encoding="utf-8"?>
<svg version="1.1" xmlns:xlink="http://www.w3.org/1999/xlink" width="7px" height="7px" xmlns="http://www.w3.org/2000/svg">
  <g transform="matrix(1 0 0 1 -43 -822 )">
    <path d="M 6.1865234375 3.6435546875  C 6.2138671875 3.27578125  6.2111328125 2.906640625  6.17421875 2.540234375  L 6.1646484375 2.430859375  C 6.0935546875 1.7349609375  5.668359375 1.1251953125  5.0462890625 0.817578125  C 4.0728515625 0.3376953125  2.9298828125 0.3376953125  1.9564453125 0.817578125  C 1.334375 1.1251953125  0.9091796875 1.7349609375  0.8380859375 2.430859375  L 0.828515625 2.540234375  C 0.7916015625 2.906640625  0.7875 3.27578125  0.8189453125 3.6421875  L 0.828515625 3.765234375  C 0.844921875 3.9662109375  0.855859375 4.082421875  0.8763671875 4.1931640625  C 0.981640625 4.7947265625  1.29609375 5.3388671875  1.7623046875 5.7298828125  C 1.8470703125 5.80234375  1.94140625 5.86796875  2.1068359375 5.9828125  L 2.1916015625 6.04296875  C 2.41171875 6.19609375  2.54296875 6.2890625  2.6810546875 6.3546875  C 3.1978515625 6.60625  3.80625 6.60625  4.3244140625 6.3546875  C 4.4625 6.2890625  4.5951171875 6.19609375  4.8138671875 6.04296875  L 4.8986328125 5.9841796875  C 5.0640625 5.8693359375  5.1583984375 5.80234375  5.2431640625 5.73125  C 5.709375 5.340234375  6.023828125 4.79609375  6.1291015625 4.19453125  C 6.149609375 4.0837890625  6.1591796875 3.967578125  6.176953125 3.7666015625  L 6.1865234375 3.6435546875  Z M 4.5048828125 2.7083984375  C 4.5951171875 2.7958984375  4.5978515625 2.939453125  4.514453125 3.0310546875  L 3.4330078125 4.2013671875  C 3.3919921875 4.246484375  3.3345703125 4.2724609375  3.2744140625 4.273828125  C 3.21015625 4.2751953125  3.152734375 4.2505859375  3.108984375 4.2068359375  L 2.491015625 3.5833984375  C 2.403515625 3.49453125  2.403515625 3.349609375  2.491015625 3.2607421875  C 2.578515625 3.171875  2.7248046875 3.171875  2.8123046875 3.2607421875  L 3.26484375 3.7173828125  L 4.1876953125 2.7193359375  C 4.2724609375 2.627734375  4.4146484375 2.622265625  4.5048828125 2.7083984375  Z " fill-rule="nonzero" fill="#2157f2" stroke="none" transform="matrix(1 0 0 1 43 822 )" />
  </g>
</svg>