<?xml version="1.0" encoding="utf-8"?>
<svg version="1.1" xmlns:xlink="http://www.w3.org/1999/xlink" width="19px" height="19px" xmlns="http://www.w3.org/2000/svg">
  <g transform="matrix(1 0 0 1 -110 -306 )">
    <path d="M 16.7919921875 9.8896484375  C 16.8662109375 8.89140625  16.8587890625 7.889453125  16.75859375 6.894921875  L 16.7326171875 6.598046875  C 16.5396484375 4.7091796875  15.385546875 3.0541015625  13.6970703125 2.219140625  C 11.0548828125 0.9166015625  7.9525390625 0.9166015625  5.3103515625 2.219140625  C 3.621875 3.0541015625  2.4677734375 4.7091796875  2.2748046875 6.598046875  L 2.248828125 6.894921875  C 2.1486328125 7.889453125  2.1375 8.89140625  2.2228515625 9.8859375  L 2.248828125 10.219921875  C 2.293359375 10.7654296875  2.323046875 11.080859375  2.3787109375 11.3814453125  C 2.664453125 13.0142578125  3.51796875 14.4912109375  4.7833984375 15.5525390625  C 5.0134765625 15.74921875  5.26953125 15.92734375  5.7185546875 16.2390625  L 5.9486328125 16.40234375  C 6.54609375 16.81796875  6.90234375 17.0703125  7.2771484375 17.2484375  C 8.6798828125 17.93125  10.33125 17.93125  11.7376953125 17.2484375  C 12.1125 17.0703125  12.4724609375 16.81796875  13.0662109375 16.40234375  L 13.2962890625 16.2427734375  C 13.7453125 15.9310546875  14.0013671875 15.74921875  14.2314453125 15.55625  C 15.496875 14.494921875  16.350390625 13.01796875  16.6361328125 11.38515625  C 16.691796875 11.0845703125  16.7177734375 10.769140625  16.766015625 10.2236328125  L 16.7919921875 9.8896484375  Z M 12.2275390625 7.3513671875  C 12.4724609375 7.5888671875  12.4798828125 7.978515625  12.253515625 8.2271484375  L 9.3181640625 11.4037109375  C 9.2068359375 11.526171875  9.0509765625 11.5966796875  8.8876953125 11.600390625  C 8.71328125 11.6041015625  8.557421875 11.5373046875  8.438671875 11.4185546875  L 6.761328125 9.7263671875  C 6.523828125 9.48515625  6.523828125 9.091796875  6.761328125 8.8505859375  C 6.998828125 8.609375  7.3958984375 8.609375  7.6333984375 8.8505859375  L 8.86171875 10.0900390625  L 11.3666015625 7.3810546875  C 11.5966796875 7.132421875  11.9826171875 7.117578125  12.2275390625 7.3513671875  Z " fill-rule="nonzero" fill="#2157f2" stroke="none" transform="matrix(1 0 0 1 110 306 )" />
  </g>
</svg>