<?xml version="1.0" encoding="utf-8"?>
<svg version="1.1" xmlns:xlink="http://www.w3.org/1999/xlink" width="8px" height="7px" xmlns="http://www.w3.org/2000/svg">
  <g transform="matrix(1 0 0 1 -163 -348 )">
    <path d="M 0.352000000000001 3.48444444444444  C 0.352000000000001 1.62888444444445  1.899424 0.124444444444447  3.808 0.124444444444447  C 5.716576 0.124444444444447  7.264 1.62888444444445  7.264 3.48444444444444  C 7.264 5.34000444444444  5.716576 6.84444444444444  3.808 6.84444444444444  C 1.899424 6.84444444444444  0.352000000000001 5.34000444444444  0.352000000000001 3.48444444444444  Z M 3.0952 2.70940444444444  L 3.06064 2.67804444444445  C 2.92946078352566 2.56667195871556  2.76120624142983 2.50530054983797  2.58704903283097 2.50530054983797  C 2.18940401295279 2.50530054983797  1.86704903283097 2.81870122495642  1.86704903283097 3.20530054983797  C 1.86704903283097 3.39056487039028  1.94259072797396 3.5682738113926  2.07712 3.69948444444444  L 3.298816 4.88724444444444  L 3.333376 4.91888444444445  C 3.61867857886692 5.16195740278768  4.04902804645518 5.14811704251973  4.317184 4.88724444444444  L 5.53888 3.69948444444444  L 5.571424 3.66588444444444  C 5.82144190001018 3.38850693721272  5.80720610087744 2.97011162150191  5.53888 2.70940444444444  L 5.50432 2.67804444444445  C 5.21913546329431 2.43507206555549  4.78899668324797 2.4487872438358  4.5208 2.70940444444444  L 3.808 3.40240444444444  L 3.0952 2.70940444444444  Z " fill-rule="nonzero" fill="#ff0065" stroke="none" transform="matrix(1 0 0 1 163 348 )" />
  </g>
</svg>