<?xml version="1.0" encoding="utf-8"?>
<svg version="1.1" xmlns:xlink="http://www.w3.org/1999/xlink" width="15px" height="15px" xmlns="http://www.w3.org/2000/svg">
  <g transform="matrix(1 0 0 1 -150 -392 )">
    <path d="M 0.555555550130208 7.5  C 0.555555550130208 3.66475694986979  3.66475694986979 0.555555550130208  7.5 0.555555550130208  C 11.3352430501302 0.555555550130208  14.4444444498698 3.66475693359375  14.4444444498698 7.5  C 14.4444444498698 8.77430555013021  14.1001736165365 9.99947916666667  13.4583333333333 11.0689236165365  C 13.3641890284609 11.2257799778276  13.1946588172827 11.3217503562632  13.01171875 11.3217503562632  C 12.7240434003606 11.3217503562632  12.4908364520051 11.0885434079077  12.4908364520051 10.8008680582682  C 12.4908364520051 10.706436024052  12.5165077145552 10.613780357378  12.5651041666667 10.5328125  C 13.1150055675633 9.61689367032791  13.4046269263366 8.56831429547938  13.4027777832031 7.5  C 13.4027777832031 4.23993055013021  10.7600694498698 1.59722221679688  7.5 1.59722221679688  C 4.23993055013021 1.59722221679688  1.59722221679688 4.23993055013021  1.59722221679688 7.5  C 1.59722221679688 10.7600694498698  4.23993055013021 13.4027777832031  7.5 13.4027777832031  C 8.56816369824444 13.4046685963273  9.6166124192629 13.1151702143526  10.5324652832031 12.5654513834635  C 10.6134114726548 12.5168836697925  10.7060353658503 12.4912283366063  10.8004340332031 12.4912283366063  C 11.0880847134954 12.4912283366063  11.3212716633937 12.7244152865046  11.3212716633937 13.0120659667969  C 11.3212716633937 13.1950168782776  11.2252818955505 13.3645530827218  11.0684027832031 13.4586805501302  C 9.99066017858254 14.1055397495421  8.75696154598187 14.4463464490829  7.5 14.4444444498698  C 3.66475694986979 14.4444444498698  0.555555550130208 11.3352430501302  0.555555550130208 7.5  Z M 6.80566186479164 10.4513888916016  C 6.80566186479164 10.0678993301337  7.11651044302614 9.7570031594799  7.5 9.75694444986979  C 7.88363739392915 9.75694444173177  8.19455076453123 10.0678578123338  8.19455076453123 10.4513888916016  C 8.19455076453123 10.8349199708693  7.88363739392915 11.1458333414714  7.50010631466143 11.1458333414714  C 7.11651044302614 11.1457746237232  6.80566186479164 10.8348784530694  6.80566186479164 10.4513888916016  Z M 6.80555555013021 4.54861111653646  C 6.80555555013021 4.16508003726874  7.11646892073228 3.85416666666667  7.5 3.85416666666667  C 7.88353107926772 3.85416666666667  8.19444444986979 4.16508003726874  8.19444444986979 4.54861111653646  L 8.19444444986979 8.36805555013021  C 8.19444444986979 8.75158662939793  7.88353107926772 9.0625  7.5 9.0625  C 7.11646892073228 9.0625  6.80555555013021 8.75158662939793  6.80555555013021 8.36805555013021  L 6.80555555013021 4.54861111653646  Z " fill-rule="nonzero" fill="#7f7f7f" stroke="none" transform="matrix(1 0 0 1 150 392 )" />
  </g>
</svg>