<?xml version="1.0" encoding="utf-8"?>
<svg version="1.1" xmlns:xlink="http://www.w3.org/1999/xlink" width="16px" height="16px" xmlns="http://www.w3.org/2000/svg">
  <g transform="matrix(1 0 0 1 -181 -533 )">
    <path d="M 15.4526315789474 1.96266666666667  C 15.9157894736842 1.49333333333333  15.9157894736842 0.767999999999999  15.4526315789474 0.341333333333335  C 15.0315789473684 -0.085333333333333  14.3157894736842 -0.085333333333333  13.8947368421053 0.341333333333335  L 7.91578947368421 6.4  L 1.89473684210526 0.341333333333335  C 1.47368421052632 -0.085333333333333  0.757894736842104 -0.085333333333333  0.33684210526316 0.341333333333335  C -0.0842105263157877 0.768000000000002  -0.0842105263157892 1.49333333333334  0.33684210526316 1.92  L 6.31578947368421 8.02133333333333  L 0.33684210526316 14.08  C -0.0842105263157892 14.5066666666667  -0.0842105263157892 15.232  0.33684210526316 15.6586666666667  C 0.757894736842107 16.0853333333333  1.47368421052632 16.0853333333333  1.89473684210526 15.6586666666667  L 7.87368421052632 9.6  L 13.8947368421053 15.6586666666667  C 14.3157894736842 16.0853333333333  15.0315789473684 16.0853333333333  15.4526315789474 15.6586666666667  C 15.8736842105263 15.232  15.8736842105263 14.5066666666667  15.4526315789474 14.08  L 9.47368421052632 8.02133333333333  L 15.4526315789474 1.96266666666667  Z " fill-rule="nonzero" fill="#ffffff" stroke="none" transform="matrix(1 0 0 1 181 533 )" />
  </g>
</svg>