<?xml version="1.0" encoding="utf-8"?>
<svg version="1.1" xmlns:xlink="http://www.w3.org/1999/xlink" width="40px" height="40px" xmlns="http://www.w3.org/2000/svg">
  <g transform="matrix(1 0 0 1 -169 -521 )">
    <path d="M 39.8681318681319 20  C 39.8681318681319 9.05494505494507  30.9450549450549 0.131868131868132  20 0.131868131868132  C 9.05494505494506 0.131868131868132  0.131868131868132 9.05494505494506  0.131868131868132 20  C 0.131868131868132 30.9450549450549  9.05494505494506 39.8681318681319  20 39.8681318681319  C 30.9450549450549 39.8681318681319  39.8681318681319 30.9450549450549  39.8681318681319 20  Z M 37.6263736263736 19.956043956044  C 37.5824175824176 29.7142857142857  29.7142857142857 37.5824175824176  20 37.5824175824176  C 10.2857142857143 37.5824175824176  2.37362637362637 29.6703296703297  2.37362637362637 19.956043956044  C 2.37362637362637 10.2417582417582  10.2857142857143 2.32967032967033  20 2.32967032967033  C 29.7142857142857 2.32967032967033  37.6263736263736 10.2417582417582  37.6263736263736 19.956043956044  Z " fill-rule="nonzero" fill="#ffffff" stroke="none" transform="matrix(1 0 0 1 169 521 )" />
  </g>
</svg>