<?xml version="1.0" encoding="utf-8"?>
<svg version="1.1" xmlns:xlink="http://www.w3.org/1999/xlink" width="6px" height="3px" xmlns="http://www.w3.org/2000/svg">
  <g transform="matrix(1 0 0 1 -123 -17 )">
    <path d="M 5.944 2.11341667285156  C 5.944 2.46175  5.659 2.74675  5.31066667285156 2.74675  C 4.96233334570312 2.74675  4.67733334570312 2.46175  4.67733332714844 2.11341667285156  L 4.67733332714844 1.48008332714844  C 4.67733332714844 1.13175  4.96233332714844 0.84675  5.31066667285156 0.84675  C 5.65900001855469 0.84675  5.944 1.13175  5.944 1.48008332714844  L 5.944 2.11341667285156  Z M 2.01733332714844 2.11341667285156  C 2.01733332714844 2.46175  1.73233332714844 2.74675  1.384 2.74675  C 1.03566667285156 2.74675  0.750666672851563 2.46175  0.750666672851563 2.11341667285156  L 0.750666672851563 1.48008332714844  C 0.750666672851563 1.13175  1.03566667285156 0.84675  1.384 0.84675  C 1.73233332714844 0.84675  2.01733332714844 1.13175  2.01733332714844 1.48008332714844  L 2.01733332714844 2.11341667285156  Z " fill-rule="nonzero" fill="#2000ff" stroke="none" transform="matrix(1 0 0 1 123 17 )" />
  </g>
</svg>