<?xml version="1.0" encoding="utf-8"?>
<svg version="1.1" xmlns:xlink="http://www.w3.org/1999/xlink" width="13px" height="17px" xmlns="http://www.w3.org/2000/svg">
  <g transform="matrix(1 0 0 1 -121 -9 )">
    <path d="M 12.8285833271484 11.1853333271484  C 12.8285833271484 14.1699166542969  9.50358332714844 16.39925  6.53166667285156 16.39925  C 3.1465 16.39925  0.736666672851563 14.4390833271484  0.242666672851563 11.2835  C 0.212583345703126 11.0555  -0.423916654296875 6.01891667285156  2.25825 2.83483332714844  C 2.34691667285156 2.73033332714844  2.4625 2.648  2.59708332714844 2.61791667285156  C 2.93275 2.54191667285156  3.24308332714844 2.72875  3.34916667285156 3.02325  C 3.70066667285156 4.02233332714844  4.1535 4.50366667285156  4.47016667285156 4.73483332714844  C 4.47808334570313 4.74116665429688  4.48916667285156 4.738  4.4955 4.73008332714844  C 5.12408332714844 3.71833332714844  6.823 1.70116665429688  10.7924166728516 0.622916672851563  C 11.0251666728516 0.559583345703126  11.27375 0.634000000000001  11.4320833271484 0.814500000000001  C 11.5916086944442 0.994886859781871  11.6351631858137 1.25007936095125  11.5445 1.47316667285156  C 10.9301666728516 2.97733334570313  10.7528333271484 4.97708334570313  10.7069166728516 6.28808332714844  C 10.7069166728516 6.30391665429688  10.7243333457031 6.31183332714844  10.7354166728516 6.30233332714844  C 11.00775 6.0775  11.3465833457031 5.79725  11.7645833271484 5.4505  C 11.915 5.32541667285156  12.1113333271484 5.25891667285156  12.3045 5.29375  C 12.6148333271484 5.35075  12.8285833271484 5.61833332714844  12.8285833271484 5.91758332714844  L 12.8285833271484 11.1853333271484  Z M 4.68075 6.18991667285156  C 4.543 6.16775  3.49166667285156 5.97616667285156  2.64616667285156 4.52583332714844  C 2.64280719280301 4.52030214381774  2.63680481965873 4.51692503566165  2.63033333642578 4.51692503566165  C 2.62386185319283 4.51692503566165  2.61785948004855 4.52030214381774  2.6145 4.52583332714844  C 1.02008332714844 7.28716665429688  1.49033332714844 11.0586666542969  1.49666667285156 11.1014166728516  C 1.89091667285156 13.6189166728516  3.77508334570313 15.1325833457031  6.53166667285156 15.1325833271484  C 8.85758334570312 15.1325833271484  11.5619166728516 13.4083333271484  11.5619166728516 11.1853333271484  L 11.5619166728516 7.30141667285156  C 11.5619166728516 7.28558334570313  11.5429166728516 7.27925  11.5318333271484 7.28875  C 10.6673333271484 8.00441667285156  10.4789166542969 8.16275  10.4773333271484 8.16591667285156  C 10.3629808170995 8.26267633848472  10.218033242354 8.31577171009239  10.0682369491824 8.31577171009239  C 9.72914331085025 8.31577171009239  9.45021217903828 8.04869100385273  9.4355 7.70991667285156  C 9.42916667285156 7.57058334570313  9.31833332714844 4.738  9.96591667285156 2.24266667285156  C 9.96908334570312 2.22841667285156  9.95641667285156 2.21733334570313  9.94216667285156 2.22208332714844  C 6.23716667285156 3.579  5.3695 5.76241665429687  5.36158332714844 5.78616667285156  C 5.2565679889829 6.06305748497482  4.97408147481137 6.23057855885417  4.68075 6.18991667285156  Z " fill-rule="nonzero" fill="#333c4f" stroke="none" transform="matrix(1 0 0 1 121 9 )" />
  </g>
</svg>