<?xml version="1.0" encoding="utf-8"?>
<svg version="1.1" xmlns:xlink="http://www.w3.org/1999/xlink" width="9px" height="12px" xmlns="http://www.w3.org/2000/svg">
  <g transform="matrix(1 0 0 1 -123 -12 )">
    <path d="M 8.77025 8.18533332714844  C 8.77025 9.74808332714844  6.63116667285156 11.3409166542969  4.53166667285156 11.3409166728516  C 2.13608334570313 11.3409166728516  0.627166672851563 10.15025  0.280416672851564 7.98583332714844  C 0.258250000000001 7.80375  0.0508333457031256 5.3765  0.707916672851564 3.2105  C 0.764916672851563 3.02208332714844  0.991333345703127 2.95083332714844  1.14808332714844 3.06958332714844  C 1.77983332714844 3.54616665429687  2.66016665429688 3.923  3.13991667285156 4.02433332714844  C 3.32991667285156 4.06391665429688  3.52308334570313 3.98475  3.63075 3.82483332714844  C 4.03925 3.21683332714844  5.16341667285156 1.68258332714844  6.65333332714844 0.761083327148437  C 6.78158332714844 0.681916654296875  6.93675 0.81175  6.88608332714844 0.95425  C 6.00733332714844 3.43533332714844  6.17833332714844 5.42558332714844  6.43166667285156 6.57191667285156  C 6.54725 7.09441667285156  7.17266667285156 7.30975  7.57958332714844 6.963  L 8.39341667285156 6.27425  C 8.54225 6.14758332714844  8.77025 6.25366667285156  8.77025 6.44841667285156  L 8.77025 8.18533332714844  Z " fill-rule="nonzero" fill="#ff0065" stroke="none" transform="matrix(1 0 0 1 123 12 )" />
  </g>
</svg>