<?xml version="1.0" encoding="utf-8"?>
<svg version="1.1" xmlns:xlink="http://www.w3.org/1999/xlink" width="162px" height="42px" xmlns="http://www.w3.org/2000/svg">
  <g transform="matrix(1 0 0 1 -193 -512 )">
    <path d="M 194 514  A 1 1 0 0 1 195 513 L 353 513  A 1 1 0 0 1 354 514 L 354 552  A 1 1 0 0 1 353 553 L 195 553  A 1 1 0 0 1 194 552 L 194 514  Z " fill-rule="nonzero" fill="#f2f2f2" stroke="none" />
    <path d="M 193.5 514  A 1.5 1.5 0 0 1 195 512.5 L 353 512.5  A 1.5 1.5 0 0 1 354.5 514 L 354.5 552  A 1.5 1.5 0 0 1 353 553.5 L 195 553.5  A 1.5 1.5 0 0 1 193.5 552 L 193.5 514  Z " stroke-width="1" stroke-dasharray="3,1" stroke="#797979" fill="none" stroke-dashoffset="0.5" />
  </g>
</svg>