<?xml version="1.0" encoding="utf-8"?>
<svg version="1.1" xmlns:xlink="http://www.w3.org/1999/xlink" width="22px" height="22px" xmlns="http://www.w3.org/2000/svg">
  <g transform="matrix(1 0 0 1 -333 -57 )">
    <path d="M 22 11  C 22 4.90416667382812  17.0958333261719 0  11 0  C 4.90416667382812 0  0 4.90416667382812  0 11  C 0 17.0958333261719  4.90416667382812 22  11 22  C 17.0958333261719 22  22 17.0958333261719  22 11  Z M 12.1916666738281 16.3166666738281  C 12.1458333476562 16.6833333476563  12.0083333476562 17.0041666738281  11.7791666738281 17.2333333261719  C 11.55 17.4625  11.2291666738281 17.5541666523437  10.9083333261719 17.5541666738281  C 10.5874999785156 17.5541666953125  10.2666666523437 17.4166666738281  10.0375 17.1875  C 9.80833334765625 16.9583333261719  9.67083332617187 16.6833333261719  9.67083332617187 16.3166666738281  C 9.67083332617187 15.95  9.7625 15.675  10.0375 15.4458333261719  C 10.2666666738281 15.2166666523438  10.5875 15.125  10.9083333261719 15.125  C 11.2291666523437 15.125  11.55 15.2166666738281  11.825 15.4458333261719  C 12.0541666738281 15.675  12.1916666738281 15.95  12.1916666738281 16.3166666738281  Z M 14.6208333261719 9.075  C 14.6666666523438 9.85416667382813  14.4833333261719 10.5416666738281  14.0708333261719 11.0458333261719  C 13.9333333261719 11.1833333261719  13.475 11.6416666523437  12.6958333261719 12.3291666738281  C 12.4208333261719 12.5583333476562  12.1916666523437 12.8333333476563  12.0541666738281 13.1083333261719  C 11.8708333476562 13.4291666523437  11.825 13.7958333261719  11.825 14.1625  L 11.825 14.3916666738281  L 9.99166667382812 14.3916666738281  L 9.99166667382812 14.1625  C 9.99166667382812 13.5666666738281  10.0833333476563 13.0166666738281  10.3125 12.6041666738281  C 10.5416666738281 12.1916666738281  11.1375 11.5041666738281  12.1916666738281 10.5875  L 12.375 10.3583333261719  C 12.65 9.99166665234375  12.7875 9.625  12.7875 9.2125  C 12.7875 8.6625  12.65 8.25  12.3291666738281 7.975  C 12.0083333476563 7.65416667382813  11.5958333476562 7.51666667382813  11.0458333261719 7.51666667382813  C 10.3583333261719 7.51666667382813  9.85416665234375 7.74583334765625  9.53333332617187 8.15833332617188  C 9.25833332617188 8.525  9.12083332617188 9.075  9.12083332617188 9.71666667382813  L 7.2875 9.71666667382813  C 7.2875 8.525  7.60833332617188 7.60833334765625  8.34166667382813 6.92083332617188  C 9.02916667382813 6.23333332617188  9.94583334765625 5.9125  11.1375 5.9125  C 12.1916666738281 5.9125  13.0166666738281 6.1875  13.6583333261719 6.78333332617188  C 14.3 7.33333332617188  14.6208333261719 8.1125  14.6208333261719 9.075  Z " fill-rule="nonzero" fill="#555555" stroke="none" transform="matrix(1 0 0 1 333 57 )" />
  </g>
</svg>