<?xml version="1.0" encoding="utf-8"?>
<svg version="1.1" xmlns:xlink="http://www.w3.org/1999/xlink" width="12px" height="14px" xmlns="http://www.w3.org/2000/svg">
  <g transform="matrix(1 0 0 1 -25 -610 )">
    <path d="M 12 6.31372548483456  C 12 9.72485294117647  6.833333328125 13.8627450873162  6 13.8627451034007  C 5.166666671875 13.8627451034007  0 9.72485294117647  0 6.31372548483456  C 0 2.90259802849265  2.686333328125 0.137254896599265  6 0.137254896599265  C 9.313666671875 0.137254896599265  12 2.90259802849265  12 6.31372548483456  Z M 4.166666671875 6.31372548483456  C 4.166666671875 7.35600489659926  4.9875 8.20098038143382  6 8.20098039751838  C 7.0125 8.20098039751838  7.833333328125 7.35600491268382  7.833333328125 6.31372548483456  C 7.833333328125 5.27144605698529  7.0125 4.42647058823529  6 4.42647058823529  C 4.9875 4.42647058823529  4.166666671875 5.27144607306985  4.166666671875 6.31372548483456  Z " fill-rule="nonzero" fill="#000000" stroke="none" transform="matrix(1 0 0 1 25 610 )" />
  </g>
</svg>