<?xml version="1.0" encoding="utf-8"?>
<svg version="1.1" xmlns:xlink="http://www.w3.org/1999/xlink" width="26px" height="24px" xmlns="http://www.w3.org/2000/svg">
  <g transform="matrix(1 0 0 1 -337 -21 )">
    <path d="M 3.22425944195122 7.99856781445676  L 3.22425944195122 17.5614958760089  C 3.22425944195122 18.0023400856763  3.3833229099187 18.3796009862528  3.70144984585366 18.6932785777384  C 4.01957678178862 19.0069561692239  4.41078692747968 19.1637949733038  4.87508028292683 19.1637949899778  L 11.2978051121951 19.1637949899778  L 11.2978051121951 22.3683932179157  L 3.22425944195122 22.3683932179157  C 2.77716212292683 22.3683932179157  2.35585888390244 22.287854376408  1.96034972487805 22.1267766933925  C 1.56484056585366 21.9656990103769  1.22091955837398 21.7410380266075  0.928586702439024 21.4527937420843  C 0.636253846504065 21.164549457561  0.408406182113821 20.825438534102  0.245043709268293 20.4354609717073  C 0.0816812364227642 20.0454834093126  0 19.6215947570732  0 19.1637950149889  L 0 3.21710379618625  C 0 2.77625958651885  0.0816812364227642 2.36084870048781  0.245043709268293 1.97087113809313  C 0.408406182113821 1.58089357569845  0.636253846504065 1.24178265223947  0.928586702439024 0.953538367716187  C 1.22091955837398 0.665294083192905  1.56484056585366 0.436394212150777  1.96034972487805 0.266838754589801  C 2.35585888390244 0.0972832803547675  2.77716212292683 0.0125055432372508  3.22425944195122 0  L 22.6729924643902 0  C 23.1200897834146 0.0125055432372508  23.541393022439 0.0972832803547675  23.9369021814634 0.266838754589801  C 24.3324113404878 0.436394228824834  24.6763323479675 0.665294099866963  24.9686652039024 0.953538367716187  C 25.2609980598374 1.24178263556541  25.493144737561 1.58089355902439  25.6651052370732 1.97087113809313  C 25.8370657365854 2.36084871716186  25.9230459863415 2.77625960319291  25.9230459863415 3.21710379618625  L 25.9230459863415 7.8968345449224  L 22.6729924643902 7.92226786855876  C 22.6386003577236 7.49837920798226  22.4709388630894 7.13807384815965  22.1700079804878 6.84135178909091  C 21.8690770978862 6.54462973002217  21.4950630055285 6.39626870048781  21.0479657034146 6.39626870048781  L 4.87508028292683 6.39626870048781  C 4.41078692747967 6.39626870048781  4.01957678178861 6.55310750456763  3.70144984585365 6.86678511272727  C 3.3833229099187 7.18046272088692  3.22425944195122 7.55772362146342  3.22425944195122 7.99856781445676  Z M 25.2266059785366 11.8008490478049  C 25.4673506913821 12.029748927184  25.6565072442276 12.2798432345898  25.7940756117073 12.5511319700222  C 25.8972519147968 12.7037318784922  25.9617371063415 12.8987206596896  25.9875311863415 13.1360983136142  C 26.0133252663415 13.3734759675388  25.923046003252 13.6108536131264  25.7166933970732 13.8482312503769  C 25.5275368442276 14.0856089043016  25.3727723895935 14.263642136408  25.2524000331707 14.3823309466962  L 25.0460474185366 14.5857975107761  L 22.3634635551219 12.1950654891353  C 22.449443804878 12.0933322112639  22.5698161613008 11.9704045053659  22.7245806243902 11.8262823714412  C 22.8793450874797 11.6821602375166  22.9997174439024 11.5677102978271  23.0856976936585 11.4829325523725  C 23.3264424065041 11.2455548984479  23.5843831642276 11.1395827333038  23.8595199668293 11.1650160569401  C 24.1346567694309 11.1904493805765  24.3668034471545 11.2455549067849  24.55596 11.3303326355654  C 24.7623126061789 11.4151103643459  24.9858612656911 11.5719491684257  25.2266059785366 11.8008490478049  Z M 15.1153283434146 20.4608943203548  C 15.2013085931707 20.2404722155211  15.3474750211382 20.0030945699335  15.5538276019512 19.7487613335698  C 15.6054157450407 19.6978947029712  15.7257881014634 19.562250335255  15.9149446712195 19.3418282304213  C 16.1041012409756 19.1214061255876  16.3405469320325 18.8501173901552  16.6242817443902 18.5279620241242  C 16.908016556748 18.2058066580931  17.2218444793496 17.853979072816  17.5657655121951 17.4724792682927  C 17.9096865450407 17.0909794637694  18.2536075525203 16.7052407886474  18.5975285346341 16.3152632429268  C 19.4229389593496 15.3996637420843  20.3429276604878 14.3823309717073  21.3574946380488 13.263264931796  L 24.0916666614634 15.6539969534368  C 23.0770996839024 16.790018542439  22.1571109827642 17.8158290873614  21.3317005580488 18.731428588204  C 20.9877795421138 19.1214061505987  20.6438585346341 19.5071448257206  20.2999375356098 19.8886446135698  C 19.9560165365854 20.2701444014191  19.6421886139837 20.6134942121508  19.3584537678049 20.918694045765  C 19.074718921626 21.2238938793792  18.8425722439024 21.4739881867849  18.6620137346341 21.6689769679823  C 18.4814552253659 21.8639657491796  18.3739799089431 21.9784156888692  18.3395877853659 22.012326787051  C 18.184823339187 22.2157933427938  17.9698727063415 22.3853488086918  17.6947358868293 22.520993184745  C 17.5743635304065 22.6057709135255  17.3938050042276 22.6990264168514  17.1530603082927 22.8007596947228  C 16.9123156123577 22.9024929725942  16.6586738679675 23.0042262504656  16.392135075122 23.105959528337  C 16.1255962822764 23.2076928062084  15.8762535512195 23.2967094222616  15.6441068819512 23.3730093764967  C 15.4119602126829 23.4493093307317  15.2357006998374 23.4959370823947  15.1153283434146 23.5128926314856  C 14.6682310243902 23.5976703602661  14.470476444878 23.4111593536142  14.5220646048781 22.9533596115299  C 14.5392606582114 22.8346707845676  14.5736527564228 22.6523986651885  14.6252408995122 22.4065432533925  C 14.6768290426016 22.1606878415964  14.7327162074797 21.906354646918  14.7929023941463 21.643543669357  C 14.853088580813 21.380732691796  14.9132747590244 21.1391161589357  14.9734609287805 20.9186940707761  C 15.0336470985366 20.6982719826164  15.080936236748 20.5456720658093  15.1153283434146 20.4608943203548  Z " fill-rule="nonzero" fill="#555555" stroke="none" transform="matrix(1 0 0 1 337 21 )" />
  </g>
</svg>