<?xml version="1.0" encoding="utf-8"?>
<svg version="1.1" xmlns:xlink="http://www.w3.org/1999/xlink" width="31px" height="8px" xmlns="http://www.w3.org/2000/svg">
  <g transform="matrix(1 0 0 1 -332 -86 )">
    <path d="M 30.9002465528466 3.96360248579545  C 30.9002465528466 1.79376455965909  29.1324497350934 0.0345209517045465  26.9512079202586 0.0345209517045465  C 24.7705002402119 0.0345209517045465  23.0027033876616 1.79380088778409  23.0027033876616 3.96360248579545  C 23.0027033876616 6.13311338778409  24.7705002402119 7.89301107954546  26.9512079202586 7.89301107954546  C 29.1324853324802 7.89301107954546  30.9002465528466 6.13307705965909  30.9002465528466 3.96360248579545  Z M 19.0536647550736 3.96360248579545  C 19.0536647550736 1.79376455965909  17.2858679025233 0.0345209517045465  15.1051602224767 0.0345209517045465  C 12.9244881398168 0.0345209517045465  11.1561215898886 1.79380088778409  11.1561215898886 3.96360248579545  C 11.1561215898886 6.13311338778409  12.9245237720007 7.89301107954546  15.1051602224767 7.89301107954546  C 17.2858679025233 7.89301107954546  19.0536647550736 6.13307705965909  19.0536647550736 3.96360248579545  Z M 7.99729657754131 3.96360248579545  C 7.99726098015445 1.79376455965909  6.22949975978807 0.0345209517045465  4.04882767712823 0.0345209517045465  C 1.86751466751976 0.0345209517045465  0.099753412356322 1.79380088778409  0.099753412356322 3.96360248579545  C 0.099753412356322 6.13311338778409  1.8675146327227 7.89301107954546  4.04882767712823 7.89301107954546  C 6.22953535717493 7.89301107954546  7.99729657754131 6.13307705965909  7.99729657754131 3.96360248579545  Z " fill-rule="nonzero" fill="#000000" stroke="none" transform="matrix(1 0 0 1 332 86 )" />
  </g>
</svg>