<?xml version="1.0" encoding="utf-8"?>
<svg version="1.1" xmlns:xlink="http://www.w3.org/1999/xlink" width="14px" height="14px" xmlns="http://www.w3.org/2000/svg">
  <g transform="matrix(1 0 0 1 -14 -69 )">
    <path d="M 21 71  C 23.8 71  26 73.2  26 76  C 26 78.8  23.8 81  21 81  C 18.2 81  16 78.8  16 76  C 16 73.2  18.2 71  21 71  Z " fill-rule="nonzero" fill="#ffffff" stroke="none" />
    <path d="M 21 70.5  C 24.08 70.5  26.5 72.92  26.5 76  C 26.5 79.08  24.08 81.5  21 81.5  C 17.92 81.5  15.5 79.08  15.5 76  C 15.5 72.92  17.92 70.5  21 70.5  Z " stroke-width="3" stroke="#797979" fill="none" />
  </g>
</svg>