<?xml version="1.0" encoding="utf-8"?>
<svg version="1.1" xmlns:xlink="http://www.w3.org/1999/xlink" width="10px" height="10px" xmlns="http://www.w3.org/2000/svg">
  <g transform="matrix(1 0 0 1 -341 -111 )">
    <path d="M 9.55590609544837 9.60768165251358  C 9.86631302309783 9.29812326681386  9.86705210682745 8.79545016686481  9.55752108568275 8.48351034264606  L 6.11805347274117 5.03383270125679  L 9.5543732256284 1.63572531589674  C 9.86631302309783 1.32772719132133  9.86866709706182 0.824342398947012  9.56064158118206 0.512375210173233  C 9.25264345660666 0.200024810631793  8.74846485139266 0.197643372112771  8.43647029806386 0.506435336277173  L 4.99703004967731 3.90851175908628  L 1.60880423785666 0.509610560886549  C 1.29845203931726 0.19923099779212  0.795806330672555 0.19767076341712  0.484660319293478 0.508022935207201  C 0.174280756199048 0.818813100373643  0.174280756199048 1.32140407990829  0.483072693614131 1.63181100755775  L 3.86735683254076 5.02597672002378  L 0.45630216075068 8.39996873683764  C 0.144334971976902 8.70876067425272  0.141187111922555 9.21061259680707  0.450006440641985 9.5226345146909  C 0.605976352751359 9.6801920257303  0.809246366338316 9.75891605213994  1.01404924974524 9.75891605213994  C 1.21573163765285 9.75891605213994  1.41894689538044 9.68175228685462  1.57338393766984 9.52969668308424  L 4.98914675738791 6.15094181598166  L 8.43176217688519 9.60612139138927  C 8.58696564070992 9.76127012610394  8.79097471127718 9.83930982464334  8.99501117314878 9.83930982464334  C 9.19828118673573 9.83930982464334  9.40067526706861 9.76127012610394  9.55590609544837 9.60768165251358  Z " fill-rule="nonzero" fill="#272536" stroke="none" transform="matrix(1 0 0 1 341 111 )" />
  </g>
</svg>