<?xml version="1.0" encoding="utf-8"?>
<svg version="1.1" xmlns:xlink="http://www.w3.org/1999/xlink" width="26px" height="22px" xmlns="http://www.w3.org/2000/svg">
  <g transform="matrix(1 0 0 1 -315 -184 )">
    <path d="M 0 11.1424641544118  L 0 10.7917784926471  C 0 10.7698492647059  0.018357421875 10.7260211397059  0.018357421875 10.7041222426471  C 0.11009375 10.1342049632353  0.34861328125 9.69583272058824  0.770630859375 9.41090441176471  C 0.95412890625 9.27938970588235  1.155958984375 9.23553125  1.3577890625 9.21363235294118  L 24.40369140625 9.21363235294118  C 24.9174453125 9.21363235294118  25.3027734375 9.47666176470588  25.596365234375 9.95886213235294  C 25.81652734375 10.3314770220588  25.9082890625 10.7260211397059  25.871599609375 11.1863226102941  C 25.7981953125 11.8876939338235  25.394509765625 12.5014393382353  24.78901953125 12.6767821691176  C 24.62387890625 12.7206102941176  24.45873828125 12.7425395220588  24.275265625 12.7425395220588  L 1.486240234375 12.7425395220588  C 0.880724609375 12.7425395220588  0.477064453125 12.3918235294118  0.183498046875 11.8000376838235  C 0.0917363281249999 11.6246948529412  0.0550468749999999 11.4274227941176  0.0183574218749999 11.2301204044118  C 0.0183574218749999 11.2082215073529  0 11.1643933823529  0 11.1424641544118  Z M 0 1.69551654411765  C 0 1.67358731617647  0.018357421875 1.62975919117647  0.018357421875 1.60782996323529  C 0.11009375 1.03794301470588  0.34861328125 0.599570772058825  0.770630859375 0.314612132352942  C 0.95412890625 0.183127757352942  1.155958984375 0.139299632352941  1.3577890625 0.117370404411766  L 24.40369140625 0.117370404411766  C 24.9174453125 0.117370404411766  25.3027734375 0.380369485294118  25.596365234375 0.86260018382353  C 25.81652734375 1.23521507352941  25.9082890625 1.62975919117647  25.871599609375 2.09003033088235  C 25.7981953125 2.79143198529412  25.394509765625 3.40517738970588  24.78901953125 3.58048988970588  C 24.62387890625 3.62434834558824  24.45873828125 3.64627757352941  24.275265625 4  L 1.486240234375 4  C 0.880724609375 3.64627757352941  0.477064453125 3.29556158088235  0.183498046875 2.70377573529412  C 0.0917363281249999 2.52840257352941  0.0550468749999999 2.33116084558824  0.0183574218749999 2.13385845588235  C 0.0183574218749999 2.09003033088235  0 2.04620220588235  0 2.02427297794118  L 0 1.6954862132353  Z M 24.5871640625 21.6415294117647  L 1.3027421875 21.6415294117647  C 1.266052734375 21.6415294117647  1.2476953125 21.6196305147059  1.211005859375 21.6196305147059  C 0.789013671875 21.5100147058824  0.495421875 21.2250863970588  0.275234375 20.7867141544118  C 0.11009375 20.4579273897059  0.0366894531250001 20.1072417279412  0.0550468750000001 19.7345965073529  C 0.11009375 18.9893667279412  0.55046875 18.3317931985294  1.1926484375 18.1564806985294  C 1.321125 18.1126222426471  1.4678828125 18.1126222426471  1.61469140625 18  L 24.458712890625 18  C 24.954134765625 18.1126222426471  25.3394375 18.3756516544118  25.633029296875 18.835953125  C 25.816501953125 19.1428106617647  25.926595703125 19.5154255514706  25.926595703125 19.8880404411765  C 25.926595703125 20.3264126838235  25.798169921875 20.7209264705882  25.559625 21.0497132352941  C 25.32110546875 21.3785  25.00915625 21.5757720588235  24.6422109375 21.6196305147059  C 24.623853515625 21.6196305147059  24.60549609375 21.6196305147059  24.5871640625 21.6415294117647  Z M 25.963310546875 0.994114889705882  L 26 1.21328584558824  C 25.981642578125 1.14752849264706  25.981642578125 1.05987224264706  25.963310546875 0.994114889705882  Z " fill-rule="nonzero" fill="#7f7f7f" stroke="none" transform="matrix(1 0 0 1 315 184 )" />
  </g>
</svg>