<?xml version="1.0" encoding="utf-8"?>
<svg version="1.1" xmlns:xlink="http://www.w3.org/1999/xlink" width="24px" height="24px" xmlns="http://www.w3.org/2000/svg">
  <g transform="matrix(1 0 0 1 -334 -104 )">
    <path d="M 12.0002138229658 23.5851342536851  C 18.3876206581663 23.5851342536851  23.5853480766509 18.3881765978774  23.5853480766509 11.9999429712559  C 23.5853480766509 5.6112817265625  18.3876491864682 0.414780189268868  12.0002138229658 0.414780189268868  C 5.61118196108491 0.414780189268868  0.414680423791275 5.6112817265625  0.414680423791275 11.9999429712559  C 0.414680423791275 18.3881765700177  5.61118196108491 23.5851342536851  12.0002138229658 23.5851342536851  Z M 21.9222771505012 11.9999429712559  C 21.9222771505012 17.4701021329599  17.4703159559257 21.9228330623526  12.0002138229658 21.9228330623526  C 6.52925642600236 21.9228330623526  2.07735223231132 17.4701021329599  2.07735223231132 11.9999429712559  C 2.07735223231132 6.52901407473467  6.52925639814269 2.07750902653302  12.0002138229658 2.07750902653302  C 17.4703159559257 2.07750902653302  21.9222771505012 6.52901407473467  21.9222771505012 11.9999429712559  Z " fill-rule="nonzero" fill="#272536" stroke="none" transform="matrix(1 0 0 1 334 104 )" />
  </g>
</svg>