<?xml version="1.0" encoding="utf-8"?>
<svg version="1.1" xmlns:xlink="http://www.w3.org/1999/xlink" width="22px" height="18px" xmlns="http://www.w3.org/2000/svg">
  <g transform="matrix(1 0 0 1 -332 -119 )">
    <path d="M 12.546875 5.0046875  C 11.65390625 4.02734375  10.92734375 3.23515625  10.4046875 2.65625  C 10.37890625 2.628125  10.36484375 2.6046875  10.34140625 2.5765625  L 1.88984375 11.32578125  L 1.4421875 11.7734375  C 0.8375 12.3734375  0.5 13.1890625  0.5 14.0421875  L 0.5 16.46796875  C 0.5 16.93203125  0.85859375 17.3  1.3015625 17.3  L 3.6875 17.3  C 4.465625 17.3  5.21328125 16.990625  5.76640625 16.4421875  L 6.30078125 15.91484375  L 14.64921875 7.26171875  C 14.06328125 6.640625  13.31328125 5.82265625  12.546875 5.0046875  Z M 16.025 5.8484375  C 17.0328125 4.8078125  17.0328125 3.11796875  16.025 2.075  L 15.25859375 1.2828125  C 14.78046875 0.78125  14.12421875 0.5  13.4375 0.5  C 12.7484375 0.50234375  12.08984375 0.78359375  11.6140625 1.2828125  C 13.04140625 2.85078125  14.4828125 4.40703125  15.9359375 5.95390625  L 16.025 5.8484375  Z M 21.5 16.52421875  C 21.5 16.09765625  21.153125 15.75078125  20.7265625 15.75078125  L 9.2375 15.75078125  C 8.80859375 15.75078125  8.4640625 16.09765625  8.4640625 16.52421875  C 8.4640625 16.953125  8.8109375 17.29765625  9.2375 17  L 20.7265625 17  C 21.15546875 17.29765625  21.5 16.95078125  21.5 16.52421875  Z M 21.5 13.746875  C 21.5 13.3203125  21.153125 12.9734375  20.7265625 12.9734375  L 12.25625 12.9734375  C 11.82734375 12.9734375  11.4828125 13.3203125  11.4828125 13.746875  C 11.4828125 14.17578125  11.8296875 14.5203125  12.25625 14.5203125  L 20.7265625 14.5203125  C 21.15546875 14.5203125  21.5 14.1734375  21.5 13.746875  Z M 21.5 10.9671875  C 21.5 10.540625  21.153125 10.19375  20.7265625 10.19375  L 15.3171875 10.19375  C 14.88828125 10.19375  14.54375 10.540625  14.54375 10.9671875  C 14.54375 11.39609375  14.890625 11.740625  15.3171875 11.740625  L 20.7265625 11.740625  C 21.15546875 11.740625  21.5 11.39375  21.5 10.9671875  Z " fill-rule="nonzero" fill="#000000" stroke="none" transform="matrix(1 0 0 1 332 119 )" />
  </g>
</svg>